<?xml version="1.0" standalone="no"?>
<!DOCTYPE svg PUBLIC "-//W3C//DTD SVG 1.1//EN" "http://www.w3.org/Graphics/SVG/1.1/DTD/svg11.dtd" >
<svg xmlns="http://www.w3.org/2000/svg">
<metadata></metadata>
<defs>
<font id="ondinedregular" horiz-adv-x="1024" >
<font-face units-per-em="2048" ascent="1505" descent="-543" />
<missing-glyph horiz-adv-x="512" />
<glyph horiz-adv-x="0" />
<glyph horiz-adv-x="512" />
<glyph unicode=" "  horiz-adv-x="512" />
<glyph unicode="&#x09;" horiz-adv-x="512" />
<glyph unicode="&#xa0;" horiz-adv-x="512" />
<glyph unicode="!" horiz-adv-x="550" d="M150 1150l289 207q-8 -107 -15 -279q-2 -70 -10 -216q-13 -242 -12 -364q-39 -17 -204 -123q2 155 -17 477q-12 187 -31 298zM327 287q23 -61 54 -101q23 -29 74 -75l-128 -87q-45 -31 -70 -31q-41 0 -77 53q-32 45 -32 94q0 34 22 55q10 11 42 28z" />
<glyph unicode="&#x22;" horiz-adv-x="775" d="M282 817h-149l-39 548h228zM642 817h-149l-39 548h228z" />
<glyph unicode="#" horiz-adv-x="1352" d="M268 319q-123 -18 -251 -52q20 23 96 100q47 49 84 110q45 -4 141 -6q59 137 114 302q-158 -20 -305 -60q20 23 96 100q47 49 83 110q50 -4 171 -6q23 77 49 181q98 56 205 84q-61 -112 -121 -268l120 -2q159 -3 224 -4q31 107 52 190q98 56 205 84q-62 -113 -123 -272 q123 5 227 21q-58 -93 -135 -164q-71 9 -139 14q-16 -43 -68 -197l-42 -121q144 4 254 22q-56 -90 -134 -164q-76 9 -164 16q-19 -56 -25 -73q-26 -75 -42 -132q-73 -18 -135 -50q-101 -53 -130 -66q102 156 185 328q-46 2 -96 2q-111 0 -237 -9q-18 -54 -25 -73 q-26 -75 -42 -132q-73 -18 -135 -50q-101 -53 -130 -66q95 144 173 303zM582 785q-18 -52 -68 -198l-41 -118l10 -1q275 -5 331 -6q65 151 123 327q-85 3 -151 3q-98 0 -204 -7z" />
<glyph unicode="$" d="M553 1525v-179q69 15 126 15q113 0 193 -45q69 -38 69 -75q0 -36 -62 -72q-46 -28 -161 -76q-43 57 -73 80q-29 22 -92 41v-381q216 -67 307 -107q151 -65 151 -206q0 -57 -26 -111t-88 -126q-120 -140 -260 -217q-28 -15 -84 -42v-164l-96 -70v199q-37 -3 -50 -5 q-72 -7 -108 -7q-108 0 -198 52q-97 56 -97 118q0 39 74 90l172 119q24 -51 78 -108q37 -37 56 -49q15 -11 73 -34v421q-66 19 -86 24q-118 31 -167.5 50.5t-84.5 48.5q-91 73 -91 167t79 199q112 147 350 243v143zM457 1219q-64 -9 -92 -28q-79 -54 -79 -147q0 -90 75 -139 q28 -18 96 -47v361zM553 153q64 3 98 18q57 26 88 87q21 42 21 89q0 73 -46 125q-44 50 -161 89v-408z" />
<glyph unicode="%" horiz-adv-x="1759" d="M1090 1268q256 67 433 100q-74 -71 -128 -134q-52 -61 -231 -340q-56 -88 -190 -285q-166 -246 -287 -466q-117 -11 -247 -47q-42 -11 -170 -48q-80 -23 -169 -49q577 437 989 1269zM1185 660l-14 14q75 44 99 59q53 32 91 51q40 19 81 19q50 0 106.5 -29t92.5 -73 q41 -49 65.5 -118.5t24.5 -133.5q0 -165 -195 -338q-155 -138 -263 -138q-103 0 -194 96q-96 102 -96 226q0 112 78 182q33 29 95 75q24 18 72 55l13 -13q-62 -73 -62 -167q0 -119 85 -216q79 -90 172 -90q52 0 81 47q30 50 30 112q0 74 -32.5 155t-86.5 142q-88 99 -182 99 q-24 0 -61 -16zM202 1250l-14 14q76 44 99 59q53 32 91 51q40 19 81 19q50 0 106.5 -29t92.5 -73q41 -49 65.5 -118.5t24.5 -134.5q0 -164 -195 -338q-155 -138 -263 -138q-103 0 -194 96q-96 102 -96 226q0 113 78 182q33 29 95 75q24 18 72 56l13 -14q-62 -72 -62 -166 q0 -120 85 -217q79 -90 172 -90q52 0 81 47q30 50 30 112q0 75 -32.5 156t-86.5 142q-88 99 -182 99q-24 0 -61 -16z" />
<glyph unicode="&#x26;" horiz-adv-x="1360" d="M1523 774q-42 -34 -83 -68q-99 -79 -155 -137q-39 17 -79 20q-19 1 -77 1q0 -60 -8 -95t-31 -80q-22 -44 -99.5 -128t-181.5 -177q-138 -124 -305 -124q-139 0 -267 67q-110 58 -160 156q-23 44 -23 100q0 100 81 175q72 66 229 139q-111 17 -167 46q-64 33 -96 100 q-19 41 -19 83q0 138 183 261q111 75 226 116t214 41q84 0 166 -36t82 -78q0 -33 -65 -70l-151 -85q-77 148 -247 148q-88 0 -137 -50q-47 -49 -47 -111q0 -77 70 -136q92 -78 321 -78h191v46l241 154v-200h394zM888 604q-187 3 -241 3q-175 0 -246 -27q-45 -17 -75 -59 t-30 -89q0 -64 63 -127q117 -118 302 -118q93 0 154 23q41 15 54 67q6 27 12.5 119t6.5 154v54z" />
<glyph unicode="'" horiz-adv-x="429" d="M289 817h-149l-39 548h228z" />
<glyph unicode="(" horiz-adv-x="491" d="M490 -205l-172 -159q-96 150 -146 292q-104 292 -104 587q0 279 91 564q31 99 99 244l207 99q-91 -190 -129 -329q-60 -219 -60 -429q0 -273 94 -577q37 -119 120 -292z" />
<glyph unicode=")" horiz-adv-x="491" d="M0 1263l173 159q95 -150 146 -292q104 -292 104 -587q0 -279 -91 -564q-32 -100 -100 -244l-207 -99q91 190 130 329q60 219 60 429q0 274 -95 577q-37 119 -120 292z" />
<glyph unicode="*" horiz-adv-x="764" d="M283 1007q-110 72 -242 146q12 57 34 106q151 -109 241 -159q4 76 4 126q0 61 -4 145q45 26 95 39q-5 -111 -5 -158t5 -152q111 59 222 132q46 -26 90 -63q-180 -92 -277 -161q78 -100 170 -202q-22 -50 -57 -95q-77 109 -106 146q-34 42 -88 100q-90 -100 -176 -211 q-51 10 -97 35q112 122 191 226z" />
<glyph unicode="+" d="M454 1106h116v-352h351v-116h-351v-351h-116v351h-352v116h352v352z" />
<glyph unicode="," horiz-adv-x="440" d="M68 157l174 119l43 -41q87 -84 87 -137q0 -86 -255 -223l-6 10q75 79 75 123q0 38 -39 79q-25 27 -79 70z" />
<glyph unicode="-" horiz-adv-x="658" d="M658 724l-162 -186q-28 20 -54 23q-35 4 -74 4h-368l168 195q24 -23 49 -29q27 -7 83 -7h358z" />
<glyph unicode="." horiz-adv-x="438" d="M242 287q22 -61 54 -101q23 -29 74 -75l-128 -87q-45 -31 -70 -31q-32 0 -60 31q-49 53 -49 115q0 35 22 56q11 11 42 28z" />
<glyph unicode="/" horiz-adv-x="1092" d="M-473 -405q462 433 860 1037q233 356 395 683q131 53 227 82q85 24 229 52q-128 -143 -257 -320q-121 -167 -292 -437l-273 -432q-241 -380 -247.5 -390t-50.5 -91q-156 -28 -298 -79q-228 -85 -293 -105z" />
<glyph unicode="0" d="M278 1132l-10 21q115 93 166 128q111 75 177 75q56 0 125.5 -48.5t128.5 -127.5q135 -184 135 -391q0 -130 -63 -254q-37 -74 -131 -203.5t-165 -204.5q-78 -84 -132 -115q-51 -29 -106 -29q-142 0 -271 200q-108 166 -108 330q0 138 66 234q35 53 155 165q72 67 80 74 l13 -14q-42 -51 -61 -109t-19 -135q0 -166 95 -326q44 -73 106 -115.5t126 -42.5q92 0 140 96q41 83 41 197q0 205 -111 392q-65 110 -167 176q-64 41 -128 41q-27 0 -82 -14z" />
<glyph unicode="1" d="M675 151q-52 -39 -112 -82q-31 -22 -118 -95v680q0 245 -33 334q-29 78 -77 78q-13 0 -42 -17l-14 30l261 231q44 39 75 39q44 0 55 -91q5 -36 5 -201v-906z" />
<glyph unicode="2" d="M932 279q-105 -136 -227 -309q-112 49 -258 49q-164 0 -357 -49l-32 56l312 368q60 70 105 158q76 149 76 282t-103 213q-89 68 -222 68q-69 0 -155 -29l-14 20l219 156q78 56 118 72q53 21 96 21q79 0 160 -61q140 -105 140 -310q0 -190 -165 -398l-244 -307 q184 14 282 14q93 0 269 -14z" />
<glyph unicode="3" d="M240 -156l-11 33q168 101 226 173q96 119 96 255q0 140 -109 227q-91 72 -189 72q-17 0 -60 -3v27q108 40 172 92q122 101 122 214q0 90 -68 146q-55 45 -144 45q-70 0 -161 -38l-14 22q70 52 104 79q136 105 192 130q64 30 122 30q70 0 133 -40q113 -70 113 -200 q0 -110 -98 -203q-39 -37 -178 -138q36 3 59 3q115 0 197 -91q83 -93 83 -233q0 -161 -139 -306q-98 -102 -218 -169z" />
<glyph unicode="4" d="M535 955q107 74 223 168q-15 -285 -18 -481q89 3 233 19q-84 -120 -154 -237h-83q-3 -64 -3 -96q0 -57 9 -154q-106 -76 -244 -197l10 117l8 96q10 113 16 200l-82 -3q-188 -9 -218 -9q-86 0 -133 37q-48 39 -48 109q0 76 57 183q113 216 288 468q91 131 182 231l45 -32 q-151 -187 -238 -370q-83 -175 -83 -252q0 -51 32 -89q28 -34 96 -34q28 0 105 5q4 108 4 169q0 58 -4 152z" />
<glyph unicode="5" d="M59 749l379 608q186 -50 380 -50q62 0 148 14q-61 -115 -127 -208q-41 -57 -66 -74q-26 -17 -69 -17q-159 0 -372 64l-55 -92q198 -105 284 -178q197 -170 197 -329t-151 -304q-150 -144 -440 -328l-21 45q171 117 234 175q110 103 110 228q0 100 -71 201 q-54 77 -142 133q-77 48 -218 112z" />
<glyph unicode="6" d="M667 1393l22 -38q-163 -146 -241 -244q-164 -209 -164 -403q0 -145 72 -290q57 -116 162 -182q72 -44 121 -44q43 0 73 43q37 52 37 131q0 124 -91 231q-47 56 -103 88q-34 20 -102 43q90 85 143 122q68 48 119 48q68 0 144 -59q89 -68 119 -180q13 -46 13 -95 q0 -116 -68 -225q-32 -50 -106 -121t-158 -132q-80 -57 -133 -80t-105 -23q-64 0 -137.5 40t-126.5 104q-124 148 -124 364q0 116 37 218.5t122 223.5q132 188 304 334q61 51 171 126z" />
<glyph unicode="7" d="M966 1319l37 -39q-204 -286 -317 -521q-107 -223 -175 -423q-26 -77 -26 -112q0 -27 19 -68q-84 -41 -201 -104q-86 -47 -157 -84q85 182 189 366q185 326 301 592l40 91q-145 -3 -198 -3q-157 0 -241 14q-151 26 -151 103q0 32 60 86q16 15 46 43l139 129 q118 -88 394 -88q107 0 241 18z" />
<glyph unicode="8" d="M390 1320l28 -27q-47 -52 -60 -90q-10 -31 -10 -61q0 -87 80 -170q42 -45 183 -118q54 42 71 77q20 41 20 98q0 87 -44 140q-32 40 -109 59l113 92q88 71 160 71q52 0 91 -37q49 -46 49 -125q0 -95 -90 -200q-59 -70 -137 -137q-53 -45 -73 -62q140 -53 212 -105 q110 -79 110 -187q0 -118 -128 -242q-171 -165 -404 -269q-100 -45 -165 -45q-90 0 -161 58q-87 69 -87 203q0 118 89 210q62 64 211 175l51 38q-180 91 -244 151q-56 52 -56 133q0 50 23 100q31 66 277 270zM441 643q-61 -65 -85 -107q-38 -66 -38 -136q0 -84 52 -148 q68 -85 165 -85q78 0 132 58q54 57 54 133q0 87 -72 156q-39 37 -116 80q-91 51 -92 49z" />
<glyph unicode="9" d="M229 -110l-29 43q265 214 379 373q147 206 147 416q0 148 -74 269q-62 101 -151 159q-59 37 -103 37q-50 0 -87 -49q-36 -49 -36 -128q0 -150 88 -262q56 -71 121 -100q33 -15 98 -22l-134 -125q-75 -70 -131 -70q-57 0 -115 37t-103 103q-82 120 -82 256q0 118 85 204 q124 124 272 221q146 96 251 96q59 0 125 -37.5t119 -100.5q139 -169 139 -395q0 -153 -83 -279q-127 -194 -470 -477q-99 -82 -226 -169z" />
<glyph unicode=":" horiz-adv-x="438" d="M242 287q22 -61 54 -101q23 -29 74 -75l-128 -87q-45 -31 -70 -31q-32 0 -60 31q-49 53 -49 115q0 35 22 56q11 11 42 28zM242 913q22 -61 54 -101q23 -29 74 -75l-128 -87q-44 -31 -70 -31q-32 0 -60 31q-49 53 -49 115q0 35 22 56q11 11 42 28z" />
<glyph unicode=";" horiz-adv-x="440" d="M68 157l174 119l43 -41q86 -83 86 -137q0 -86 -254 -223l-6 10q75 79 75 123q0 38 -38 79q-26 27 -80 70zM243 913q22 -61 53 -101q24 -29 74 -75l-127 -87q-45 -31 -71 -31q-31 0 -59 31q-50 53 -50 115q0 35 22 56q11 10 42 28z" />
<glyph unicode="&#x3c;" d="M955 1224v-217l-655 -314l655 -314v-215l-887 438v185z" />
<glyph unicode="=" d="M901 884v-116h-778v116h778zM901 625v-116h-778v116h778z" />
<glyph unicode="&#x3e;" d="M69 163v217l655 313l-655 315v215l887 -438v-185z" />
<glyph unicode="?" horiz-adv-x="901" d="M15 1124l-15 22l235 198q78 14 142 14q203 0 325 -99q61 -51 96 -120t35 -142q0 -188 -228 -382q-91 -79 -289 -210l-24 36q133 98 198 208q62 108 62 207q0 136 -106 220q-109 86 -258 86q-80 0 -173 -38zM420 301q22 -66 53 -109q23 -31 74 -81l-141 -87 q-49 -31 -70 -31q-41 0 -77 53q-32 45 -32 94q0 34 22 56q5 5 42 27z" />
<glyph unicode="@" horiz-adv-x="1602" d="M1262 237l14 -16q-161 -116 -266 -164q-181 -83 -361 -83q-215 0 -383 144q-99 86 -161 204q-68 131 -68 261q0 121 71 250.5t207 256.5q155 144 323.5 220.5t332.5 76.5q261 0 434 -194q72 -82 114 -184.5t42 -197.5q0 -111 -89 -225q-70 -89 -148 -156 q-35 -31 -107 -70q-25 -15 -112 -68q-37 135 -98 211q-108 136 -285 136q-92 0 -92 -64q0 -65 70 -104q56 -30 120 -30q38 0 117 19l-72 -68q-46 -44 -80 -65q-41 -24 -98 -24q-83 0 -163 52q-67 42 -67 95q0 104 174 196q130 70 231 70q16 0 48 -4q-71 100 -108 140 q-46 48 -91 48q-20 0 -47 -15l-8 12l112 79q85 60 114 60q33 0 80 -63q141 -187 283 -513l16 -38q57 32 87 92.5t30 144.5q0 110 -44.5 222t-119.5 191q-161 168 -424 168q-221 0 -356 -103q-92 -70 -134 -160q-43 -92 -43 -243q0 -312 172 -473q158 -148 418 -148 q171 0 290 52q39 17 125 72z" />
<glyph unicode="A" horiz-adv-x="1313" d="M468 1259l255 130q88 -303 174 -507q310 -730 428 -730q10 0 35 16l9 -12l-143 -103q-91 -67 -125 -67q-24 0 -59.5 27t-61.5 65q-52 76 -134 264h-571q-53 -158 -52 -231l-319 -145q251 474 344 696q45 106 159 392q50 123 56 157q2 13 5 48zM783 482q-22 50 -116 282 q-71 177 -108 296q-27 -70 -106 -261q-64 -154 -123 -317h453z" />
<glyph unicode="B" horiz-adv-x="1207" d="M217 1128h-217v21l190 173q181 19 335 19q178 0 276 -24q145 -37 221 -129q66 -80 66 -167q0 -119 -177 -221q102 -35 159 -86q97 -87 97 -200q0 -126 -123 -228q-137 -114 -299 -217q-108 -69 -212 -69q-52 0 -253 43q-58 12 -116 17q24 169 34 334q21 409 19 734z M436 264q187 -76 314 -76q96 0 140 57q47 61 47 133q0 57 -30 115.5t-80 99.5q-72 59 -212 84v19q80 19 127 54q103 73 103 171q0 124 -147 189q-89 39 -216 39h-46v-885z" />
<glyph unicode="C" horiz-adv-x="1061" d="M1008 228l16 -27l-316 -201q-141 13 -232 45t-175 98q-123 97 -193 242q-67 138 -67 271q0 116 57 236.5t163 224.5q139 138 317 182q179 44 321 44q67 0 116 -22q40 -18 40 -49q0 -36 -94 -100l-122 -82q-17 30 -38 46q-48 34 -111 56t-117 22q-56 0 -112.5 -30.5 t-96.5 -83.5q-73 -96 -73 -248q0 -135 55.5 -261t154.5 -217q107 -98 249 -139q72 -20 136 -20q44 0 122 13z" />
<glyph unicode="D" horiz-adv-x="1362" d="M4 1142q109 89 221 209q202 8 234 8q436 0 661 -200q204 -181 204 -415q0 -84 -28 -172t-75 -154q-129 -179 -395 -351q-115 -74 -197 -74q-69 0 -249 38q-64 14 -155 41q16 75 20 191q19 445 19 759v120h-260zM504 272q199 -64 317 -64q123 0 184 69q44 50 71 126 t27 152q0 139 -83 293q-108 201 -312 266q-77 25 -204 28v-870z" />
<glyph unicode="E" horiz-adv-x="1147" d="M1120 824l-267 -226q-56 17 -87 22q-31 4 -119 4h-275q16 -84 42 -135.5t78 -103.5q83 -83 196.5 -128.5t237.5 -45.5q68 0 179 20q-145 -139 -214 -182q-80 -51 -187 -51q-170 0 -317 103q-132 92 -207 224q-69 119 -69 271v28h-220l252 200q50 121 113 195 q138 159 320 261q160 89 328 89q121 0 189 -44q54 -34 54 -67t-87 -74l-188 -88q-19 52 -68.5 79.5t-125.5 27.5q-150 0 -244 -114q-71 -87 -87 -265q133 -7 268 -7q124 0 505 7z" />
<glyph unicode="F" horiz-adv-x="973" d="M491 1135v-320q152 0 192 1q130 3 301 22q-129 -149 -198 -197q-25 -17 -69 -20l-118 -4l-108 -3v-454l-259 -166q23 346 24 620q-125 5 -233 13l241 195v330q-133 2 -250 16q58 47 77 60q115 89 173 137q173 -31 455 -31q195 0 406 31q-70 -69 -89 -91 q-80 -87 -108 -107q-40 -28 -112 -35q-52 -4 -141 -4q-69 0 -184 7z" />
<glyph unicode="G" horiz-adv-x="1274" d="M799 656q36 24 73 50q133 92 197 92q66 0 122 -68q62 -76 62 -168q0 -190 -249 -385q-111 -88 -216 -135.5t-185 -47.5q-144 0 -285 107q-128 97 -204 255q-73 153 -73 309q0 267 234 474q254 224 567 224q113 0 181 -27q83 -34 83 -76q0 -31 -71 -74l-163 -97 q-49 67 -114.5 102.5t-140.5 35.5q-125 0 -209 -92q-91 -99 -91 -302q0 -114 35 -231.5t93 -200.5q66 -93 168 -157q119 -74 239 -74q81 0 122 55q47 62 47 151q0 86 -75 179q-38 47 -76 70q-22 13 -71 31z" />
<glyph unicode="H" horiz-adv-x="1471" d="M1069 632h-619v-65l-1 -257v-154l-253 -173q19 204 19 411q0 45 -3 238h-254l252 190l-1 35q-3 189 -17 240q-18 63 -55 63q-16 0 -58 -24l-13 23l218 154l58 42q26 17 53 17q40 0 51 -45q5 -18 5 -67v-302l-1 -68v-68h616v35q-4 191 -18 240q-17 63 -54 63 q-16 0 -51 -20l-15 23l213 156q72 53 111 53q40 0 51 -45q5 -18 5 -65l-1 -303v-365l-2 -284v-154l-252 -173q19 202 19 406q0 59 -3 243z" />
<glyph unicode="I" horiz-adv-x="594" d="M439 156l-273 -173q18 195 18 525q0 507 -23 589q-17 63 -54 63q-15 0 -51 -20l-15 23l233 156q80 53 111 53q40 0 51 -45q5 -18 5 -65l-1 -304v-365l-1 -283v-154z" />
<glyph unicode="J" horiz-adv-x="588" d="M420 -98q-184 -135 -376 -308l-14 16q45 43 67 86q42 84 64 240q25 180 25 657q0 436 -19 503q-21 76 -64 76q-15 0 -51 -17l-10 20l232 144q86 53 118 53q46 0 46 -75q0 -61 -4 -185q-2 -57 -8.5 -526t-6.5 -534q0 -52 1 -150z" />
<glyph unicode="K" horiz-adv-x="1208" d="M738 1205l245 161q47 -24 137 -71q80 -41 80 -83q0 -31 -65 -91q-17 -16 -161 -129q-142 -112 -236 -184q98 -133 325 -459q102 -143 132 -166q18 -17 54 -19v-29l-89 -65q-104 -77 -153 -77q-34 0 -83 67q-53 71 -134 199l-288 446q112 77 216 163q172 143 172 206 q0 73 -152 131zM439 156l-273 -173q18 195 18 525q0 507 -23 589q-17 63 -54 63q-16 0 -51 -20l-15 23l233 156q80 53 111 53q40 0 51 -45q5 -18 5 -65l-1 -304v-365l-1 -283v-154z" />
<glyph unicode="L" horiz-adv-x="935" d="M410 205h606q-65 -64 -83 -86q-90 -98 -126 -126q-180 14 -363 14q-167 0 -284 -14q18 341 18 691q0 268 -6 323q-9 74 -31 99q-19 22 -49 22q-22 0 -50 -18l-13 23l225 136q50 30 67 42q42 28 71 28q49 0 49 -117q0 -29 -2 -94q-7 -190 -23 -738z" />
<glyph unicode="M" horiz-adv-x="1854" d="M311 177q-106 -62 -297 -189q84 477 198 882q-150 245 -150 315q0 39 31 65q19 16 56 39l162 98q36 -161 101 -289q167 -328 400 -588q109 -122 206 -122q152 0 261 232q119 253 119 481q0 25 -2 75l364 192l-140 -334q35 -321 90 -539q48 -183 131 -356l-261 -165 l-172 708q-137 -231 -249 -373q-78 -100 -159 -145q-41 -23 -100 -23q-64 0 -125.5 37t-136.5 122q-114 128 -262 332q-34 -155 -47 -262q-7 -66 -18 -193z" />
<glyph unicode="N" horiz-adv-x="1540" d="M1123 1212l266 169q-20 -326 -31 -646q-11 -304 -16 -352q-8 -115 -8 -160q0 -28 4 -95l-206 -129q-13 67 -35 109q-70 139 -220 311.5t-430 437.5q-15 -207 -15 -392q0 -147 15 -280l-281 -186q23 188 36 372q8 139 38 662q-74 60 -117 91q-105 76 -161 76q-9 0 -36 -6 l-11 20l145 100q97 66 137 66q50 0 207 -135q96 -82 252 -233.5t248 -249.5q97 -106 247 -282q8 241 8 370q0 206 -36 362z" />
<glyph unicode="O" horiz-adv-x="1326" d="M376 1156l-11 15q106 81 176 115q120 59 241 59q174 0 305 -138q85 -90 134 -208.5t49 -235.5t-57 -241.5t-165 -243.5q-126 -140 -259.5 -212.5t-263.5 -72.5q-211 0 -346 186q-124 172 -124 362q0 144 100 260q71 83 229 208l12 -14q-47 -61 -64 -109q-17 -51 -17 -125 q0 -228 125 -401q68 -94 148.5 -145.5t159.5 -51.5q58 0 115 28.5t89 73.5q60 87 60 264q0 304 -153 489q-81 97 -192 147q-74 34 -149 34q-58 0 -142 -43z" />
<glyph unicode="P" horiz-adv-x="1088" d="M202 1147h-202v53l167 141q147 17 273 17q262 0 414 -62q93 -37 159 -118q72 -88 72 -192q0 -115 -112 -211q-111 -95 -374 -164l-6 22q88 28 138 75q81 78 81 180q0 138 -113 207q-80 49 -201 52h-57l1 -248q1 -447 8 -742l-288 -173q44 651 44 925q0 78 -4 238z" />
<glyph unicode="Q" horiz-adv-x="1303" d="M362 1156l-11 15q106 81 176 115q120 59 241 59q174 0 305 -138q85 -90 134 -208.5t49 -235.5t-57 -241.5t-165 -243.5q-126 -140 -259.5 -212.5t-263.5 -72.5q-211 0 -346 186q-124 172 -124 362q0 144 100 260q71 83 229 208l12 -14q-47 -61 -64 -109q-17 -51 -17 -125 q0 -228 125 -401q68 -94 148.5 -145.5t159.5 -51.5q58 0 115 28.5t89 73.5q60 87 60 264q0 304 -153 489q-81 97 -192 147q-74 34 -149 34q-58 0 -142 -43zM1365 -174v-20q-87 -5 -140 -5q-150 0 -251 69q-82 57 -145 175q76 51 182 141q94 -176 178 -261t176 -99z" />
<glyph unicode="R" horiz-adv-x="1190" d="M3 1133v31q35 37 70 71q47 48 86 98q78 6 108 8q204 15 303 15q224 0 373 -70q83 -38 134 -116q38 -59 38 -130q0 -117 -104 -209q-46 -41 -158 -119q149 -268 302 -466q53 -69 73 -83q13 -9 26 -9q14 0 33 14l9 -14l-123 -89q-105 -75 -146 -75q-56 0 -117 94 q-50 75 -319 564q264 100 264 269q0 53 -26 101.5t-69 75.5q-87 55 -234 55q-24 0 -71 -2v-989l-272 -185q2 78 23 624q6 432 7 536q-56 3 -82 3q-11 0 -83 -2q-15 -1 -45 -1z" />
<glyph unicode="S" horiz-adv-x="1092" d="M776 1093q-91 155 -246 155q-80 0 -135 -46q-68 -55 -68 -137q0 -56 31 -94.5t101 -71.5q50 -23 182 -65q174 -55 233 -79t99 -54q92 -71 92 -161q0 -99 -95 -215q-127 -154 -316 -241q-185 -84 -323 -84q-83 0 -194 50q-137 61 -137 140q0 41 76 87l190 116 q28 -75 61 -113q43 -49 112 -79.5t139 -30.5q80 0 142 48q72 57 72 143q0 112 -122 176q-70 37 -353 129q-148 48 -200 104q-64 68 -64 145q0 130 141 250q123 105 313 166q126 41 220 41q120 0 209 -42q79 -37 79 -85q0 -45 -105 -92z" />
<glyph unicode="T" horiz-adv-x="934" d="M1180 1355q-71 -69 -92 -92q-93 -98 -117 -111q-38 -22 -131 -30q-59 -4 -237 -7q-2 -82 -2 -100q0 -286 5 -534q3 -169 16 -297l-299 -198q32 375 32 768q0 96 -3 361q-174 5 -264 10q-98 5 -252 24q180 128 276 206q130 -34 440 -34q295 0 628 34z" />
<glyph unicode="U" horiz-adv-x="1442" d="M314 1398q-2 -36 -2 -56q0 -107 37.5 -264t102.5 -321q117 -296 234 -416q87 -89 153 -89q98 0 196 155q80 126 122 318q30 134 30 269q0 96 -24 169q161 82 375 205q-84 -323 -178 -541q-124 -287 -283 -519q-173 -250 -289 -299q-45 -19 -88 -19q-96 0 -192 97 q-50 52 -124 168t-143 252q-121 240 -202 495q-25 77 -25 147q0 58 50 98q13 11 99 60z" />
<glyph unicode="V" horiz-adv-x="1332" d="M1057 1167q192 88 438 211l-43 -72q-223 -372 -353 -628q-230 -455 -230 -529q0 -15 11 -44l-245 -149q-25 114 -73 232q-71 171 -236 519q-125 262 -182 350q-71 112 -129 112q-17 0 -52 -17l-12 19l168 113q110 74 152 74q39 0 74 -58q58 -96 190 -368 q160 -332 257 -576q141 318 211 505q61 165 61 247q0 19 -7 59z" />
<glyph unicode="W" horiz-adv-x="2318" d="M-55 1104l-10 19l200 124q25 16 42 28q41 27 68 27q23 0 48 -42q56 -95 190 -375q142 -298 264 -578q114 220 188 408q106 272 106 359q0 15 -6 52l267 144q11 -39 39 -97q17 -27 157 -336q101 -223 244 -530q72 159 164 371q120 276 120 385q0 22 -6 63l434 193 q-264 -404 -461 -796q-172 -343 -172 -417q0 -11 4 -36l-238 -149q-50 179 -204 509q-109 234 -198 415q-117 -205 -303 -579q-47 -98 -54 -153q-3 -24 -4 -64l-238 -128q-33 138 -75 245q-30 75 -207 435q-78 159 -144 299q-63 134 -92 174t-74 40q-19 0 -49 -10z" />
<glyph unicode="X" horiz-adv-x="1286" d="M70 1147l-10 15l181 129q57 41 69 49q19 12 41 12q37 0 69 -45q65 -92 292 -458q168 187 168 314v26q189 70 433 170q-199 -214 -294 -323q-124 -142 -236 -292q217 -328 327 -471q74 -94 117 -94q17 0 41 19l11 -16l-160 -116q-91 -66 -119 -66q-54 0 -132 121 q-51 79 -220 354l-36 58q-129 -144 -165 -227q-29 -68 -29 -116q0 -18 10 -50q-240 -88 -469 -184q124 132 302 336q183 212 281 344q-88 132 -279 398q-54 75 -91 110q-24 24 -51 24q-16 0 -51 -21z" />
<glyph unicode="Y" horiz-adv-x="1271" d="M818 157q-139 -88 -277 -187q13 155 13 238q0 173 -47 279q-99 226 -317 490q-117 142 -150 169q-26 23 -53 23q-16 0 -53 -12l-10 16l167 116q91 63 132 63t87 -52q85 -97 263 -375q114 -177 201 -348q91 124 162 253q110 199 110 287q0 22 -13 61q184 76 357 158 l22 -31q-44 -46 -245 -346q-243 -362 -278 -410q-51 -71 -61 -109q-18 -75 -18 -191q0 -35 8 -92z" />
<glyph unicode="Z" horiz-adv-x="1041" d="M1018 1303l23 -27l-35 -40l-137 -163q-250 -297 -389 -479q-123 -161 -123 -233t84 -93q90 -22 304 -22q148 0 296 27l-231 -260q-110 -20 -232 -20q-325 0 -460 38q-53 14 -90 55q-28 31 -28 73q0 40 35 96q33 53 241 285.5t454 491.5q-183 -18 -349 -18q-133 0 -229 9 q-110 11 -110 79q0 43 65 110q17 18 35 34q48 45 141 139l14 -12q-9 -19 -9 -31q0 -30 51 -46q62 -20 317 -20q191 0 273 10q21 3 89 17z" />
<glyph unicode="[" horiz-adv-x="683" d="M384 1180v-1304q82 1 266 10q-159 -201 -200 -208q-8 -8 -285 -19q6 429 16 742q11 327 13 991q135 -3 204 -3q93 0 283 7q-133 -165 -170 -191t-94 -26q-10 0 -33 1z" />
<glyph unicode="\" horiz-adv-x="1092" d="M1000 -405q-78 162 -313 539q-129 209 -218 351q-243 395 -359 570q-101 150 -214 286l293 108q223 -497 627 -1091q247 -358 511 -613z" />
<glyph unicode="]" horiz-adv-x="683" d="M291 1187q-164 -1 -280 15q147 128 209 197q70 -13 118 -13q45 0 143 13q2 -662 15 -1055q8 -245 13 -673q-124 8 -428 8q-21 0 -88 -1q123 91 241 195l57 -4v1318z" />
<glyph unicode="^" d="M257 711h-230l342 661h287l342 -661h-231l-255 487z" />
<glyph unicode="_" d="M0 -111h1024v-197h-1024v197z" />
<glyph unicode="`" d="M494 1396q48 -82 109.5 -161t131.5 -147q-50 -23 -64 -32q-95 -50 -122 -50q-54 0 -125 84q-64 77 -134 187z" />
<glyph unicode="a" horiz-adv-x="1066" d="M627 184l-93 -89q-60 -58 -104 -84q-53 -32 -127 -32q-108 0 -213 67q-87 56 -87 124q0 87 107 177q89 75 219 124q121 45 202 45q20 0 61 -4q-93 130 -140 180q-59 63 -121 63q-23 0 -61 -15l-8 12l145 102q47 33 82 55q37 23 67 23q43 0 105 -81q83 -111 188 -306.5 t218 -448.5q-98 -55 -222 -131q-27 101 -54 159t-72 115q-141 177 -371 177q-120 0 -120 -83q0 -84 92 -135q71 -39 156 -39q51 0 151 25z" />
<glyph unicode="b" horiz-adv-x="1083" d="M491 767l-6 13l138 86q70 44 132 44q103 0 189 -100q85 -98 85 -231q0 -122 -65 -229q-76 -125 -264 -261q-154 -110 -234 -110q-30 0 -81 19t-91 46q-94 62 -124 160q-20 66 -20 187q0 58 7 246q3 70 3 182q0 346 -18 410q-10 36 -22 50q-17 22 -53 22q-29 0 -67 -19 l-7 14l212 142q77 53 95 62t42 9q31 0 48.5 -31.5t17.5 -86.5q0 -59 -9 -203q-19 -299 -19 -646q0 -202 53 -275q32 -46 93 -76.5t118 -30.5q88 0 136 92q37 71 37 156q0 107 -59 206q-42 71 -104.5 114.5t-122.5 43.5q-11 0 -40 -5z" />
<glyph unicode="c" horiz-adv-x="808" d="M758 173l9 -12q-50 -37 -98 -73q-72 -55 -126 -82q-52 -26 -117 -26q-145 0 -262 141q-111 135 -111 284q0 124 81 245q80 120 236 208q119 67 218 67q91 0 156 -51q59 -46 59 -100q0 -46 -61 -85l-127 -82q-20 64 -59 107q-73 77 -162 77q-81 0 -120 -80 q-30 -62 -30 -120q0 -116 87 -239q75 -104 188 -159q82 -39 153 -39q36 0 86 19z" />
<glyph unicode="d" horiz-adv-x="1056" d="M288 1237l9 -11q-31 -28 -31 -53q0 -47 50 -89q54 -45 294 -148q187 -80 260 -125q146 -90 146 -239q0 -123 -104 -260q-113 -150 -280 -247q-124 -72 -215 -72q-56 0 -117.5 29t-108.5 78q-49 52 -77.5 120t-28.5 134q0 120 73 193q6 6 191 139l11 -9q-49 -91 -49 -176 q0 -104 74 -203q44 -60 109 -94q62 -33 123 -33q102 0 157 94q32 55 32 123q0 155 -145 266q-61 46 -265 130q-24 10 -229 91q-98 39 -119 54q-48 31 -48 68q0 34 55 77q11 9 95 67z" />
<glyph unicode="e" horiz-adv-x="838" d="M781 203l8 -10q-155 -124 -197 -151q-95 -63 -171 -63q-59 0 -125 31t-118 83q-118 119 -118 277q0 94 50.5 193.5t140.5 182.5t202 132q79 35 146 35q87 0 164 -55q70 -50 70 -113q0 -73 -102 -145q-119 -84 -311 -170l-5 14q77 47 113 85q42 43 42 93q0 46 -36 83 q-55 55 -131 55q-66 0 -104 -58q-35 -53 -35 -125q0 -81 35.5 -162t98.5 -144q109 -109 244 -109q75 0 139 41z" />
<glyph unicode="f" horiz-adv-x="612" d="M520 717h-107q-3 -106 -3 -167q0 -170 17 -424q-172 -105 -267 -175q7 118 9 367q1 54 6 406q-150 0 -250 9q93 82 176 173q39 -4 78 -5q9 108 21 155q21 81 66 131q116 129 269 233q65 45 103 54q25 7 53 7q60 0 127 -37q37 -20 102 -76l-196 -156q-14 11 -80 63 q-68 54 -109 54q-73 0 -100 -87q-22 -70 -22 -250v-98q96 -1 122 -1q66 0 157 8q-83 -95 -172 -184z" />
<glyph unicode="g" horiz-adv-x="1104" d="M1131 903l-151 -156q-25 -1 -35 -1l-79 1h-30q15 -36 15 -62q0 -63 -54 -125t-158 -120l-7 14q40 24 40 69q0 104 -89 183q-51 45 -123 45q-86 0 -134 -57q-38 -44 -38 -112q0 -89 62 -132q61 -41 282 -94q150 -36 234 -62q95 -30 148 -96q29 -38 29 -87 q0 -215 -376 -418q-147 -79 -278 -116q-77 -22 -174 -22q-238 0 -238 101q0 45 45 88q40 39 231 185l12 -11q-32 -48 -32 -83q0 -73 84 -110q60 -26 127 -26q151 0 271 95q79 63 79 152q0 119 -132 169q-65 25 -189 48q-165 30 -232 47q-81 20 -139 80q-49 50 -49 120 q0 78 65 155q49 57 183 170q138 116 202 151q73 40 130 40q26 0 71 -9q98 -19 192 -19q92 0 235 5z" />
<glyph unicode="h" horiz-adv-x="1165" d="M176 0h-21q28 437 28 884q0 198 -14 313q-8 63 -33 86q-22 20 -73 20q-24 0 -59 -9l-5 11l231 144q39 25 65 39q37 22 73 22q55 0 55 -97q0 -274 -9 -465q-19 -439 -23 -555q157 215 294 357q160 165 237 165q75 0 101 -149q6 -38 50 -540l10 -113q-93 -53 -223 -139 q-14 311 -39 443q-21 119 -51 156q-24 30 -57 30q-81 0 -223 -147q-126 -131 -230 -308q-29 -48 -84 -148z" />
<glyph unicode="i" horiz-adv-x="536" d="M140 1105l213 136q62 -102 136 -130l-95 -59q-81 -51 -126 -51q-48 0 -88 45q-15 17 -40 59zM7 700l-7 13l211 129q32 20 71 45q43 28 75 28q60 0 55 -124v-63q0 -43 -8 -252q-4 -101 -4 -187q0 -55 3 -168q-128 -70 -254 -155q6 97 13.5 302t7.5 278q0 170 -101 170 q-25 0 -62 -16z" />
<glyph unicode="j" horiz-adv-x="531" d="M7 698l-7 12l230 153q93 62 129 62q31 0 39 -40q5 -26 5 -265q0 -250 -3 -485q-4 -297 -4 -369q0 -48 1 -143q-150 -84 -234 -146q17 609 17 696q0 292 -18 428q-16 115 -88 115q-28 0 -67 -18zM130 1105l213 136q62 -102 136 -130l-95 -59q-81 -51 -125 -51 q-48 0 -89 45q-15 17 -40 59z" />
<glyph unicode="k" horiz-adv-x="1119" d="M0 1300l-4 9l172 108q85 54 106 66q49 26 76 26q40 0 47 -58q4 -27 4 -73q0 -31 -12 -395q-11 -609 -11 -677q0 -47 2 -163q-69 -51 -130 -89q-70 -43 -130 -81q29 323 36 531q5 152 5 380q0 311 -11 359q-16 75 -75 75q-27 0 -75 -18zM586 801l217 140q69 -22 97 -37 q81 -42 81 -92q0 -48 -120 -129q-88 -60 -178 -122q87 -102 247 -301q90 -111 148 -111q14 0 39 12l9 -11q-41 -33 -83 -68q-57 -46 -102 -76q-38 -26 -73 -26q-27 0 -48 21q-15 16 -57 73l-294 392q241 122 241 231q0 44 -59 76q-15 8 -65 28z" />
<glyph unicode="l" horiz-adv-x="514" d="M4 1300l-4 9l172 108q85 54 106 66q49 26 76 26q40 0 47 -58q4 -27 4 -73q0 -31 -12 -395q-11 -609 -11 -677q0 -47 2 -163q-69 -51 -130 -89q-70 -43 -130 -81q29 323 36 531q5 152 5 380q0 311 -11 359q-16 75 -75 75q-27 0 -75 -18z" />
<glyph unicode="m" horiz-adv-x="1861" d="M0 726q60 41 173 119q85 59 116 76q27 15 47 15q53 0 70 -78q10 -44 17 -218q4 -99 4 -157q0 -19 -1 -59q198 236 331 370q120 121 185 121q63 0 89 -95q13 -46 46 -303l12 -93q278 330 379 416q88 75 135 75q56 0 79 -55q49 -123 83 -750q-38 -25 -99 -62 q-55 -32 -127 -81v36q0 102 -23 326q-15 143 -38 198q-38 90 -93 90q-74 0 -223 -171q-97 -110 -273 -383q-9 80 -26 259q-15 151 -42 210q-34 72 -89 72q-67 0 -188 -120q-167 -165 -341 -491h-25q10 194 10 282q0 206 -16 321q-20 138 -103 138q-20 0 -62 -19z" />
<glyph unicode="n" horiz-adv-x="1208" d="M14 715l-7 10l212 140q31 20 49 33q55 37 83 37q47 0 62 -93q4 -31 16 -315l5 -119q378 507 517 507q58 0 84 -96q15 -53 40 -265q29 -246 43 -448q-90 -44 -226 -129q1 33 1 53q0 134 -19 271t-48 221q-12 33 -36.5 54t-52.5 21q-59 0 -130 -59t-165 -187 q-120 -162 -223 -358h-25q2 104 2 154q0 353 -22 473q-22 115 -93 115q-28 0 -67 -20z" />
<glyph unicode="o" horiz-adv-x="956" d="M262 759l-5 9q115 80 168 108q87 46 149 46q50 0 104.5 -24.5t96.5 -64.5q58 -57 92.5 -138.5t34.5 -162.5q0 -63 -22.5 -130.5t-59.5 -114.5q-46 -58 -128 -135.5t-151 -126.5q-66 -46 -148 -46q-142 0 -247 118q-91 103 -91 240q0 155 120 244l147 109l8 -8 q-28 -41 -38 -63q-20 -46 -20 -109q0 -160 116 -277q97 -96 180 -96q59 0 95 63q27 47 27 138q0 123 -61 230q-57 98 -131.5 151t-157.5 53q-29 0 -78 -13z" />
<glyph unicode="p" horiz-adv-x="1081" d="M20 698l-13 17q249 168 287 190q41 23 71 23q35 0 50 -32q13 -29 13 -108q0 -144 -11 -606q-6 -255 -7 -558q-112 -68 -252 -162q16 244 22 401q5 122 5 570q0 183 -22 235q-23 53 -75 53q-30 0 -68 -23zM561 55l-13 30q123 52 168 96q31 32 50.5 83t19.5 102 q0 66 -24 144t-64 140q-25 37 -60 62t-63 25q-39 0 -104 -48l-23 36q39 28 80 57q92 68 163 109q53 31 104 31q67 0 120 -72q51 -68 81.5 -164t30.5 -186q0 -67 -24 -129q-41 -105 -236 -221q-81 -48 -206 -95z" />
<glyph unicode="q" horiz-adv-x="1055" d="M606 160l14 -14l-146 -104q-65 -46 -105 -46q-42 0 -101.5 32t-105.5 79q-107 110 -107 259q0 117 77 215q93 118 279 237q160 103 249 103q47 0 287 -72q-20 -70 -25 -183q-17 -368 -17 -612q0 -192 13 -426l-260 -171l10 204q29 578 41 1001q-202 77 -264 77 q-80 0 -126 -64q-34 -46 -34 -120q0 -121 70 -238q47 -77 111 -122q56 -40 100 -40q14 0 40 5z" />
<glyph unicode="r" horiz-adv-x="785" d="M867 713l-211 -168q-40 137 -114 137q-28 0 -54.5 -24t-40.5 -62q-26 -68 -26 -212v-188v-88l-242 -157q15 200 15 313q0 239 -26 359q-17 80 -76 80q-24 0 -74 -20l-11 26l248 159q88 54 109 54q47 0 52 -80q3 -48 5 -209q73 77 139 143q67 67 126 113q30 24 56 24 q30 0 57 -51q23 -44 68 -149z" />
<glyph unicode="s" horiz-adv-x="806" d="M567 662q-52 78 -119 105q-38 15 -84 15q-34 0 -59 -11q-42 -17 -42 -49q0 -52 79 -95q56 -31 120 -50l155 -47q66 -20 107 -69q30 -36 30 -88q0 -40 -22 -76.5t-75 -84.5q-73 -66 -154 -126t-123 -79q-59 -27 -118 -27q-103 0 -175 79q-41 45 -41 91q0 43 72 88l127 79 q5 -54 26 -84q66 -97 204 -97q94 0 94 80q0 78 -83 124q-40 22 -137 51q-176 52 -210 72q-60 36 -60 94q0 79 101 165q92 78 210 149q95 57 176 57q71 0 122 -28q56 -31 56 -79q0 -27 -27 -48q-4 -3 -38 -30z" />
<glyph unicode="t" horiz-adv-x="592" d="M195 1031l246 143l-25 -273h244q-88 -82 -117 -113q-37 -38 -53 -43q-14 -7 -49 -7h-40q-2 -80 -2 -119q0 -228 25 -358q10 -50 41 -87q21 -24 43 -24q16 0 45 19l14 -16l-198 -137q-57 -39 -84 -39q-29 0 -63 36.5t-45 80.5q-18 74 -18 242q0 48 9 228q5 106 7 174h-209 l153 163h70z" />
<glyph unicode="u" horiz-adv-x="1174" d="M798 749q141 83 264 168q-17 -291 -17 -530q0 -143 9 -248l-90 -58q-66 -42 -183 -126l17 583q-187 -286 -311 -416q-137 -142 -198 -142q-53 0 -79 81q-12 37 -23 149l-31 342q-9 102 -27 143q-21 51 -67 51q-23 0 -62 -20l-12 21l195 113q93 52 112 60.5t37 8.5 q27 0 33 -40q3 -21 14 -140l26 -301q6 -72 20 -105q16 -38 53 -38q90 0 195 131t120 224q5 29 5 62v27z" />
<glyph unicode="v" horiz-adv-x="1078" d="M633 758l233 168l39 -16q100 -42 129 -56q44 -21 44 -48q0 -29 -70 -130q-18 -27 -247 -327q-226 -310 -280 -377h-35q-94 282 -235 569q-65 134 -105 183q-39 47 -74 47q-15 0 -44 -13l-10 19l160 111q73 51 121 51q46 0 78 -45q34 -50 172 -359q55 -123 120 -280 q200 277 200 358q0 58 -63 94q-39 22 -133 51z" />
<glyph unicode="w" horiz-adv-x="1800" d="M1352 758l213 166q31 -13 121 -52q58 -25 83 -43q24 -17 24 -44q0 -26 -46 -87q-130 -173 -192 -258q-16 -20 -240 -346l-78 -114h-28q-54 114 -110 237q-96 216 -129 272q-51 86 -126 86q-73 0 -130 -81q-106 -148 -273 -514h-28q-102 326 -141 429q-72 191 -123 277 q-27 45 -72 72q-20 13 -37 13q-20 0 -54 -16l-13 20l184 117q79 50 114 50q42 0 89 -78q62 -105 214 -486q148 246 253 392q51 70 80 92q32 25 67 25q30 0 53 -16.5t53 -60.5q84 -122 272 -563q54 87 125 203q65 107 65 161q0 73 -78 107q-38 17 -112 40z" />
<glyph unicode="x" horiz-adv-x="1007" d="M624 804l204 124q85 -35 120 -56q60 -35 60 -63q0 -31 -57 -72l-304 -213l112 -184q60 -101 72 -116q65 -85 99 -85q17 0 44 25l13 -14l-123 -105q-78 -65 -123 -65q-23 0 -47 20q-17 13 -47 63q-54 84 -56 87l-144 240q-153 -109 -153 -164q0 -23 43 -49q24 -15 90 -46 l-194 -151q-95 27 -171 61q-59 27 -59 65q0 33 43 64q31 21 78 49t78 50l225 158l-116 177q-53 86 -67 103q-58 71 -109 71q-22 0 -64 -22l-10 22l172 104q88 53 120 53q26 0 49 -24q21 -23 89 -127l133 -222q135 91 135 148q0 37 -38 60q-25 15 -97 34z" />
<glyph unicode="y" horiz-adv-x="1136" d="M979 901h48q-2 -39 -10 -161q-7 -113 -7 -835q0 -191 17 -297q-183 -93 -262 -149q6 104 24 735l8 258q-33 -43 -67 -85q-94 -119 -210 -270q-93 -121 -155 -121q-50 0 -84 81q-22 53 -61 288q-51 305 -92 357q-23 29 -58 29q-24 0 -60 -13l-9 18l208 139q76 51 116 51 q38 0 52 -50q11 -39 31 -161q21 -129 56 -276q21 -93 44 -117q21 -21 45 -21q67 0 243 261q117 173 183 339z" />
<glyph unicode="z" horiz-adv-x="831" d="M773 890l18 -21q-182 -187 -288 -308t-141 -171q-39 -55 -39 -93q0 -52 67 -70q47 -13 162 -13q128 0 229 21l10 -10q-102 -97 -224 -224q-98 -8 -177 -8q-193 0 -277 39q-73 34 -73 83q0 25 29 67q62 90 455 481q-80 -15 -149 -15q-99 0 -203 12q-126 15 -126 91 q0 27 26 52q29 26 87 63l155 100l9 -13q-11 -20 -11 -33q0 -28 52 -38q35 -6 171 -6q17 0 238 14z" />
<glyph unicode="{" horiz-adv-x="683" d="M306 515q50 -34 70 -67q37 -59 39 -180v-279q2 -83 10 -102q17 -36 59 -46q34 -8 83 -8q63 0 147 12l-39 -48q-98 -120 -114 -133q-23 -20 -70 -20q-153 0 -220 79q-56 66 -56 213v319q-1 104 -31 140q-38 43 -90 52q7 97 43 167q52 36 65 73q11 23 13 88v328 q0 175 92 239q50 36 130 42q153 6 273 12q-38 -63 -50 -84q-47 -86 -77 -100q-20 -11 -82 -22q-52 -10 -74 -47q-11 -26 -12 -127v-256q0 -117 -35 -174q-22 -36 -74 -71z" />
<glyph unicode="|" d="M403 1365h218v-1706h-218v1706z" />
<glyph unicode="}" horiz-adv-x="683" d="M373 525q-50 34 -70 67q-38 60 -39 180v279q-2 83 -10 102q-17 35 -59 46q-34 8 -83 8q-61 0 -147 -12q21 25 39 48q96 118 114 133q23 20 70 20q153 0 220 -79q56 -66 56 -213v-319q1 -104 31 -140q38 -43 90 -52q-7 -97 -43 -168q-52 -35 -65 -72q-11 -23 -13 -88v-328 q1 -176 -92 -239q-50 -36 -130 -42q-152 -7 -273 -12q38 62 50 84q47 85 77 100q20 10 82 22q52 10 74 47q11 26 12 126v257q0 117 35 174q22 36 74 71z" />
<glyph unicode="~" horiz-adv-x="1365" d="M309 1165l-122 80q50 107 74 143q86 123 223 123q74 0 220 -60q99 -41 126 -48q34 -8 62 -8q64 0 107 44q23 23 53 75l127 -73q-68 -142 -136 -194q-81 -62 -179 -62q-62 0 -295 92q-56 23 -101 23q-64 0 -108 -53q-21 -26 -51 -82z" />
<glyph unicode="&#xa1;" horiz-adv-x="550" d="M452 -133l-289 -207q9 108 16 278q3 80 10 217q12 218 12 311v53q38 17 203 122q-2 -154 18 -476q12 -187 30 -298zM275 730q-22 61 -53 101q-24 29 -74 75l127 87q45 31 71 31q41 0 77 -53q32 -46 32 -94q0 -33 -22 -55q-10 -10 -42 -28z" />
<glyph unicode="&#xa2;" d="M497 1398h141v-155l262 17q28 2 50.5 -10.5t22.5 -30.5q0 -20 -38 -46l-156 -104q-51 43 -78 60q-24 14 -63 27v-796q94 -40 180 -40q32 0 87 9l15 -20l-282 -177v-79q0 -43 -4 -54q-9 -24 -36 -29q-9 -2 -44 -2h-57v196q-90 31 -145 65.5t-108 93.5q-81 90 -119 209 q-27 82 -27 161q0 218 176 398q59 61 117 92q35 18 106 40v175zM497 1149l-20 10q-73 -36 -106 -82q-58 -83 -58 -218q0 -148 69 -269q28 -50 93 -118l22 14v663z" />
<glyph unicode="&#xa3;" d="M900 770q-47 -50 -63 -65q-32 -33 -117 -125q-58 4 -99 4q-28 0 -165 -4v-381l568 23q-88 -97 -195 -225q-241 16 -376 16q-129 0 -269 -20q26 100 33 191q5 71 5 148v248h-291q67 69 155 171h136v90q0 85 12 121q42 127 306 291q142 89 263 89q93 0 163 -52 q58 -43 58 -90q0 -29 -32 -48l-182 -106q-12 67 -39 103q-36 46 -93 70q-36 15 -59 15q-71 0 -119 -79q-44 -74 -44 -326v-78q274 3 444 19z" />
<glyph unicode="&#xa4;" d="M905 1176l95 -96l-155 -154q48 -96 48 -180q0 -135 -92 -245l203 -203l-95 -96l-202 202q-68 -63 -106 -93q-82 -65 -165 -65q-103 0 -195 78l-124 -122l-95 95l137 138q-29 67 -29 130q0 118 107 300l-217 216l96 96l210 -210q176 127 272 127q81 0 161 -62zM472 933 q-65 0 -110 -72q-37 -58 -37 -141q0 -156 124 -265q74 -66 137 -66q59 0 91 56q25 44 25 120q0 133 -77 252q-74 116 -153 116z" />
<glyph unicode="&#xa5;" d="M395 492h-301q34 44 74 89h192q-25 61 -55 122h-231q34 44 73 89h112q-54 100 -139 231q-70 107 -85 123q-21 23 -43 23q-12 0 -41 -12l-8 16l134 116q72 63 105 63t70 -52q70 -99 211 -375q34 -67 65 -132q59 1 80 1q76 0 129 1q103 233 103 323q0 21 -10 60 q146 75 286 158l17 -31q-32 -42 -89 -157l-136 -268l-40 -79q39 1 135 10q-35 -38 -74 -77q-15 -14 -25 -32q-38 4 -84 4q-43 -85 -62 -122q93 3 224 16q-32 -36 -44 -46q-40 -39 -54 -63q-60 5 -95 5q-33 0 -79 -2q-21 -45 -29 -160q-2 -34 -2 -100q0 -23 -7 -77 q-124 -88 -249 -187q10 154 10 237q0 175 -38 285zM569 705l8 -19l13 -30l23 -55l10 -24q39 65 71 128h-125z" />
<glyph unicode="&#xa6;" d="M403 1365h218v-698h-218v698zM403 314h218v-655h-218v655z" />
<glyph unicode="&#xa7;" d="M718 384q113 -39 157 -87q48 -52 48 -114q0 -82 -81 -180q-108 -132 -268 -205q-157 -72 -275 -72q-71 0 -164 42q-117 53 -117 120q0 35 64 74l162 99q38 -101 110 -145q75 -45 151 -45q67 0 118 37q67 48 67 125q0 95 -103 150q-67 35 -236 86q-126 39 -173 66 q-115 66 -115 175q0 93 94 186q63 62 182 119q-79 29 -114 56q-70 56 -70 139q0 70 51 132q117 144 350 207q78 21 143 21q87 0 162 -33q64 -27 64 -66q0 -38 -84 -76l-108 -48q-73 124 -196 124q-64 0 -109 -36q-54 -45 -54 -110q0 -59 43 -95q45 -38 208 -90 q164 -52 195 -67q145 -65 145 -174q0 -76 -81 -171q-68 -82 -166 -144zM431 784q-71 -19 -111 -75q-28 -38 -28 -78q0 -86 103 -126l230 -89q71 22 102 75q19 33 19 70q0 106 -127 153z" />
<glyph unicode="&#xa8;" d="M482 1177l-42 -43q-55 -57 -119 -57q-52 0 -90 31q-23 19 -45 69l174 126q38 -70 122 -126zM838 1177l-41 -43q-55 -57 -119 -57q-53 0 -90 31q-23 19 -45 69l174 126q37 -70 121 -126z" />
<glyph unicode="&#xa9;" horiz-adv-x="1571" d="M797 1394q190 0 360 -105t260 -283q77 -153 77 -324q0 -141 -54 -271.5t-153 -230.5q-100 -101 -229.5 -155t-270.5 -54q-140 0 -270 54t-229 152q-101 100 -156 232t-55 273q0 201 105 374q102 169 285 261q151 77 330 77zM781 1285q-112 0 -219.5 -46t-189.5 -129 q-83 -83 -128.5 -195t-45.5 -232q0 -119 45.5 -231t128.5 -197q83 -84 191 -129.5t224 -45.5t224 46t190 131q172 176 172 424q0 121 -45.5 234t-127.5 195q-175 175 -419 175zM1056 443l15 -25l-191 -118q-151 13 -241 82q-73 55 -114 137q-40 79 -40 156q0 139 130 263 q64 62 144 91l250 22q21 1 27 2q9 1 16 1q12 0 21 -8q14 -12 14 -25q0 -25 -58 -63l-77 -50q-11 21 -23 30q-61 42 -129 42q-67 0 -115 -61q-41 -52 -41 -135q0 -157 119 -262q99 -88 218 -88q27 0 75 9z" />
<glyph unicode="&#xaa;" horiz-adv-x="674" d="M417 674l-74 -70q-37 -34 -64 -50q-34 -20 -79 -20q-68 0 -132 41q-55 34 -55 78q0 85 139 157q103 54 187 54q5 0 19 -1q-47 65 -75 94q-33 35 -66 35q-14 0 -40 -11l-12 17l93 65q67 46 94 46q28 0 67 -50q105 -136 247 -453q-61 -34 -146 -84q-29 109 -77 167 q-82 102 -217 102q-65 0 -65 -42q0 -45 52 -73q41 -22 90 -22q32 0 114 20z" />
<glyph unicode="&#xab;" horiz-adv-x="799" d="M730 325l-177 -105q-13 18 -50 63l-52 70q-25 34 -38 55q-17 29 -17 64q0 64 122 160l163 128l28 -33q-129 -108 -129 -176q0 -55 150 -226zM403 325l-177 -105q-13 18 -51 63l-52 70q-25 35 -38 55q-17 29 -17 64q0 40 37 82q31 35 85 78l163 128l28 -33 q-129 -109 -129 -176q0 -55 151 -226z" />
<glyph unicode="&#xac;" d="M737 0v342h-669v204h887v-546h-218z" />
<glyph unicode="&#xad;" horiz-adv-x="658" d="M658 724l-162 -186q-28 20 -54 23q-35 4 -74 4h-368l168 195q24 -23 49 -29q27 -7 83 -7h358z" />
<glyph unicode="&#xae;" horiz-adv-x="1571" d="M797 1394q134 0 262 -54.5t227 -152.5q99 -100 153.5 -231.5t54.5 -273.5q0 -141 -54 -272t-153 -231q-100 -100 -230 -154t-270 -54t-270 54t-229 152q-101 100 -156 232t-55 273q0 201 105 374q102 169 285 261q151 77 330 77zM781 1285q-112 0 -219.5 -46t-189.5 -129 q-83 -83 -128.5 -195t-45.5 -232t45.5 -231.5t129.5 -196.5q82 -84 190 -129.5t223 -45.5q116 0 224.5 46t190.5 131q172 176 172 424q0 121 -45.5 234t-127.5 195q-175 175 -419 175zM403 935v27q21 21 43 42q27 27 51 56q184 13 241 13q132 0 220 -40q48 -21 76 -60 t28 -84q0 -68 -63 -122q-27 -23 -87 -63q85 -146 171 -255q39 -49 52 -49q9 0 21 12l13 -21l-77 -53q-62 -43 -88 -43q-44 0 -102 100q-134 233 -161 279q156 55 156 147q0 62 -51 93q-50 30 -132 30q-12 0 -35 -1v-551l-172 -113q2 55 14 363q3 240 4 293q-30 2 -43 2 q-10 0 -46 -1q-11 -1 -33 -1z" />
<glyph unicode="&#xaf;" d="M0 1804h1024v-196h-1024v196z" />
<glyph unicode="&#xb0;" horiz-adv-x="702" d="M356 1402q120 0 205 -94q73 -80 73 -189q0 -126 -94 -210q-80 -73 -189 -73q-126 0 -210 94q-73 80 -73 191q0 123 94 208q80 73 194 73zM351 1296q-75 0 -128 -58q-45 -50 -45 -117q0 -79 58 -131q50 -45 118 -45q79 0 131 58q45 50 45 119q0 76 -58 129q-50 45 -121 45 z" />
<glyph unicode="&#xb1;" d="M454 1217h116v-352h351v-116h-351v-351h-116v351h-352v116h352v352zM921 292v-116h-819v116h819z" />
<glyph unicode="&#xb2;" horiz-adv-x="683" d="M607 723q-72 -91 -148 -196q-69 30 -156 30q-100 0 -218 -30l-24 42l190 221q36 41 62 91q45 87 45 163t-59 120q-52 39 -130 39q-41 0 -95 -17l-15 21l137 96q80 56 132 56q50 0 100 -37q87 -65 87 -190q0 -113 -100 -238l-137 -169q101 8 154 8q60 0 175 -10z" />
<glyph unicode="&#xb3;" horiz-adv-x="683" d="M174 451l-11 32q106 63 139 104q56 69 56 146q0 80 -63 129q-53 41 -108 41q-14 0 -44 -3v28q68 24 106 55q70 57 70 121q0 50 -38 81q-31 25 -82 25q-42 0 -100 -25l-14 24q45 33 67 50q82 62 117 78q39 18 76 18q44 0 83 -24q71 -44 71 -124q0 -68 -61 -125 q-22 -21 -88 -68h15q55 0 101 -38q71 -57 71 -160q0 -97 -85 -185q-60 -61 -133 -101z" />
<glyph unicode="&#xb4;" d="M558 1396l204 -119q-70 -110 -135 -187q-70 -84 -124 -84q-24 0 -89 33q-76 39 -97 49q70 68 131.5 147t109.5 161z" />
<glyph unicode="&#xb5;" d="M69 -350v1333h218v-534q0 -118 20 -169q30 -77 102 -114q49 -25 103 -25q101 0 164 80q36 46 49 103q11 46 11 136v523h218v-983h-218v139q-34 -71 -71 -104q-66 -58 -159 -58q-88 0 -153 53q-32 27 -66 83v-463h-218z" />
<glyph unicode="&#xb6;" d="M895 1147h-27q-4 -178 -4 -265q0 -186 32 -879l8 -187l-148 -60v1391h-90v-1436l-130 -64q5 425 6 773l1 364v363q-86 -1 -149 -34q-129 -68 -129 -225q0 -102 73 -180q44 -46 123 -74l-4 -22q-147 42 -235 89q-97 53 -149.5 127.5t-52.5 160.5q0 75 38 147t105 122 q104 78 298 94q70 6 170 6q171 0 412 -17v-53z" />
<glyph unicode="&#xb7;" horiz-adv-x="438" d="M242 724q22 -61 54 -101q23 -29 74 -75l-128 -87q-45 -31 -70 -31q-32 0 -60 31q-49 53 -49 115q0 35 22 56q11 11 42 28z" />
<glyph unicode="&#xb8;" d="M503 -347q9 38 9 55q0 46 -28 71q-32 28 -135 45q51 30 66 41q41 27 58 38q34 20 69 20q39 0 78 -23q55 -32 55 -86q0 -50 -52 -91q-30 -23 -120 -70z" />
<glyph unicode="&#xb9;" horiz-adv-x="683" d="M446 638l-47 -34q-38 -26 -105 -81v415q0 237 -59 237q-7 0 -29 -13l-13 29l161 140q29 25 49 25q32 0 40 -60q3 -21 3 -119v-539z" />
<glyph unicode="&#xba;" horiz-adv-x="608" d="M171 993l-9 15q139 96 199 96q67 0 125 -55q36 -33 57.5 -83t21.5 -99q0 -85 -51 -149q-67 -84 -169 -156q-40 -28 -92 -28q-89 0 -153 72q-57 63 -57 146q0 95 75 149l92 68l14 -12q-37 -51 -37 -103q0 -92 68 -158q55 -55 102 -55q32 0 52 33q15 27 15 79q0 71 -36 132 q-68 117 -167 117q-18 0 -50 -9z" />
<glyph unicode="&#xbb;" horiz-adv-x="799" d="M68 655l177 105q13 -17 50 -62l52 -71q27 -36 38 -54q18 -29 18 -64q0 -40 -38 -82q-30 -35 -85 -78l-162 -129l-28 34q129 108 129 176q0 54 -151 225zM396 655l176 105q14 -17 51 -62l52 -71q25 -34 38 -54q17 -29 17 -64q0 -40 -37 -82q-31 -35 -85 -78l-163 -129 l-28 34q129 108 129 176q0 54 -150 225z" />
<glyph unicode="&#xbc;" horiz-adv-x="1444" d="M446 638q-36 -26 -47 -34q-37 -25 -105 -81v415q0 237 -59 237q-7 0 -29 -13l-13 29l161 140q29 25 49 25q32 0 40 -60q3 -21 3 -119v-539zM988 1255q167 79 285 122q-58 -73 -102 -136q-41 -60 -198 -340q-32 -59 -163 -284q-148 -255 -253 -465q-76 -18 -161 -60 q-125 -63 -226 -114q428 454 818 1277zM1109 574q70 47 148 110q-9 -182 -11 -291q46 1 147 12q-57 -80 -103 -155h-47q-1 -30 -1 -46q0 -40 5 -98q-70 -50 -162 -129l7 86l5 56q6 64 10 110l-42 -1q-116 -5 -132 -5q-115 0 -115 93q0 46 35 111q67 126 174 277 q55 79 113 141l38 -26q-93 -113 -146 -223q-49 -101 -49 -145q0 -66 70 -66q21 0 56 2q2 53 2 93q0 34 -2 94z" />
<glyph unicode="&#xbd;" horiz-adv-x="1443" d="M446 638q-35 -25 -47 -34q-38 -26 -105 -81v415q0 237 -59 237q-7 0 -29 -13l-13 29l161 140q29 25 49 25q32 0 40 -60q3 -21 3 -119v-539zM934 1255q167 79 285 122q-58 -73 -102 -136q-41 -60 -198 -340q-32 -59 -163 -284q-148 -255 -253 -465q-76 -18 -161 -60 q-125 -63 -226 -114q428 454 818 1277zM1368 177q-72 -91 -147 -196q-70 30 -157 30q-99 0 -218 -30l-24 42l191 221q36 42 62 92q45 87 45 163t-59 120q-53 39 -130 39q-41 0 -96 -18l-15 22l137 95q80 56 132 56q51 0 101 -37q87 -64 87 -189q0 -113 -101 -239l-137 -168 q100 7 154 7q56 0 175 -10z" />
<glyph unicode="&#xbe;" horiz-adv-x="1444" d="M174 451l-11 32q106 63 139 104q56 69 56 146q0 80 -63 129q-53 41 -108 41q-14 0 -44 -3v28q68 24 106 55q70 57 70 121q0 50 -38 81q-31 25 -82 25q-42 0 -100 -25l-14 24q45 33 67 50q82 62 117 78q39 18 76 18q44 0 83 -24q71 -44 71 -124q0 -68 -61 -125 q-22 -21 -88 -68h15q55 0 101 -38q71 -57 71 -160q0 -97 -85 -185q-60 -61 -133 -101zM988 1255q167 79 285 122q-58 -73 -101 -136q-41 -60 -198 -340q-32 -59 -163 -284q-149 -255 -254 -465q-75 -18 -161 -60q-123 -62 -226 -114q428 454 818 1277zM1109 574 q70 47 148 110q-9 -182 -11 -291q46 1 147 12q-57 -80 -103 -155h-47q-1 -32 -1 -49q0 -36 5 -95q-70 -50 -161 -129l7 86l5 56q5 64 9 110l-42 -1q-116 -5 -132 -5q-115 0 -115 93q0 46 35 111q68 127 174 277q55 78 114 141l37 -26q-93 -113 -146 -223q-49 -101 -49 -145 q0 -66 70 -66q22 0 56 2q3 55 3 93t-3 94z" />
<glyph unicode="&#xbf;" horiz-adv-x="901" d="M818 -108l15 -21l-236 -198q-79 -14 -142 -14q-202 0 -324 99q-61 50 -96 120t-35 142q0 188 227 382q94 80 290 210l24 -36q-134 -97 -198 -208q-62 -108 -62 -207q0 -136 106 -220q109 -86 258 -86q80 0 173 37zM413 716q-23 66 -54 109q-23 31 -74 81l141 87 q50 31 71 31q41 0 77 -53q32 -45 32 -94q0 -34 -22 -55q-6 -6 -42 -28z" />
<glyph unicode="&#xc0;" horiz-adv-x="1313" d="M468 1259l255 130q88 -303 174 -507q310 -730 428 -730q10 0 35 16l9 -12l-143 -103q-91 -67 -125 -67q-24 0 -59.5 27t-61.5 65q-52 76 -134 264h-571q-53 -158 -52 -231l-319 -145q251 474 344 696q45 106 159 392q50 123 56 157q2 13 5 48zM783 482q-22 50 -116 282 q-71 177 -108 296q-27 -70 -106 -261q-64 -154 -123 -317h453zM609 1870q164 -271 249 -315q-166 -80 -193 -80q-51 0 -165 150q-55 72 -85 121z" />
<glyph unicode="&#xc1;" horiz-adv-x="1313" d="M468 1259l255 130q88 -303 174 -507q310 -730 428 -730q10 0 35 16l9 -12l-143 -103q-91 -67 -125 -67q-24 0 -59.5 27t-61.5 65q-52 76 -134 264h-571q-53 -158 -52 -231l-319 -145q251 474 344 696q45 106 159 392q50 123 56 157q2 13 5 48zM783 482q-22 50 -116 282 q-71 177 -108 296q-27 -70 -106 -261q-64 -154 -123 -317h453zM664 1870l194 -124q-30 -49 -85 -121q-115 -150 -165 -150q-28 0 -193 80q84 44 249 315z" />
<glyph unicode="&#xc2;" horiz-adv-x="1313" d="M468 1259l255 130q88 -303 174 -507q310 -730 428 -730q10 0 35 16l9 -12l-143 -103q-91 -67 -125 -67q-24 0 -59.5 27t-61.5 65q-52 76 -134 264h-571q-53 -158 -52 -231l-319 -145q251 474 344 696q45 106 159 392q50 123 56 157q2 13 5 48zM783 482q-22 50 -116 282 q-71 177 -108 296q-27 -70 -106 -261q-64 -154 -123 -317h453zM786 1485q-88 108 -127 138q-44 33 -91 33q-88 0 -241 -140l-32 26q58 64 195 202q61 63 104 91q26 17 58 17q70 0 186 -99q42 -37 136 -137z" />
<glyph unicode="&#xc3;" horiz-adv-x="1313" d="M468 1259l255 130q88 -303 174 -507q310 -730 428 -730q10 0 35 16l9 -12l-143 -103q-91 -67 -125 -67q-24 0 -59.5 27t-61.5 65q-52 76 -134 264h-571q-53 -158 -52 -231l-319 -145q251 474 344 696q45 106 159 392q50 123 56 157q2 13 5 48zM783 482q-22 50 -116 282 q-71 177 -108 296q-27 -70 -106 -261q-64 -154 -123 -317h453zM954 1767l32 -11l-32 -124q-19 -72 -60 -110q-38 -34 -75 -34q-30 0 -78 18q-73 28 -138 54q-134 53 -185 53q-50 0 -74 -39q-8 -13 -19 -43l-33 11l30 90q33 100 60 126q30 30 64 30q56 0 196 -62 q128 -57 153 -66.5t48 -9.5q44 0 78 50q11 18 33 67z" />
<glyph unicode="&#xc4;" horiz-adv-x="1313" d="M468 1259l255 130q88 -303 174 -507q310 -730 428 -730q10 0 35 16l9 -12l-143 -103q-91 -67 -125 -67q-24 0 -59.5 27t-61.5 65q-52 76 -134 264h-571q-53 -158 -52 -231l-319 -145q251 474 344 696q45 106 159 392q50 123 56 157q2 13 5 48zM783 482q-22 50 -116 282 q-71 177 -108 296q-27 -70 -106 -261q-64 -154 -123 -317h453zM200 1627l244 161q34 -52 59 -86q35 -44 88 -82l-72 -43q-106 -65 -165 -65q-56 0 -101 34q-27 21 -53 81zM681 1627l244 161q34 -52 59 -86q35 -44 88 -82l-72 -43q-106 -65 -165 -65q-56 0 -101 34 q-27 21 -53 81z" />
<glyph unicode="&#xc5;" horiz-adv-x="1313" d="M468 1259l255 130q88 -303 174 -507q310 -730 428 -730q10 0 35 16l9 -12l-143 -103q-91 -67 -125 -67q-24 0 -59.5 27t-61.5 65q-52 76 -134 264h-571q-53 -158 -52 -231l-319 -145q251 474 344 696q45 106 159 392q50 123 56 157q2 13 5 48zM783 482q-22 50 -116 282 q-71 177 -108 296q-27 -70 -106 -261q-64 -154 -123 -317h453zM639 1817q77 0 131 -60q46 -51 46 -120q0 -80 -60 -134q-51 -46 -120 -46q-80 0 -134 60q-46 51 -46 122q0 77 60 132q50 46 123 46zM636 1733q-40 0 -69 -31q-24 -28 -24 -64q0 -42 31 -71q27 -24 63 -24 q43 0 71 31q24 27 24 65q0 41 -31 70q-27 24 -65 24z" />
<glyph unicode="&#xc6;" horiz-adv-x="1832" d="M840 360h-563l-13 -46q-35 -121 -40 -178q-173 -73 -333 -152q132 238 241 457q76 160 218 482q102 227 113 295q3 12 9 59q115 58 259 137q20 -89 77 -269q47 -146 79 -211q74 118 138 177q124 114 272 185q144 69 279 69q120 0 197 -38q59 -30 59 -64q0 -44 -99 -90 l-176 -83q-52 109 -195 109q-164 0 -259 -145q-62 -95 -66 -236q177 -6 265 -6q71 0 275 7q122 4 217 6l-258 -242q-34 21 -60 24q-30 3 -192 3h-226q41 -124 86 -188q106 -147 335 -196q77 -17 156 -17q59 0 149 12l-138 -121q-58 -50 -108 -75q-64 -32 -146 -32 q-208 0 -381 146q-95 80 -171 221zM774 504q-82 162 -219 569q-46 -117 -129 -320q-54 -135 -97 -249h445z" />
<glyph unicode="&#xc7;" horiz-adv-x="1061" d="M1008 228l16 -27l-316 -201q-141 13 -232 45t-175 98q-123 97 -193 242q-67 138 -67 271q0 116 57 236.5t163 224.5q139 138 317 182q179 44 321 44q67 0 116 -22q40 -18 40 -49q0 -36 -94 -100l-122 -82q-17 30 -38 46q-48 34 -111 56t-117 22q-56 0 -112.5 -30.5 t-96.5 -83.5q-73 -96 -73 -248q0 -135 55.5 -261t154.5 -217q107 -98 249 -139q72 -20 136 -20q44 0 122 13zM348 -206q62 45 99 69q72 46 119 46q40 0 85 -33q65 -49 65 -103q0 -52 -75 -103l-99 -67q7 27 7 39q0 35 -27.5 70.5t-70.5 55.5q-33 16 -103 26z" />
<glyph unicode="&#xc8;" horiz-adv-x="1147" d="M1120 824l-267 -226q-56 17 -87 22q-31 4 -119 4h-275q16 -84 42 -135.5t78 -103.5q83 -83 196.5 -128.5t237.5 -45.5q68 0 179 20q-145 -139 -214 -182q-80 -51 -187 -51q-170 0 -317 103q-132 92 -207 224q-69 119 -69 271v28h-220l252 200q50 121 113 195 q138 159 320 261q160 89 328 89q121 0 189 -44q54 -34 54 -67t-87 -74l-188 -88q-19 52 -68.5 79.5t-125.5 27.5q-150 0 -244 -114q-71 -87 -87 -265q133 -7 268 -7q124 0 505 7zM710 1870q164 -271 249 -315q-166 -80 -193 -80q-51 0 -165 150q-55 72 -85 121z" />
<glyph unicode="&#xc9;" horiz-adv-x="1147" d="M1120 824l-267 -226q-56 17 -87 22q-31 4 -119 4h-275q16 -84 42 -135.5t78 -103.5q83 -83 196.5 -128.5t237.5 -45.5q68 0 179 20q-145 -139 -214 -182q-80 -51 -187 -51q-170 0 -317 103q-132 92 -207 224q-69 119 -69 271v28h-220l252 200q50 121 113 195 q138 159 320 261q160 89 328 89q121 0 189 -44q54 -34 54 -67t-87 -74l-188 -88q-19 52 -68.5 79.5t-125.5 27.5q-150 0 -244 -114q-71 -87 -87 -265q133 -7 268 -7q124 0 505 7zM779 1870l194 -124q-30 -49 -85 -121q-115 -150 -165 -150q-28 0 -193 80q84 44 249 315z" />
<glyph unicode="&#xca;" horiz-adv-x="1147" d="M1120 824l-267 -226q-56 17 -87 22q-31 4 -119 4h-275q16 -84 42 -135.5t78 -103.5q83 -83 196.5 -128.5t237.5 -45.5q68 0 179 20q-145 -139 -214 -182q-80 -51 -187 -51q-170 0 -317 103q-132 92 -207 224q-69 119 -69 271v28h-220l252 200q50 121 113 195 q138 159 320 261q160 89 328 89q121 0 189 -44q54 -34 54 -67t-87 -74l-188 -88q-19 52 -68.5 79.5t-125.5 27.5q-150 0 -244 -114q-71 -87 -87 -265q133 -7 268 -7q124 0 505 7zM888 1485q-88 108 -127 138q-44 33 -91 33q-88 0 -241 -140l-32 26q58 64 195 202 q61 63 104 91q26 17 58 17q70 0 186 -99q42 -37 136 -137z" />
<glyph unicode="&#xcb;" horiz-adv-x="1147" d="M1120 824l-267 -226q-56 17 -87 22q-31 4 -119 4h-275q16 -84 42 -135.5t78 -103.5q83 -83 196.5 -128.5t237.5 -45.5q68 0 179 20q-145 -139 -214 -182q-80 -51 -187 -51q-170 0 -317 103q-132 92 -207 224q-69 119 -69 271v28h-220l252 200q50 121 113 195 q138 159 320 261q160 89 328 89q121 0 189 -44q54 -34 54 -67t-87 -74l-188 -88q-19 52 -68.5 79.5t-125.5 27.5q-150 0 -244 -114q-71 -87 -87 -265q133 -7 268 -7q124 0 505 7zM233 1627l244 161q34 -52 59 -86q35 -44 88 -82l-72 -43q-106 -65 -165 -65q-56 0 -101 34 q-27 21 -53 81zM714 1627l244 161q34 -52 59 -86q35 -44 88 -82l-72 -43q-106 -65 -165 -65q-56 0 -101 34q-27 21 -53 81z" />
<glyph unicode="&#xcc;" horiz-adv-x="594" d="M439 156l-273 -173q18 195 18 525q0 507 -23 589q-17 63 -54 63q-15 0 -51 -20l-15 23l233 156q80 53 111 53q40 0 51 -45q5 -18 5 -65l-1 -304v-365l-1 -283v-154zM290 1870q164 -271 249 -315q-166 -80 -193 -80q-51 0 -165 150q-55 72 -85 121z" />
<glyph unicode="&#xcd;" horiz-adv-x="594" d="M439 156l-273 -173q18 195 18 525q0 507 -23 589q-17 63 -54 63q-15 0 -51 -20l-15 23l233 156q80 53 111 53q40 0 51 -45q5 -18 5 -65l-1 -304v-365l-1 -283v-154zM346 1870l194 -124q-30 -49 -85 -121q-115 -150 -165 -150q-28 0 -193 80q84 44 249 315z" />
<glyph unicode="&#xce;" horiz-adv-x="594" d="M439 156l-273 -173q18 195 18 525q0 505 -23 589q-17 63 -54 63q-15 0 -51 -20l-15 23l233 156q80 53 111 53q40 0 51 -45q5 -18 5 -65l-1 -304v-365l-1 -283v-154zM453 1485q-79 108 -114 138q-40 33 -82 33q-80 0 -217 -140l-29 26q51 63 175 202q56 63 95 91 q23 17 51 17q63 0 168 -100q37 -35 122 -136z" />
<glyph unicode="&#xcf;" horiz-adv-x="594" d="M439 156l-273 -173q18 195 18 525q0 507 -23 589q-17 63 -54 63q-15 0 -51 -20l-15 23l233 156q80 53 111 53q40 0 51 -45q5 -18 5 -65l-1 -304v-365l-1 -283v-154zM-34 1601l192 144q68 -105 132 -150l-64 -39q-97 -59 -147 -59q-27 0 -50 13q-40 21 -63 91zM372 1601 l192 144q31 -47 53 -76q32 -40 79 -74l-64 -39q-96 -59 -147 -59q-27 0 -51 13q-39 21 -62 91z" />
<glyph unicode="&#xd0;" horiz-adv-x="1362" d="M256 624h-247l252 200q3 91 3 189v129h-260q104 94 221 209q182 7 230 7q440 0 665 -199q204 -182 204 -416q0 -83 -28 -171t-75 -154q-129 -180 -395 -351q-115 -74 -197 -74q-69 0 -249 38q-64 14 -155 41l12 60q11 86 15 327q1 27 4 165zM504 623v-351 q199 -64 317 -64q123 0 184 69q45 50 71.5 126t26.5 152q0 139 -83 293q-108 201 -312 266q-77 25 -204 28v-326h20q242 6 372 8l-266 -226q-76 23 -126 25z" />
<glyph unicode="&#xd1;" horiz-adv-x="1540" d="M1123 1212l266 169q-20 -326 -31 -646q-11 -304 -16 -352q-8 -115 -8 -160q0 -28 4 -95l-206 -129q-13 67 -35 109q-70 139 -220 311.5t-430 437.5q-15 -207 -15 -392q0 -147 15 -280l-281 -186q23 188 36 372q8 139 38 662q-74 60 -117 91q-105 76 -161 76q-9 0 -36 -6 l-11 20l145 100q97 66 137 66q50 0 207 -135q96 -82 252 -233.5t248 -249.5q97 -106 247 -282q8 241 8 370q0 206 -36 362zM1087 1767l32 -11l-32 -124q-19 -72 -60 -110q-38 -34 -75 -34q-30 0 -78 18q-73 28 -138 54q-134 53 -185 53q-50 0 -74 -39q-8 -13 -19 -43l-33 11 l30 90q33 100 60 126q30 30 64 30q56 0 196 -62q128 -57 153 -66.5t48 -9.5q44 0 78 50q11 18 33 67z" />
<glyph unicode="&#xd2;" horiz-adv-x="1326" d="M376 1156l-11 15q106 81 176 115q120 59 241 59q174 0 305 -138q85 -90 134 -208.5t49 -235.5t-57 -241.5t-165 -243.5q-126 -140 -259.5 -212.5t-263.5 -72.5q-211 0 -346 186q-124 172 -124 362q0 144 100 260q71 83 229 208l12 -14q-47 -61 -64 -109q-17 -51 -17 -125 q0 -228 125 -401q68 -94 148.5 -145.5t159.5 -51.5q58 0 115 28.5t89 73.5q60 87 60 264q0 304 -153 489q-81 97 -192 147q-74 34 -149 34q-58 0 -142 -43zM664 1870q164 -271 249 -315q-166 -80 -193 -80q-51 0 -165 150q-55 72 -85 121z" />
<glyph unicode="&#xd3;" horiz-adv-x="1326" d="M376 1156l-11 15q106 81 176 115q120 59 241 59q174 0 305 -138q85 -90 134 -208.5t49 -235.5t-57 -241.5t-165 -243.5q-126 -140 -259.5 -212.5t-263.5 -72.5q-211 0 -346 186q-124 172 -124 362q0 144 100 260q71 83 229 208l12 -14q-47 -61 -64 -109q-17 -51 -17 -125 q0 -228 125 -401q68 -94 148.5 -145.5t159.5 -51.5q58 0 115 28.5t89 73.5q60 87 60 264q0 304 -153 489q-81 97 -192 147q-74 34 -149 34q-58 0 -142 -43zM719 1870l194 -124q-30 -49 -85 -121q-115 -150 -165 -150q-28 0 -193 80q84 44 249 315z" />
<glyph unicode="&#xd4;" horiz-adv-x="1326" d="M376 1156l-11 15q106 81 176 115q120 59 241 59q174 0 305 -138q85 -90 134 -208.5t49 -235.5t-57 -241.5t-165 -243.5q-126 -140 -259.5 -212.5t-263.5 -72.5q-211 0 -346 186q-124 172 -124 362q0 144 100 260q71 83 229 208l12 -14q-47 -61 -64 -109q-17 -51 -17 -125 q0 -228 125 -401q68 -94 148.5 -145.5t159.5 -51.5q58 0 115 28.5t89 73.5q60 87 60 264q0 304 -153 489q-81 97 -192 147q-74 34 -149 34q-58 0 -142 -43zM814 1485q-88 108 -127 138q-44 33 -91 33q-88 0 -241 -140l-32 26q58 64 195 202q61 63 104 91q26 17 58 17 q70 0 186 -99q42 -37 136 -137z" />
<glyph unicode="&#xd5;" horiz-adv-x="1326" d="M376 1156l-11 15q106 81 176 115q120 59 241 59q174 0 305 -138q85 -90 134 -208.5t49 -235.5t-57 -241.5t-165 -243.5q-126 -140 -259.5 -212.5t-263.5 -72.5q-211 0 -346 186q-124 172 -124 362q0 144 100 260q71 83 229 208l12 -14q-47 -61 -64 -109q-17 -51 -17 -125 q0 -228 125 -401q68 -94 148.5 -145.5t159.5 -51.5q58 0 115 28.5t89 73.5q60 87 60 264q0 304 -153 489q-81 97 -192 147q-74 34 -149 34q-58 0 -142 -43zM981 1767l32 -11l-32 -124q-19 -72 -60 -110q-38 -34 -75 -34q-30 0 -78 18q-73 28 -138 54q-134 53 -185 53 q-50 0 -74 -39q-8 -13 -19 -43l-33 11l30 90q33 100 60 126q30 30 64 30q56 0 196 -62q128 -57 153 -66.5t48 -9.5q44 0 78 50q11 18 33 67z" />
<glyph unicode="&#xd6;" horiz-adv-x="1326" d="M376 1156l-11 15q106 81 176 115q120 59 241 59q174 0 305 -138q85 -90 134 -208.5t49 -235.5t-57 -241.5t-165 -243.5q-126 -140 -259.5 -212.5t-263.5 -72.5q-211 0 -346 186q-124 172 -124 362q0 144 100 260q71 83 229 208l12 -14q-47 -61 -64 -109q-17 -51 -17 -125 q0 -228 125 -401q68 -94 148.5 -145.5t159.5 -51.5q58 0 115 28.5t89 73.5q60 87 60 264q0 304 -153 489q-81 97 -192 147q-74 34 -149 34q-58 0 -142 -43zM255 1627l244 161q34 -52 59 -86q35 -44 88 -82l-72 -43q-106 -65 -165 -65q-56 0 -101 34q-27 21 -53 81zM736 1627 l244 161q34 -52 59 -86q35 -44 88 -82l-72 -43q-106 -65 -165 -65q-56 0 -101 34q-27 21 -53 81z" />
<glyph unicode="&#xd7;" d="M512 774l299 299l77 -77l-299 -300l299 -299l-77 -77l-299 299l-300 -299l-77 77l299 299l-299 300l77 77z" />
<glyph unicode="&#xd8;" horiz-adv-x="1368" d="M225 150q-147 185 -147 391q0 144 100 260q71 83 230 208l11 -14q-47 -61 -64 -109q-17 -51 -17 -125q0 -204 100 -364q98 127 269 383q107 161 162 253q-152 166 -328 166q-58 0 -142 -43l-11 15q106 81 177 115q120 59 240 59q106 0 204 -57l8 17l15 31q156 51 336 85 q-128 -122 -229 -246q154 -189 154 -412q0 -117 -57 -241.5t-165 -243.5q-257 -285 -524 -285q-97 0 -191 49q-14 -25 -29 -54q-143 -23 -327 -53q137 123 225 215zM948 922q-71 -100 -352 -521l-37 -55l-38 -55q129 -128 250 -128q58 0 115.5 28.5t88.5 73.5q60 87 60 262 q0 235 -87 395z" />
<glyph unicode="&#xd9;" horiz-adv-x="1442" d="M314 1398q-2 -36 -2 -56q0 -107 37.5 -264t102.5 -321q117 -296 234 -416q87 -89 153 -89q98 0 196 155q80 126 122 318q30 134 30 269q0 96 -24 169q161 82 375 205q-84 -323 -178 -541q-124 -287 -283 -519q-173 -250 -289 -299q-45 -19 -88 -19q-96 0 -192 97 q-50 52 -124 168t-143 252q-121 240 -202 495q-25 77 -25 147q0 58 50 98q13 11 99 60zM694 1870q164 -271 249 -315q-166 -80 -193 -80q-51 0 -165 150q-55 72 -85 121z" />
<glyph unicode="&#xda;" horiz-adv-x="1442" d="M314 1398q-2 -36 -2 -56q0 -107 37.5 -264t102.5 -321q117 -296 234 -416q87 -89 153 -89q98 0 196 155q80 126 122 318q30 134 30 269q0 96 -24 169q161 82 375 205q-84 -323 -178 -541q-124 -287 -283 -519q-173 -250 -289 -299q-45 -19 -88 -19q-96 0 -192 97 q-50 52 -124 168t-143 252q-121 240 -202 495q-25 77 -25 147q0 58 50 98q13 11 99 60zM804 1870l194 -124q-30 -49 -85 -121q-115 -150 -165 -150q-28 0 -193 80q84 44 249 315z" />
<glyph unicode="&#xdb;" horiz-adv-x="1442" d="M314 1398q-2 -36 -2 -56q0 -107 37.5 -264t102.5 -321q117 -296 234 -416q87 -89 153 -89q98 0 196 155q80 126 122 318q30 134 30 269q0 96 -24 169q161 82 375 205q-84 -323 -178 -541q-124 -287 -283 -519q-173 -250 -289 -299q-45 -19 -88 -19q-96 0 -192 97 q-50 52 -124 168t-143 252q-121 240 -202 495q-25 77 -25 147q0 58 50 98q13 11 99 60zM926 1485q-88 108 -127 138q-44 33 -91 33q-88 0 -241 -140l-32 26q58 64 195 202q61 63 104 91q26 17 58 17q70 0 186 -99q42 -37 136 -137z" />
<glyph unicode="&#xdc;" horiz-adv-x="1442" d="M314 1398q-2 -36 -2 -56q0 -107 37.5 -264t102.5 -321q117 -296 234 -416q87 -89 153 -89q98 0 196 155q80 126 122 318q30 134 30 269q0 96 -24 169q161 82 375 205q-84 -323 -178 -541q-124 -287 -283 -519q-173 -250 -289 -299q-45 -19 -88 -19q-96 0 -192 97 q-50 52 -124 168t-143 252q-121 240 -202 495q-25 77 -25 147q0 58 50 98q13 11 99 60zM340 1627l244 161q34 -52 59 -86q35 -44 88 -82l-72 -43q-106 -65 -165 -65q-56 0 -101 34q-27 21 -53 81zM821 1627l244 161q34 -52 59 -86q35 -44 88 -82l-72 -43q-106 -65 -165 -65 q-56 0 -101 34q-27 21 -53 81z" />
<glyph unicode="&#xdd;" horiz-adv-x="1271" d="M818 157q-139 -88 -277 -187q13 155 13 238q0 173 -47 279q-99 226 -317 490q-117 142 -150 169q-26 23 -53 23q-16 0 -53 -12l-10 16l167 116q91 63 132 63t87 -52q85 -97 263 -375q114 -177 201 -348q91 124 162 253q110 199 110 287q0 22 -13 61q184 76 357 158 l22 -31q-44 -46 -245 -346q-243 -362 -278 -410q-51 -71 -61 -109q-18 -75 -18 -191q0 -35 8 -92zM718 1870l194 -124q-30 -49 -85 -121q-115 -150 -165 -150q-28 0 -193 80q84 44 249 315z" />
<glyph unicode="&#xde;" horiz-adv-x="1088" d="M195 874h-195v53l167 142h14q-17 91 -60 91q-16 0 -52 -20l-15 23l234 156q79 53 108 53q43 0 54 -45q5 -18 5 -65v-93v-84q171 -2 289 -26q146 -30 242 -124q98 -95 98 -213q0 -188 -239 -301q-89 -42 -246 -83l-6 22q90 27 137 74q82 80 82 189q0 120 -97 189 q-81 57 -261 64v-141v-141l-2 -284v-154l-273 -173q19 197 19 449q0 58 -3 442z" />
<glyph unicode="&#xdf;" horiz-adv-x="1083" d="M374 723l-5 -175q-7 -237 -7 -268q0 -53 8 -136q-56 -39 -85 -59q-47 -33 -176 -129q3 163 6 443q6 489 26 619q15 97 83 178q155 183 339 279q71 36 150 36q82 0 162 -50q27 -17 118 -93l-222 -155q-114 144 -243 144q-106 0 -128 -122q-14 -80 -17 -171l-7 -205l-2 -79 q165 134 251 175q61 29 127 29q80 0 149 -49q96 -69 96 -170q0 -77 -67 -139q-25 -22 -121 -94q100 -28 145 -63q89 -70 89 -200q0 -159 -162 -285q-119 -92 -353 -210l-16 31q125 70 175 125q101 109 101 227q0 122 -105 196q-52 36 -138 39v32q79 31 118 57q98 67 98 156 q0 70 -75 121q-59 40 -133 40q-43 0 -79 -12q-40 -14 -100 -63z" />
<glyph unicode="&#xe0;" horiz-adv-x="1066" d="M627 184l-93 -89q-60 -58 -104 -84q-53 -32 -127 -32q-108 0 -213 67q-87 56 -87 124q0 87 107 177q89 75 219 124q121 45 202 45q20 0 61 -4q-93 130 -140 180q-59 63 -121 63q-23 0 -61 -15l-8 12l145 102q47 33 82 55q37 23 67 23q43 0 105 -81q83 -111 188 -306.5 t218 -448.5q-98 -55 -222 -131q-27 101 -54 159t-72 115q-141 177 -371 177q-120 0 -120 -83q0 -84 92 -135q71 -39 156 -39q51 0 151 25zM514 1396q48 -82 109.5 -161t131.5 -147q-50 -23 -64 -32q-95 -50 -122 -50q-54 0 -125 84q-64 77 -134 187z" />
<glyph unicode="&#xe1;" horiz-adv-x="1066" d="M627 184l-93 -89q-60 -58 -104 -84q-53 -32 -127 -32q-108 0 -213 67q-87 56 -87 124q0 87 107 177q89 75 219 124q121 45 202 45q20 0 61 -4q-93 130 -140 180q-59 63 -121 63q-23 0 -61 -15l-8 12l145 102q47 33 82 55q37 23 67 23q43 0 105 -81q83 -111 188 -306.5 t218 -448.5q-98 -55 -222 -131q-27 101 -54 159t-72 115q-141 177 -371 177q-120 0 -120 -83q0 -84 92 -135q71 -39 156 -39q51 0 151 25zM579 1396l204 -119q-70 -110 -135 -187q-70 -84 -124 -84q-24 0 -89 33q-76 39 -97 49q70 68 131.5 147t109.5 161z" />
<glyph unicode="&#xe2;" horiz-adv-x="1066" d="M627 184l-93 -89q-60 -58 -104 -84q-53 -32 -127 -32q-108 0 -213 67q-87 56 -87 124q0 87 107 177q89 75 219 124q121 45 202 45q20 0 61 -4q-93 130 -140 180q-59 63 -121 63q-23 0 -61 -15l-8 12l145 102q47 33 82 55q37 23 67 23q43 0 105 -81q83 -111 188 -306.5 t218 -448.5q-98 -55 -222 -131q-27 101 -54 159t-72 115q-141 177 -371 177q-120 0 -120 -83q0 -84 92 -135q71 -39 156 -39q51 0 151 25zM699 998q-28 26 -37 35q-57 55 -88 80q-48 41 -98 41q-79 0 -222 -150l-38 32q103 113 189 216q73 88 132 88q56 0 108 -36 q56 -38 211 -182z" />
<glyph unicode="&#xe3;" horiz-adv-x="1066" d="M627 184l-93 -89q-60 -58 -104 -84q-53 -32 -127 -32q-108 0 -213 67q-87 56 -87 124q0 87 107 177q89 75 219 124q121 45 202 45q20 0 61 -4q-93 130 -140 180q-59 63 -121 63q-23 0 -61 -15l-8 12l145 102q47 33 82 55q37 23 67 23q43 0 105 -81q83 -111 188 -306.5 t218 -448.5q-98 -55 -222 -131q-27 101 -54 159t-72 115q-141 177 -371 177q-120 0 -120 -83q0 -84 92 -135q71 -39 156 -39q51 0 151 25zM848 1338l31 -5q-37 -187 -84 -233q-34 -33 -77 -33q-62 0 -195 54q-138 57 -193 57q-51 0 -81 -38q-11 -15 -26 -49l-30 7 q13 45 17 59q30 105 53 137q37 52 95 52q40 0 150 -39q29 -11 171 -63q41 -15 66 -15q70 0 103 109z" />
<glyph unicode="&#xe4;" horiz-adv-x="1066" d="M627 184l-93 -89q-60 -58 -104 -84q-53 -32 -127 -32q-108 0 -213 67q-87 56 -87 124q0 87 107 177q89 75 219 124q121 45 202 45q20 0 61 -4q-93 130 -140 180q-59 63 -121 63q-23 0 -61 -15l-8 12l145 102q47 33 82 55q37 23 67 23q43 0 105 -81q83 -111 188 -306.5 t218 -448.5q-98 -55 -222 -131q-27 101 -54 159t-72 115q-141 177 -371 177q-120 0 -120 -83q0 -84 92 -135q71 -39 156 -39q51 0 151 25zM503 1177l-42 -43q-55 -57 -119 -57q-52 0 -90 31q-23 19 -45 69l174 126q38 -70 122 -126zM859 1177l-41 -43q-55 -57 -119 -57 q-53 0 -90 31q-23 19 -45 69l174 126q37 -70 121 -126z" />
<glyph unicode="&#xe5;" horiz-adv-x="1066" d="M627 184l-93 -89q-60 -58 -104 -84q-53 -32 -127 -32q-108 0 -213 67q-87 56 -87 124q0 87 107 177q89 75 219 124q121 45 202 45q20 0 61 -4q-93 130 -140 180q-59 63 -121 63q-23 0 -61 -15l-8 12l145 102q47 33 82 55q37 23 67 23q43 0 105 -81q83 -111 188 -306.5 t218 -448.5q-98 -55 -222 -131q-27 101 -54 159t-72 115q-141 177 -371 177q-120 0 -120 -83q0 -84 92 -135q71 -39 156 -39q51 0 151 25zM535 1380q71 0 121 -55q43 -47 43 -111q0 -75 -55 -124q-48 -43 -112 -43q-74 0 -123 55q-43 47 -43 113q0 72 55 122q47 43 114 43z M533 1309q-41 0 -70 -31q-24 -28 -24 -64q0 -42 31 -71q27 -24 64 -24q42 0 71 31q24 27 24 65q0 41 -31 70q-27 24 -65 24z" />
<glyph unicode="&#xe6;" horiz-adv-x="1461" d="M270 743l-10 18l180 123q82 55 124 55t88 -66q74 -105 141 -224q115 138 219 200q120 72 223 72q104 0 175 -72q52 -52 52 -108q0 -54 -81 -114q-190 -142 -330 -205l-9 19q93 61 118 89q37 44 37 91q0 48 -44 90q-52 51 -119 51q-52 0 -88 -40q-42 -47 -42 -139 q0 -161 107 -278q121 -132 274 -132q61 0 127 35l11 -15q-93 -92 -162 -139q-109 -75 -205 -75q-116 0 -202 83q-38 36 -131 177q-59 89 -174 139q-98 43 -201 43q-119 0 -119 -82q0 -73 88 -125q76 -45 192 -45q59 0 120 28q-89 -108 -161 -155q-90 -59 -175 -59 q-97 0 -195 60q-92 57 -92 139q0 98 119 182q139 98 262 137q81 25 132 25q25 0 75 -11q-81 116 -139 177q-67 71 -122 71q-22 0 -63 -20z" />
<glyph unicode="&#xe7;" horiz-adv-x="808" d="M758 173l9 -12q-50 -37 -98 -73q-72 -55 -126 -82q-52 -26 -117 -26q-145 0 -262 141q-111 135 -111 284q0 124 81 245q80 120 236 208q119 67 218 67q91 0 156 -51q59 -46 59 -100q0 -46 -61 -85l-127 -82q-20 64 -59 107q-73 77 -162 77q-81 0 -120 -80 q-30 -62 -30 -120q0 -116 87 -239q75 -104 188 -159q82 -39 153 -39q36 0 86 19zM396 -347q9 38 9 55q0 46 -28 71q-32 28 -135 45q51 30 66 41q41 27 58 38q34 20 69 20q39 0 78 -23q55 -32 55 -86q0 -50 -52 -91q-30 -23 -120 -70z" />
<glyph unicode="&#xe8;" horiz-adv-x="838" d="M781 203l8 -10q-155 -124 -197 -151q-95 -63 -171 -63q-59 0 -125 31t-118 83q-118 119 -118 277q0 94 50.5 193.5t140.5 182.5t202 132q79 35 146 35q87 0 164 -55q70 -50 70 -113q0 -73 -102 -145q-119 -84 -311 -170l-5 14q77 47 113 85q42 43 42 93q0 46 -36 83 q-55 55 -131 55q-66 0 -104 -58q-35 -53 -35 -125q0 -81 35.5 -162t98.5 -144q109 -109 244 -109q75 0 139 41zM496 1396q48 -82 109.5 -161t131.5 -147q-50 -23 -64 -32q-95 -50 -122 -50q-54 0 -125 84q-64 77 -134 187z" />
<glyph unicode="&#xe9;" horiz-adv-x="838" d="M781 203l8 -10q-155 -124 -197 -151q-95 -63 -171 -63q-59 0 -125 31t-118 83q-118 119 -118 277q0 94 50.5 193.5t140.5 182.5t202 132q79 35 146 35q87 0 164 -55q70 -50 70 -113q0 -73 -102 -145q-119 -84 -311 -170l-5 14q77 47 113 85q42 43 42 93q0 46 -36 83 q-55 55 -131 55q-66 0 -104 -58q-35 -53 -35 -125q0 -81 35.5 -162t98.5 -144q109 -109 244 -109q75 0 139 41zM561 1396l204 -119q-70 -110 -135 -187q-70 -84 -124 -84q-24 0 -89 33q-76 39 -97 49q70 68 131.5 147t109.5 161z" />
<glyph unicode="&#xea;" horiz-adv-x="838" d="M781 203l8 -10q-155 -124 -197 -151q-95 -63 -171 -63q-59 0 -125 31t-118 83q-118 119 -118 277q0 94 50.5 193.5t140.5 182.5t202 132q79 35 146 35q87 0 164 -55q70 -50 70 -113q0 -73 -102 -145q-119 -84 -311 -170l-5 14q77 47 113 85q42 43 42 93q0 46 -36 83 q-55 55 -131 55q-66 0 -104 -58q-35 -53 -35 -125q0 -81 35.5 -162t98.5 -144q109 -109 244 -109q75 0 139 41zM626 998q-28 26 -37 35q-57 55 -88 80q-48 41 -98 41q-79 0 -222 -150l-38 32q103 113 189 216q73 88 132 88q56 0 108 -36q56 -38 211 -182z" />
<glyph unicode="&#xeb;" horiz-adv-x="838" d="M781 203l8 -10q-155 -124 -197 -151q-95 -63 -171 -63q-59 0 -125 31t-118 83q-118 119 -118 277q0 94 50.5 193.5t140.5 182.5t202 132q79 35 146 35q87 0 164 -55q70 -50 70 -113q0 -73 -102 -145q-119 -84 -311 -170l-5 14q77 47 113 85q42 43 42 93q0 46 -36 83 q-55 55 -131 55q-66 0 -104 -58q-35 -53 -35 -125q0 -81 35.5 -162t98.5 -144q109 -109 244 -109q75 0 139 41zM457 1177l-42 -43q-55 -57 -119 -57q-52 0 -90 31q-23 19 -45 69l174 126q38 -70 122 -126zM813 1177l-41 -43q-55 -57 -119 -57q-53 0 -90 31q-23 19 -45 69 l174 126q37 -70 121 -126z" />
<glyph unicode="&#xec;" horiz-adv-x="536" d="M7 700l-7 13l211 129q32 20 71 45q43 28 75 28q60 0 55 -124v-63q0 -43 -8 -252q-4 -101 -4 -187q0 -55 3 -168q-128 -70 -254 -155q6 97 13.5 302t7.5 278q0 170 -101 170q-25 0 -62 -16zM250 1396q48 -82 109.5 -161t131.5 -147q-50 -23 -64 -32q-95 -50 -122 -50 q-54 0 -125 84q-64 77 -134 187z" />
<glyph unicode="&#xed;" horiz-adv-x="523" d="M-7 700l-7 13l211 129q32 20 71 45q43 28 75 28q60 0 55 -124v-63q0 -43 -8 -252q-4 -101 -4 -187q0 -55 3 -168q-128 -70 -254 -155q6 97 13.5 302t7.5 278q0 170 -101 170q-25 0 -62 -16zM300 1396l204 -119q-70 -110 -135 -187q-70 -84 -124 -84q-24 0 -89 33 q-76 39 -97 49q70 68 131.5 147t109.5 161z" />
<glyph unicode="&#xee;" horiz-adv-x="536" d="M7 700l-7 13l211 129q34 21 71 45q43 28 75 28q60 0 55 -125q-1 -13 0 -62q0 -42 -8 -252q-4 -99 -4 -189q0 -54 2 -166q-127 -70 -254 -155q7 97 14.5 303t7.5 277q0 170 -102 170q-24 0 -61 -16zM418 1012q-26 26 -34 35q-50 55 -78 81q-44 41 -89 41q-71 0 -200 -151 l-34 32q102 124 170 216q65 88 119 88q50 0 97 -36q50 -38 190 -182z" />
<glyph unicode="&#xef;" horiz-adv-x="536" d="M7 700l-7 13l211 129q32 20 71 45q43 28 75 28q60 0 55 -124v-63q0 -43 -8 -252q-4 -101 -4 -187q0 -55 3 -168q-128 -70 -254 -155q6 97 13.5 302t7.5 278q0 170 -101 170q-25 0 -62 -16zM239 1186l-40 -41q-53 -54 -113 -54q-50 0 -85 30q-22 18 -43 65l165 120 q36 -67 116 -120zM578 1186l-40 -41q-53 -54 -113 -54q-50 0 -85 30q-22 18 -43 65l165 120q36 -67 116 -120z" />
<glyph unicode="&#xf0;" horiz-adv-x="956" d="M186 736l-114 -12l231 231q-18 14 -31 25q-49 40 -67 64q-29 41 -29 88q0 57 37 95q30 30 89 73q32 23 93 73l10 -11q-31 -27 -31 -57q0 -96 93 -186l155 155l142 29l-240 -236l45 -40q157 -136 210 -199q126 -150 126 -284q0 -90 -43.5 -177t-137.5 -183 q-119 -121 -200 -166q-68 -38 -137 -38q-103 0 -195 75q-137 109 -137 282q0 155 120 244l147 109l9 -9q-30 -42 -39 -62q-20 -44 -20 -107q0 -161 117 -277q97 -97 171 -97q63 0 99 55q31 47 31 135q0 186 -78 324q-40 71 -99 124q-45 41 -134 115l-19 16z" />
<glyph unicode="&#xf1;" horiz-adv-x="1208" d="M14 715l-7 10l212 140q31 20 49 33q55 37 83 37q47 0 62 -93q4 -31 16 -315l5 -119q378 507 517 507q58 0 84 -96q15 -53 40 -265q29 -246 43 -448q-90 -44 -226 -129q1 33 1 53q0 134 -19 271t-48 221q-12 33 -36.5 54t-52.5 21q-59 0 -130 -59t-165 -187 q-120 -162 -223 -358h-25q2 104 2 154q0 353 -22 473q-22 115 -93 115q-28 0 -67 -20zM919 1338l31 -5q-37 -187 -84 -233q-34 -33 -77 -33q-62 0 -195 54q-138 57 -193 57q-51 0 -81 -38q-11 -15 -26 -49l-30 7q13 45 17 59q30 105 53 137q37 52 95 52q40 0 150 -39 q29 -11 171 -63q41 -15 66 -15q70 0 103 109z" />
<glyph unicode="&#xf2;" horiz-adv-x="956" d="M262 759l-5 9q115 80 168 108q87 46 149 46q50 0 104.5 -24.5t96.5 -64.5q58 -57 92.5 -138.5t34.5 -162.5q0 -63 -22.5 -130.5t-59.5 -114.5q-46 -58 -128 -135.5t-151 -126.5q-66 -46 -148 -46q-142 0 -247 118q-91 103 -91 240q0 155 120 244l147 109l8 -8 q-28 -41 -38 -63q-20 -46 -20 -109q0 -160 116 -277q97 -96 180 -96q59 0 95 63q27 47 27 138q0 123 -61 230q-57 98 -131.5 151t-157.5 53q-29 0 -78 -13zM460 1396q48 -82 109.5 -161t131.5 -147q-50 -23 -64 -32q-95 -50 -122 -50q-54 0 -125 84q-64 77 -134 187z" />
<glyph unicode="&#xf3;" horiz-adv-x="956" d="M262 759l-5 9q115 80 168 108q87 46 149 46q50 0 104.5 -24.5t96.5 -64.5q58 -57 92.5 -138.5t34.5 -162.5q0 -63 -22.5 -130.5t-59.5 -114.5q-46 -58 -128 -135.5t-151 -126.5q-66 -46 -148 -46q-142 0 -247 118q-91 103 -91 240q0 155 120 244l147 109l8 -8 q-28 -41 -38 -63q-20 -46 -20 -109q0 -160 116 -277q97 -96 180 -96q59 0 95 63q27 47 27 138q0 123 -61 230q-57 98 -131.5 151t-157.5 53q-29 0 -78 -13zM525 1396l204 -119q-70 -110 -135 -187q-70 -84 -124 -84q-24 0 -89 33q-76 39 -97 49q70 68 131.5 147t109.5 161z " />
<glyph unicode="&#xf4;" horiz-adv-x="956" d="M262 759l-5 9q115 80 168 108q87 46 149 46q50 0 104.5 -24.5t96.5 -64.5q58 -57 92.5 -138.5t34.5 -162.5q0 -63 -22.5 -130.5t-59.5 -114.5q-46 -58 -128 -135.5t-151 -126.5q-66 -46 -148 -46q-142 0 -247 118q-91 103 -91 240q0 155 120 244l147 109l8 -8 q-28 -41 -38 -63q-20 -46 -20 -109q0 -160 116 -277q97 -96 180 -96q59 0 95 63q27 47 27 138q0 123 -61 230q-57 98 -131.5 151t-157.5 53q-29 0 -78 -13zM645 1012q-28 26 -37 35q-57 55 -88 80q-48 41 -98 41q-79 0 -222 -150l-38 32q103 113 189 216q73 88 132 88 q56 0 108 -36q56 -38 211 -182z" />
<glyph unicode="&#xf5;" horiz-adv-x="956" d="M262 759l-5 9q115 80 168 108q87 46 149 46q50 0 104.5 -24.5t96.5 -64.5q58 -57 92.5 -138.5t34.5 -162.5q0 -63 -22.5 -130.5t-59.5 -114.5q-46 -58 -128 -135.5t-151 -126.5q-66 -46 -148 -46q-142 0 -247 118q-91 103 -91 240q0 155 120 244l147 109l8 -8 q-28 -41 -38 -63q-20 -46 -20 -109q0 -160 116 -277q97 -96 180 -96q59 0 95 63q27 47 27 138q0 123 -61 230q-57 98 -131.5 151t-157.5 53q-29 0 -78 -13zM793 1338l31 -5q-37 -187 -84 -233q-34 -33 -77 -33q-62 0 -195 54q-138 57 -193 57q-51 0 -81 -38q-11 -15 -26 -49 l-30 7q13 45 17 59q30 105 53 137q37 52 95 52q40 0 150 -39q29 -11 171 -63q41 -15 66 -15q70 0 103 109z" />
<glyph unicode="&#xf6;" horiz-adv-x="956" d="M262 759l-5 9q115 80 168 108q87 46 149 46q50 0 104.5 -24.5t96.5 -64.5q58 -57 92.5 -138.5t34.5 -162.5q0 -63 -22.5 -130.5t-59.5 -114.5q-46 -58 -128 -135.5t-151 -126.5q-66 -46 -148 -46q-142 0 -247 118q-91 103 -91 240q0 155 120 244l147 109l8 -8 q-28 -41 -38 -63q-20 -46 -20 -109q0 -160 116 -277q97 -96 180 -96q59 0 95 63q27 47 27 138q0 123 -61 230q-57 98 -131.5 151t-157.5 53q-29 0 -78 -13zM448 1177l-42 -43q-55 -57 -119 -57q-52 0 -90 31q-23 19 -45 69l174 126q38 -70 122 -126zM804 1177l-41 -43 q-55 -57 -119 -57q-53 0 -90 31q-23 19 -45 69l174 126q37 -70 121 -126z" />
<glyph unicode="&#xf7;" d="M514 1010q34 0 59 -27q21 -23 21 -55q0 -36 -27 -61q-23 -21 -55 -21q-36 0 -61 27q-21 24 -21 56q0 35 27 60q23 21 57 21zM514 546q34 0 59 -27q21 -24 21 -55q0 -36 -27 -61q-23 -21 -55 -21q-36 0 -61 27q-21 24 -21 56q0 35 27 60q24 21 57 21zM921 754v-116h-819 v116h819z" />
<glyph unicode="&#xf8;" horiz-adv-x="963" d="M150 97q-92 106 -92 240q0 155 120 244l147 109l8 -8q-28 -41 -38 -63q-20 -46 -20 -111q0 -102 56 -198q103 138 237 347q-105 115 -224 115q-30 0 -79 -13l-5 9q115 80 168 108q87 46 149 46q55 0 124 -34q11 23 25 53q108 35 237 60q-83 -79 -170 -184 q112 -127 112 -286q0 -63 -22.5 -130t-59.5 -114q-46 -59 -128 -136t-151 -126q-66 -46 -148 -46q-72 0 -151 41l-15 -28q-103 -17 -230 -38q90 81 150 143zM622 585l-11 -17l-17 -25l-175 -261q-18 -26 -30 -45q99 -100 182 -100q58 0 95 63q27 47 27 137q0 134 -71 248z " />
<glyph unicode="&#xf9;" horiz-adv-x="1174" d="M798 749q141 83 264 168q-17 -291 -17 -530q0 -143 9 -248l-90 -58q-66 -42 -183 -126l17 583q-187 -286 -311 -416q-137 -142 -198 -142q-53 0 -79 81q-12 37 -23 149l-31 342q-9 102 -27 143q-21 51 -67 51q-23 0 -62 -20l-12 21l195 113q93 52 112 60.5t37 8.5 q27 0 33 -40q3 -21 14 -140l26 -301q6 -72 20 -105q16 -38 53 -38q90 0 195 131t120 224q5 29 5 62v27zM568 1396q48 -82 109.5 -161t131.5 -147q-50 -23 -64 -32q-95 -50 -122 -50q-54 0 -125 84q-64 77 -134 187z" />
<glyph unicode="&#xfa;" horiz-adv-x="1174" d="M798 749q141 83 264 168q-17 -291 -17 -530q0 -143 9 -248l-90 -58q-66 -42 -183 -126l17 583q-187 -286 -311 -416q-137 -142 -198 -142q-53 0 -79 81q-12 37 -23 149l-31 342q-9 102 -27 143q-21 51 -67 51q-23 0 -62 -20l-12 21l195 113q93 52 112 60.5t37 8.5 q27 0 33 -40q3 -21 14 -140l26 -301q6 -72 20 -105q16 -38 53 -38q90 0 195 131t120 224q5 29 5 62v27zM633 1396l204 -119q-70 -110 -135 -187q-70 -84 -124 -84q-24 0 -89 33q-76 39 -97 49q70 68 131.5 147t109.5 161z" />
<glyph unicode="&#xfb;" horiz-adv-x="1174" d="M798 749q141 83 264 168q-17 -291 -17 -530q0 -143 9 -248l-90 -58q-66 -42 -183 -126l17 583q-187 -286 -311 -416q-137 -142 -198 -142q-53 0 -79 81q-12 37 -23 149l-31 342q-9 102 -27 143q-21 51 -67 51q-23 0 -62 -20l-12 21l195 113q93 52 112 60.5t37 8.5 q27 0 33 -40q3 -21 14 -140l26 -301q6 -72 20 -105q16 -38 53 -38q90 0 195 131t120 224q5 29 5 62v27zM753 1012q-28 26 -37 35q-57 55 -88 80q-48 41 -98 41q-79 0 -222 -150l-38 32q103 113 189 216q73 88 132 88q56 0 108 -36q56 -38 211 -182z" />
<glyph unicode="&#xfc;" horiz-adv-x="1174" d="M798 749q141 83 264 168q-17 -291 -17 -530q0 -143 9 -248l-90 -58q-66 -42 -183 -126l17 583q-187 -286 -311 -416q-137 -142 -198 -142q-53 0 -79 81q-12 37 -23 149l-31 342q-9 102 -27 143q-21 51 -67 51q-23 0 -62 -20l-12 21l195 113q93 52 112 60.5t37 8.5 q27 0 33 -40q3 -21 14 -140l26 -301q6 -72 20 -105q16 -38 53 -38q90 0 195 131t120 224q5 29 5 62v27zM557 1177l-42 -43q-55 -57 -119 -57q-52 0 -90 31q-23 19 -45 69l174 126q38 -70 122 -126zM913 1177l-41 -43q-55 -57 -119 -57q-53 0 -90 31q-23 19 -45 69l174 126 q37 -70 121 -126z" />
<glyph unicode="&#xfd;" horiz-adv-x="1136" d="M979 901h48q-2 -39 -10 -161q-7 -113 -7 -835q0 -191 17 -297q-183 -93 -262 -149q6 104 24 735l8 258q-33 -43 -67 -85q-94 -119 -210 -270q-93 -121 -155 -121q-50 0 -84 81q-22 53 -61 288q-51 305 -92 357q-23 29 -58 29q-24 0 -60 -13l-9 18l208 139q76 51 116 51 q38 0 52 -50q11 -39 31 -161q21 -129 56 -276q21 -93 44 -117q21 -21 45 -21q67 0 243 261q117 173 183 339zM669 1396l204 -119q-70 -110 -135 -187q-70 -84 -124 -84q-24 0 -89 33q-76 39 -97 49q70 68 131.5 147t109.5 161z" />
<glyph unicode="&#xfe;" horiz-adv-x="1061" d="M4 1300l-4 9l172 108q85 54 106 66q49 26 77 26q50 0 50 -125q0 -21 -1 -66q-4 -237 -5 -640q-1 -127 -5 -478q-4 -359 -5 -576q-112 -67 -251 -162q10 155 12 202q6 129 7 496q0 162 4 436q4 305 4 419q0 165 -7 210q-15 93 -78 93q-27 0 -76 -18zM540 55l-13 30 q123 52 168 96q31 32 50.5 83t19.5 102q0 67 -24 144.5t-64 139.5q-25 37 -60 62t-63 25q-39 0 -104 -48l-22 36q30 22 79 57q93 68 163 109q53 31 104 31q67 0 120 -72q51 -68 81.5 -164t30.5 -186q0 -67 -24 -129q-41 -106 -236 -221q-81 -48 -206 -95z" />
<glyph unicode="&#xff;" horiz-adv-x="1136" d="M979 901h48q-2 -39 -10 -161q-7 -113 -7 -835q0 -191 17 -297q-183 -93 -262 -149q6 104 24 735l8 258q-33 -43 -67 -85q-94 -119 -210 -270q-93 -121 -155 -121q-50 0 -84 81q-22 53 -61 288q-51 305 -92 357q-23 29 -58 29q-24 0 -60 -13l-9 18l208 139q76 51 116 51 q38 0 52 -50q11 -39 31 -161q21 -129 56 -276q21 -93 44 -117q21 -21 45 -21q67 0 243 261q117 173 183 339zM565 1177l-42 -43q-55 -57 -119 -57q-52 0 -90 31q-23 19 -45 69l174 126q38 -70 122 -126zM921 1177l-41 -43q-55 -57 -119 -57q-53 0 -90 31q-23 19 -45 69 l174 126q37 -70 121 -126z" />
<glyph unicode="&#x100;" horiz-adv-x="1313" d="M468 1259l255 130q88 -303 174 -507q310 -730 428 -730q10 0 35 16l9 -12l-143 -103q-91 -67 -125 -67q-24 0 -59.5 27t-61.5 65q-52 76 -134 264h-571q-53 -158 -52 -231l-319 -145q251 474 344 696q45 106 159 392q50 123 56 157q2 13 5 48zM783 482q-22 50 -116 282 q-71 177 -108 296q-27 -70 -106 -261q-64 -154 -123 -317h453zM1068 1707l-205 -174q-44 14 -67 17q-22 3 -92 3h-500l194 154q236 -6 315 -6q55 0 355 6z" />
<glyph unicode="&#x101;" horiz-adv-x="1066" d="M627 184l-93 -89q-60 -58 -104 -84q-53 -32 -127 -32q-108 0 -213 67q-87 56 -87 124q0 87 107 177q89 75 219 124q121 45 202 45q20 0 61 -4q-93 130 -140 180q-59 63 -121 63q-23 0 -61 -15l-8 12l145 102q47 33 82 55q37 23 67 23q43 0 105 -81q83 -111 188 -306.5 t218 -448.5q-98 -55 -222 -131q-27 101 -54 159t-72 115q-141 177 -371 177q-120 0 -120 -83q0 -84 92 -135q71 -39 156 -39q51 0 151 25zM873 1263l-148 -157q-32 12 -48 15t-66 3h-419l140 139q126 -3 161 -4q98 -2 130 -2q39 0 250 6z" />
<glyph unicode="&#x102;" horiz-adv-x="1313" d="M468 1259l255 130q88 -303 174 -507q310 -730 428 -730q10 0 35 16l9 -12l-143 -103q-91 -67 -125 -67q-24 0 -59.5 27t-61.5 65q-52 76 -134 264h-571q-53 -158 -52 -231l-319 -145q251 474 344 696q45 106 159 392q50 123 56 157q2 13 5 48zM783 482q-22 50 -116 282 q-71 177 -108 296q-27 -70 -106 -261q-64 -154 -123 -317h453zM289 1804l32 20q146 -165 315 -165q170 0 316 165l32 -20q-60 -128 -103 -185q-105 -135 -245 -135q-99 0 -177 65q-56 45 -103 124q-25 41 -67 131z" />
<glyph unicode="&#x103;" horiz-adv-x="1066" d="M627 184l-93 -89q-60 -58 -104 -84q-53 -32 -127 -32q-108 0 -213 67q-87 56 -87 124q0 87 107 177q89 75 219 124q121 45 202 45q20 0 61 -4q-93 130 -140 180q-59 63 -121 63q-23 0 -61 -15l-8 12l145 102q47 33 82 55q37 23 67 23q43 0 105 -81q83 -111 188 -306.5 t218 -448.5q-98 -55 -222 -131q-27 101 -54 159t-72 115q-141 177 -371 177q-120 0 -120 -83q0 -84 92 -135q71 -39 156 -39q51 0 151 25zM819 1321l26 -12q-49 -119 -91 -173q-95 -122 -221 -122q-89 0 -160 58q-54 44 -94 112q-23 40 -58 125l27 12q69 -87 125 -118 q58 -32 160 -32t160 32q56 31 126 118z" />
<glyph unicode="&#x104;" horiz-adv-x="1313" d="M468 1259l255 130q88 -303 174 -507q310 -730 428 -730q10 0 35 16l9 -12l-143 -103q-115 -85 -136 -113q-30 -41 -30 -87q0 -80 60 -124q39 -28 126 -28q29 0 77 8q-63 -73 -92 -95q-34 -27 -81 -27q-77 0 -142 59q-78 70 -78 161q0 114 120 200q-42 31 -70 71 q-57 87 -134 264h-571q-53 -158 -52 -231l-319 -145q251 474 344 696q45 106 159 392q50 123 56 157q2 13 5 48zM783 482q-22 50 -116 282q-71 177 -108 296q-27 -70 -106 -261q-64 -154 -123 -317h453z" />
<glyph unicode="&#x105;" horiz-adv-x="1066" d="M270 740l-8 12l145 102q47 33 82 55q37 23 67 23q43 0 105 -81q83 -111 188 -306.5t218 -448.5q-122 -66 -162 -110q-43 -49 -43 -110q0 -146 169 -146q26 0 69 7q-56 -65 -82 -85q-31 -24 -74 -24q-107 0 -166 90q-32 50 -32 109q0 96 91 167q-32 109 -70 175 q-144 247 -419 247q-120 0 -120 -83q0 -84 92 -135q71 -39 156 -39q51 0 151 25l-93 -89q-60 -58 -104 -84q-53 -32 -127 -32q-108 0 -213 67q-87 56 -87 124q0 87 107 177q89 75 219 124q121 45 202 45q20 0 61 -4q-93 130 -140 180q-59 63 -121 63q-23 0 -61 -15z" />
<glyph unicode="&#x106;" horiz-adv-x="1061" d="M1008 228l16 -27l-316 -201q-141 13 -232 45t-175 98q-123 97 -193 242q-67 138 -67 271q0 116 57 236.5t163 224.5q139 138 317 182q179 44 321 44q67 0 116 -22q40 -18 40 -49q0 -36 -94 -100l-122 -82q-17 30 -38 46q-48 34 -111 56t-117 22q-56 0 -112.5 -30.5 t-96.5 -83.5q-73 -96 -73 -248q0 -135 55.5 -261t154.5 -217q107 -98 249 -139q72 -20 136 -20q44 0 122 13zM640 1870l194 -124q-30 -49 -85 -121q-115 -150 -165 -150q-28 0 -193 80q84 44 249 315z" />
<glyph unicode="&#x107;" horiz-adv-x="808" d="M758 173l9 -12q-50 -37 -98 -73q-72 -55 -126 -82q-52 -26 -117 -26q-145 0 -262 141q-111 135 -111 284q0 124 81 245q80 120 236 208q119 67 218 67q91 0 156 -51q59 -46 59 -100q0 -46 -61 -85l-127 -82q-20 64 -59 107q-73 77 -162 77q-81 0 -120 -80 q-30 -62 -30 -120q0 -116 87 -239q75 -104 188 -159q82 -39 153 -39q36 0 86 19zM532 1396l204 -119q-70 -110 -135 -187q-70 -84 -124 -84q-24 0 -89 33q-76 39 -97 49q70 68 131.5 147t109.5 161z" />
<glyph unicode="&#x108;" horiz-adv-x="1061" d="M777 1485q-88 108 -127 138q-44 33 -91 33q-89 0 -241 -140l-32 26q58 64 194 202q62 63 105 91q26 17 58 17q69 0 185 -99q42 -37 137 -137zM1008 228l16 -27l-316 -201q-141 13 -232 45t-175 98q-123 97 -193 242q-67 138 -67 271q0 116 57 236.5t163 224.5 q139 138 317 182q179 44 321 44q67 0 116 -22q40 -18 40 -49q0 -36 -94 -100l-122 -82q-17 30 -38 46q-48 34 -111 56t-117 22q-56 0 -112.5 -30.5t-96.5 -83.5q-73 -96 -73 -248q0 -135 55.5 -261t154.5 -217q107 -98 249 -139q72 -20 136 -20q44 0 122 13z" />
<glyph unicode="&#x10a;" horiz-adv-x="1061" d="M431 1627l244 161q33 -52 59 -86q35 -44 88 -82l-72 -43q-106 -65 -165 -65q-56 0 -101 34q-27 21 -53 81zM1008 228l16 -27l-316 -201q-141 13 -232 45t-175 98q-123 97 -193 242q-67 138 -67 271q0 116 57 236.5t163 224.5q139 138 317 182q179 44 321 44q67 0 116 -22 q40 -18 40 -49q0 -36 -94 -100l-122 -82q-17 30 -38 46q-48 34 -111 56t-117 22q-56 0 -112.5 -30.5t-96.5 -83.5q-73 -96 -73 -248q0 -135 55.5 -261t154.5 -217q107 -98 249 -139q72 -20 136 -20q44 0 122 13z" />
<glyph unicode="&#x10b;" horiz-adv-x="808" d="M758 173l9 -12q-50 -37 -98 -73q-72 -55 -126 -82q-52 -26 -117 -26q-145 0 -262 141q-111 135 -111 284q0 124 81 245q80 120 236 208q119 67 218 67q91 0 156 -51q59 -46 59 -100q0 -46 -61 -85l-127 -82q-20 64 -59 107q-73 77 -162 77q-81 0 -120 -80 q-30 -62 -30 -120q0 -116 87 -239q75 -104 188 -159q82 -39 153 -39q36 0 86 19zM696 1181l-44 -45q-58 -60 -124 -60q-56 0 -95 33q-24 20 -47 72l183 132q39 -73 127 -132z" />
<glyph unicode="&#x10c;" horiz-adv-x="1061" d="M1008 228l16 -27l-316 -201q-141 13 -232 45t-175 98q-123 97 -193 242q-67 138 -67 271q0 116 57 236.5t163 224.5q139 138 317 182q179 44 321 44q67 0 116 -22q40 -18 40 -49q0 -36 -94 -100l-122 -82q-17 30 -38 46q-48 34 -111 56t-117 22q-56 0 -112.5 -30.5 t-96.5 -83.5q-73 -96 -73 -248q0 -135 55.5 -261t154.5 -217q107 -98 249 -139q72 -20 136 -20q44 0 122 13zM460 1852q87 -108 127 -138q44 -33 91 -33q88 0 240 141l33 -27q-58 -64 -195 -202q-61 -63 -104 -91q-26 -17 -58 -17q-70 0 -186 100q-42 36 -136 136z" />
<glyph unicode="&#x10d;" horiz-adv-x="808" d="M758 173l9 -12q-50 -37 -98 -73q-72 -55 -126 -82q-52 -26 -117 -26q-145 0 -262 141q-111 135 -111 284q0 124 81 245q80 120 236 208q119 67 218 67q91 0 156 -51q59 -46 59 -100q0 -46 -61 -85l-127 -82q-20 64 -59 107q-73 77 -162 77q-81 0 -120 -80 q-30 -62 -30 -120q0 -116 87 -239q75 -104 188 -159q82 -39 153 -39q36 0 86 19zM354 1339q28 -24 38 -34q56 -54 87 -80q49 -41 98 -41q80 0 223 150l37 -33q-102 -111 -188 -215q-73 -88 -132 -88q-56 0 -109 36q-56 38 -211 181z" />
<glyph unicode="&#x10e;" horiz-adv-x="1362" d="M4 1142q109 89 221 209q202 8 234 8q436 0 661 -200q204 -181 204 -415q0 -84 -28 -172t-75 -154q-129 -179 -395 -351q-115 -74 -197 -74q-69 0 -249 38q-64 14 -155 41q16 75 20 191q19 445 19 759v120h-260zM504 272q199 -64 317 -64q123 0 184 69q44 50 71 126 t27 152q0 139 -83 293q-108 201 -312 266q-77 25 -204 28v-870zM433 1852q87 -108 127 -138q44 -33 91 -33q88 0 240 141l33 -27q-58 -64 -195 -202q-61 -63 -104 -91q-26 -17 -58 -17q-70 0 -186 100q-42 36 -136 136z" />
<glyph unicode="&#x10f;" horiz-adv-x="1056" d="M288 1237l9 -11q-31 -28 -31 -53q0 -47 50 -89q54 -45 294 -148q187 -80 260 -125q146 -90 146 -239q0 -123 -104 -260q-113 -150 -280 -247q-124 -72 -215 -72q-56 0 -117.5 29t-108.5 78q-49 52 -77.5 120t-28.5 134q0 120 73 193q6 6 191 139l11 -9q-49 -91 -49 -176 q0 -104 74 -203q44 -60 109 -94q62 -33 123 -33q102 0 157 94q32 55 32 123q0 155 -145 266q-61 46 -265 130q-24 10 -229 91q-98 39 -119 54q-48 31 -48 68q0 34 55 77q11 9 95 67zM733 1285l157 107l39 -37q78 -75 78 -124q0 -77 -229 -201l-6 9q68 72 68 111q0 34 -35 71 q-23 24 -72 64z" />
<glyph unicode="&#x110;" horiz-adv-x="1362" d="M256 624h-247l252 200q3 91 3 189v129h-260q104 94 221 209q182 7 230 7q440 0 665 -199q204 -182 204 -416q0 -83 -28 -171t-75 -154q-129 -180 -395 -351q-115 -74 -197 -74q-69 0 -249 38q-64 14 -155 41l12 60q11 86 15 327q1 27 4 165zM504 623v-351 q199 -64 317 -64q123 0 184 69q45 50 71.5 126t26.5 152q0 139 -83 293q-108 201 -312 266q-77 25 -204 28v-326h20q242 6 372 8l-266 -226q-76 23 -126 25z" />
<glyph unicode="&#x111;" horiz-adv-x="1056" d="M449 1106h406v-68h-283q18 -10 38 -21q187 -98 261 -155q145 -111 145 -285q0 -212 -259 -425q-194 -159 -339 -159q-57 0 -118.5 29t-108.5 78q-106 112 -106 255q0 119 73 192q6 6 191 140l11 -10q-49 -91 -49 -175q0 -105 74 -204q45 -60 110 -94q61 -33 122 -33 q103 0 158 94q32 55 32 125q0 188 -138 323q-60 58 -256 160q-24 13 -221 112q-75 39 -99 53h-194v68h160q-4 21 -4 32q0 74 95 140l138 95l9 -11q-31 -28 -31 -55q0 -76 96 -147q24 -18 87 -54z" />
<glyph unicode="&#x112;" horiz-adv-x="1147" d="M1120 824l-267 -226q-56 17 -87 22q-31 4 -119 4h-275q16 -84 42 -135.5t78 -103.5q83 -83 196.5 -128.5t237.5 -45.5q68 0 179 20q-145 -139 -214 -182q-80 -51 -187 -51q-170 0 -317 103q-132 92 -207 224q-69 119 -69 271v28h-220l252 200q50 121 113 195 q138 159 320 261q160 89 328 89q121 0 189 -44q54 -34 54 -67t-87 -74l-188 -88q-19 52 -68.5 79.5t-125.5 27.5q-150 0 -244 -114q-71 -87 -87 -265q133 -7 268 -7q124 0 505 7zM1156 1707l-205 -174q-44 14 -67 17q-22 3 -92 3h-500l194 154q236 -6 315 -6q55 0 355 6z " />
<glyph unicode="&#x113;" horiz-adv-x="838" d="M781 203l8 -10q-155 -124 -197 -151q-95 -63 -171 -63q-59 0 -125 31t-118 83q-118 119 -118 277q0 94 50.5 193.5t140.5 182.5t202 132q79 35 146 35q87 0 164 -55q70 -50 70 -113q0 -73 -102 -145q-119 -84 -311 -170l-5 14q77 47 113 85q42 43 42 93q0 46 -36 83 q-55 55 -131 55q-66 0 -104 -58q-35 -53 -35 -125q0 -81 35.5 -162t98.5 -144q109 -109 244 -109q75 0 139 41zM841 1263l-148 -157q-32 12 -48 15t-66 3h-419l140 139q126 -3 161 -4q98 -2 130 -2q39 0 250 6z" />
<glyph unicode="&#x114;" horiz-adv-x="1147" d="M1120 824l-267 -226q-56 17 -87 22q-31 4 -119 4h-275q16 -84 42 -135.5t78 -103.5q83 -83 196.5 -128.5t237.5 -45.5q68 0 179 20q-145 -139 -214 -182q-80 -51 -187 -51q-170 0 -317 103q-132 92 -207 224q-69 119 -69 271v28h-220l252 200q50 121 113 195 q138 159 320 261q160 89 328 89q121 0 189 -44q54 -34 54 -67t-87 -74l-188 -88q-19 52 -68.5 79.5t-125.5 27.5q-150 0 -244 -114q-71 -87 -87 -265q133 -7 268 -7q124 0 505 7zM322 1805l32 19q147 -165 316 -165t315 165l32 -19q-59 -129 -103 -186q-104 -135 -244 -135 q-99 0 -178 65q-55 45 -103 124q-24 41 -67 132z" />
<glyph unicode="&#x115;" horiz-adv-x="838" d="M781 203l8 -10q-155 -124 -197 -151q-95 -63 -171 -63q-59 0 -125 31t-118 83q-118 119 -118 277q0 94 50.5 193.5t140.5 182.5t202 132q79 35 146 35q87 0 164 -55q70 -50 70 -113q0 -73 -102 -145q-119 -84 -311 -170l-5 14q77 47 113 85q42 43 42 93q0 46 -36 83 q-55 55 -131 55q-66 0 -104 -58q-35 -53 -35 -125q0 -81 35.5 -162t98.5 -144q109 -109 244 -109q75 0 139 41zM746 1321l26 -12q-49 -119 -91 -173q-95 -122 -221 -122q-89 0 -160 58q-54 44 -94 112q-23 40 -58 125l27 12q69 -87 125 -118q58 -32 160 -32t160 32 q56 31 126 118z" />
<glyph unicode="&#x116;" horiz-adv-x="1147" d="M1120 824l-267 -226q-56 17 -87 22q-31 4 -119 4h-275q16 -84 42 -135.5t78 -103.5q83 -83 196.5 -128.5t237.5 -45.5q68 0 179 20q-145 -139 -214 -182q-80 -51 -187 -51q-170 0 -317 103q-132 92 -207 224q-69 119 -69 271v28h-220l252 200q50 121 113 195 q138 159 320 261q160 89 328 89q121 0 189 -44q54 -34 54 -67t-87 -74l-188 -88q-19 52 -68.5 79.5t-125.5 27.5q-150 0 -244 -114q-71 -87 -87 -265q133 -7 268 -7q124 0 505 7zM542 1627l244 161q34 -52 59 -86q35 -44 88 -82l-72 -43q-106 -65 -165 -65q-56 0 -101 34 q-27 21 -53 81z" />
<glyph unicode="&#x117;" horiz-adv-x="838" d="M781 203l8 -10q-155 -124 -197 -151q-95 -63 -171 -63q-59 0 -125 31t-118 83q-118 119 -118 277q0 94 50.5 193.5t140.5 182.5t202 132q79 35 146 35q87 0 164 -55q70 -50 70 -113q0 -73 -102 -145q-119 -84 -311 -170l-5 14q77 47 113 85q42 43 42 93q0 46 -36 83 q-55 55 -131 55q-66 0 -104 -58q-35 -53 -35 -125q0 -81 35.5 -162t98.5 -144q109 -109 244 -109q75 0 139 41zM697 1181l-43 -45q-58 -60 -125 -60q-56 0 -95 33q-24 20 -47 72l183 132q39 -73 127 -132z" />
<glyph unicode="&#x118;" horiz-adv-x="1147" d="M347 824q133 -7 268 -7q124 0 505 7l-267 -226q-56 17 -87 22q-31 4 -119 4h-275q16 -84 42 -135.5t78 -103.5q83 -83 196.5 -128.5t237.5 -45.5q68 0 179 20q-73 -69 -117 -109q-98 -89 -129 -137q-39 -62 -39 -127q0 -157 186 -157q29 0 77 8q-62 -73 -91 -95 q-34 -27 -81 -27q-78 0 -143 59q-77 70 -77 161q0 115 130 207q-51 -16 -108 -16q-180 0 -326 102q-132 94 -207 225q-69 119 -69 271v28h-220l252 200q50 121 113 195q138 159 320 261q160 89 328 89q121 0 189 -44q54 -34 54 -67t-87 -74l-188 -88q-19 52 -68.5 79.5 t-125.5 27.5q-150 0 -244 -114q-71 -87 -87 -265z" />
<glyph unicode="&#x119;" horiz-adv-x="838" d="M781 203l8 -10q-94 -77 -124 -99q-88 -65 -109 -88q-53 -56 -53 -127q0 -85 54 -124q37 -25 115 -25q26 0 68 7q-56 -65 -82 -85q-30 -24 -73 -24q-107 0 -165 90q-33 50 -33 113q0 83 59 149q-18 -1 -26 -1q-59 0 -125 31t-117 83q-118 119 -118 276q0 95 50.5 194.5 t140.5 182.5t202 132q79 35 146 35q87 0 164 -55q70 -50 70 -113q0 -73 -102 -145q-119 -84 -311 -170l-5 14q77 47 113 85q42 43 42 93q0 46 -36 83q-55 55 -131 55q-66 0 -104 -58q-35 -53 -35 -125q0 -81 35.5 -162t98.5 -144q109 -109 244 -109q75 0 139 41z" />
<glyph unicode="&#x11a;" horiz-adv-x="1147" d="M1120 824l-267 -226q-56 17 -87 22q-31 4 -119 4h-275q16 -84 42 -135.5t78 -103.5q83 -83 196.5 -128.5t237.5 -45.5q68 0 179 20q-145 -139 -214 -182q-80 -51 -187 -51q-170 0 -317 103q-132 92 -207 224q-69 119 -69 271v28h-220l252 200q50 121 113 195 q138 159 320 261q160 89 328 89q121 0 189 -44q54 -34 54 -67t-87 -74l-188 -88q-19 52 -68.5 79.5t-125.5 27.5q-150 0 -244 -114q-71 -87 -87 -265q133 -7 268 -7q124 0 505 7zM585 1852q87 -108 127 -138q44 -33 91 -33q88 0 240 141l33 -27q-58 -64 -195 -202 q-61 -63 -104 -91q-26 -17 -58 -17q-70 0 -186 100q-42 36 -136 136z" />
<glyph unicode="&#x11b;" horiz-adv-x="838" d="M781 203l8 -10q-155 -124 -197 -151q-95 -63 -171 -63q-59 0 -125 31t-118 83q-118 119 -118 277q0 94 50.5 193.5t140.5 182.5t202 132q79 35 146 35q87 0 164 -55q70 -50 70 -113q0 -73 -102 -145q-119 -84 -311 -170l-5 14q77 47 113 85q42 43 42 93q0 46 -36 83 q-55 55 -131 55q-66 0 -104 -58q-35 -53 -35 -125q0 -81 35.5 -162t98.5 -144q109 -109 244 -109q75 0 139 41zM327 1339q28 -24 38 -34q56 -54 87 -80q49 -41 98 -41q80 0 223 150l37 -33q-102 -111 -188 -215q-73 -88 -132 -88q-56 0 -109 36q-56 38 -211 181z" />
<glyph unicode="&#x11c;" horiz-adv-x="1274" d="M799 656q36 24 73 50q133 92 197 92q66 0 122 -68q62 -76 62 -168q0 -190 -249 -385q-111 -88 -216 -135.5t-185 -47.5q-144 0 -285 107q-128 97 -204 255q-73 153 -73 309q0 267 234 474q254 224 567 224q113 0 181 -27q83 -34 83 -76q0 -31 -71 -74l-163 -97 q-49 67 -114.5 102.5t-140.5 35.5q-125 0 -209 -92q-91 -99 -91 -302q0 -114 35 -231.5t93 -200.5q66 -93 168 -157q119 -74 239 -74q81 0 122 55q47 62 47 151q0 86 -75 179q-38 47 -76 70q-22 13 -71 31zM814 1485q-87 108 -126 138q-45 33 -91 33q-89 0 -241 -140l-33 26 q58 64 195 202q62 63 105 91q26 17 57 17q70 0 186 -99q42 -37 136 -137z" />
<glyph unicode="&#x11d;" horiz-adv-x="1104" d="M1131 903l-151 -156q-25 -1 -35 -1l-79 1h-30q15 -36 15 -62q0 -63 -54 -125t-158 -120l-7 14q40 24 40 69q0 104 -89 183q-51 45 -123 45q-86 0 -134 -57q-38 -44 -38 -112q0 -89 62 -132q61 -41 282 -94q150 -36 234 -62q95 -30 148 -96q29 -38 29 -87 q0 -215 -376 -418q-147 -79 -278 -116q-77 -22 -174 -22q-238 0 -238 101q0 45 45 88q40 39 231 185l12 -11q-32 -48 -32 -83q0 -73 84 -110q60 -26 127 -26q151 0 271 95q79 63 79 152q0 119 -132 169q-65 25 -189 48q-165 30 -232 47q-81 20 -139 80q-49 50 -49 120 q0 78 65 155q49 57 183 170q138 116 202 151q73 40 130 40q26 0 71 -9q98 -19 192 -19q92 0 235 5zM759 1012q-29 26 -37 35q-58 55 -88 80q-48 41 -98 41q-79 0 -222 -150l-38 32q103 112 189 216q73 88 132 88q56 0 108 -36q55 -38 211 -182z" />
<glyph unicode="&#x11e;" horiz-adv-x="1274" d="M799 656q36 24 73 50q133 92 197 92q66 0 122 -68q62 -76 62 -168q0 -190 -249 -385q-111 -88 -216 -135.5t-185 -47.5q-144 0 -285 107q-128 97 -204 255q-73 153 -73 309q0 267 234 474q254 224 567 224q113 0 181 -27q83 -34 83 -76q0 -31 -71 -74l-163 -97 q-49 67 -114.5 102.5t-140.5 35.5q-125 0 -209 -92q-91 -99 -91 -302q0 -114 35 -231.5t93 -200.5q66 -93 168 -157q119 -74 239 -74q81 0 122 55q47 62 47 151q0 86 -75 179q-38 47 -76 70q-22 13 -71 31zM317 1804l32 20q146 -165 315 -165q170 0 316 165l32 -20 q-60 -128 -103 -185q-105 -135 -245 -135q-99 0 -177 65q-56 45 -103 124q-25 41 -67 131z" />
<glyph unicode="&#x11f;" horiz-adv-x="1104" d="M1131 903l-151 -156q-25 -1 -35 -1l-79 1h-30q15 -36 15 -62q0 -63 -54 -125t-158 -120l-7 14q40 24 40 69q0 104 -89 183q-51 45 -123 45q-86 0 -134 -57q-38 -44 -38 -112q0 -89 62 -132q61 -41 282 -94q150 -36 234 -62q95 -30 148 -96q29 -38 29 -87 q0 -215 -376 -418q-147 -79 -278 -116q-77 -22 -174 -22q-238 0 -238 101q0 45 45 88q40 39 231 185l12 -11q-32 -48 -32 -83q0 -73 84 -110q60 -26 127 -26q151 0 271 95q79 63 79 152q0 119 -132 169q-65 25 -189 48q-165 30 -232 47q-81 20 -139 80q-49 50 -49 120 q0 78 65 155q49 57 183 170q138 116 202 151q73 40 130 40q26 0 71 -9q98 -19 192 -19q92 0 235 5zM865 1321l26 -12q-49 -119 -91 -173q-95 -122 -221 -122q-89 0 -160 58q-54 44 -94 112q-23 40 -58 125l27 12q69 -87 125 -118q58 -32 160 -32t160 32q56 31 126 118z" />
<glyph unicode="&#x120;" horiz-adv-x="1274" d="M799 656q36 24 73 50q133 92 197 92q66 0 122 -68q62 -76 62 -168q0 -190 -249 -385q-111 -88 -216 -135.5t-185 -47.5q-144 0 -285 107q-128 97 -204 255q-73 153 -73 309q0 267 234 474q254 224 567 224q113 0 181 -27q83 -34 83 -76q0 -31 -71 -74l-163 -97 q-49 67 -114.5 102.5t-140.5 35.5q-125 0 -209 -92q-91 -99 -91 -302q0 -114 35 -231.5t93 -200.5q66 -93 168 -157q119 -74 239 -74q81 0 122 55q47 62 47 151q0 86 -75 179q-38 47 -76 70q-22 13 -71 31zM469 1627l244 161q33 -52 59 -86q35 -44 88 -82l-72 -43 q-106 -65 -166 -65q-55 0 -100 34q-27 21 -53 81z" />
<glyph unicode="&#x121;" horiz-adv-x="1104" d="M1131 903l-151 -156q-25 -1 -35 -1l-79 1h-30q15 -36 15 -62q0 -63 -54 -125t-158 -120l-7 14q40 24 40 69q0 104 -89 183q-51 45 -123 45q-86 0 -134 -57q-38 -44 -38 -112q0 -89 62 -132q61 -41 282 -94q150 -36 234 -62q95 -30 148 -96q29 -38 29 -87 q0 -215 -376 -418q-147 -79 -278 -116q-77 -22 -174 -22q-238 0 -238 101q0 45 45 88q40 39 231 185l12 -11q-32 -48 -32 -83q0 -73 84 -110q60 -26 127 -26q151 0 271 95q79 63 79 152q0 119 -132 169q-65 25 -189 48q-165 30 -232 47q-81 20 -139 80q-49 50 -49 120 q0 78 65 155q49 57 183 170q138 116 202 151q73 40 130 40q26 0 71 -9q98 -19 192 -19q92 0 235 5zM734 1181l-43 -45q-58 -60 -125 -60q-56 0 -95 33q-23 20 -47 72l183 132q39 -73 127 -132z" />
<glyph unicode="&#x122;" horiz-adv-x="1274" d="M799 656q36 24 73 50q133 92 197 92q66 0 122 -68q62 -76 62 -168q0 -190 -249 -385q-111 -88 -216 -135.5t-185 -47.5q-144 0 -285 107q-128 97 -204 255q-73 153 -73 309q0 267 234 474q254 224 567 224q113 0 181 -27q83 -34 83 -76q0 -31 -71 -74l-163 -97 q-49 67 -114.5 102.5t-140.5 35.5q-125 0 -209 -92q-91 -99 -91 -302q0 -114 35 -231.5t93 -200.5q66 -93 168 -157q119 -74 239 -74q81 0 122 55q47 62 47 151q0 86 -75 179q-38 47 -76 70q-22 13 -71 31zM485 -216l174 120l43 -42q87 -83 87 -137q0 -86 -255 -223l-6 10 q75 79 75 124q0 37 -39 78q-25 28 -79 70z" />
<glyph unicode="&#x123;" horiz-adv-x="1104" d="M1131 903l-151 -156q-25 -1 -35 -1l-79 1h-30q15 -36 15 -62q0 -63 -54 -125t-158 -120l-7 14q40 24 40 69q0 104 -89 183q-51 45 -123 45q-86 0 -134 -57q-38 -44 -38 -112q0 -89 62 -132q61 -41 282 -94q150 -36 234 -62q95 -30 148 -96q29 -38 29 -87 q0 -215 -376 -418q-147 -79 -278 -116q-77 -22 -174 -22q-238 0 -238 101q0 45 45 88q40 39 231 185l12 -11q-32 -48 -32 -83q0 -73 84 -110q60 -26 127 -26q151 0 271 95q79 63 79 152q0 119 -132 169q-65 25 -189 48q-165 30 -232 47q-81 20 -139 80q-49 50 -49 120 q0 78 65 155q49 57 183 170q138 116 202 151q73 40 130 40q26 0 71 -9q98 -19 192 -19q92 0 235 5zM757 1137l-157 -107l-39 37q-78 75 -78 124q0 77 229 201l5 -9q-67 -71 -67 -111q0 -34 35 -71q22 -24 72 -64z" />
<glyph unicode="&#x124;" horiz-adv-x="1471" d="M1069 632h-619v-65l-1 -257v-154l-253 -173q19 204 19 411q0 45 -3 238h-254l252 190l-1 35q-3 189 -17 240q-18 63 -55 63q-16 0 -58 -24l-13 23l218 154l58 42q26 17 53 17q40 0 51 -45q5 -18 5 -67v-302l-1 -68v-68h616v35q-4 191 -18 240q-17 63 -54 63 q-16 0 -51 -20l-15 23l213 156q72 53 111 53q40 0 51 -45q5 -18 5 -65l-1 -303v-365l-2 -284v-154l-252 -173q19 202 19 406q0 59 -3 243zM886 1485q-87 108 -126 138q-45 33 -92 33q-88 0 -240 -140l-33 26q58 64 195 202q61 63 105 91q26 17 57 17q70 0 186 -99 q42 -37 136 -137z" />
<glyph unicode="&#x126;" horiz-adv-x="1471" d="M207 959h-218l153 109h56q-17 92 -61 92q-16 0 -58 -24l-13 23l218 154l58 42q26 17 53 17q40 0 51 -45q5 -18 5 -66v-101v-92h604q-17 92 -61 92q-16 0 -51 -20l-15 23l213 156q72 53 111 53q40 0 51 -45q5 -18 5 -64l-1 -103v-92h90v-109h-90v-183v-182l-2 -284v-154 l-252 -173q19 206 19 406q0 59 -3 243h-619v-65l-1 -257v-154l-253 -173q19 204 19 410q0 46 -3 239h-254l252 190l-1 35q-1 79 -2 102zM451 959v-35q-1 -50 -1 -102h616v35q-2 79 -3 102h-612z" />
<glyph unicode="&#x127;" horiz-adv-x="1165" d="M-17 1038v68h194q-5 59 -9 91q-8 63 -32 86q-22 20 -73 20q-23 0 -59 -9l-5 12l231 144q36 22 65 39q39 21 73 21q56 0 56 -99q0 -7 -3 -176l-3 -129h521v-68h-523v-45l-1 -44q-20 -439 -24 -556q158 216 294 357q160 165 237 165q75 0 101 -149q6 -38 50 -540l10 -113 q-93 -53 -223 -139q-14 311 -38 443q-22 119 -52 156q-23 30 -57 30q-81 0 -222 -147q-127 -131 -231 -308q-29 -48 -84 -148h-21q28 441 28 891q0 82 -2 147h-198z" />
<glyph unicode="&#x12a;" horiz-adv-x="594" d="M439 156l-273 -173q19 195 19 525q0 506 -23 589q-18 63 -54 63q-16 0 -52 -20l-15 23l234 156q79 53 111 53q40 0 51 -45q5 -18 5 -65l-1 -304v-365l-2 -283v-154zM640 1707l-185 -174q-40 14 -60 17t-83 3h-327l175 154q98 -3 273 -6l135 -3q44 0 72 9z" />
<glyph unicode="&#x12b;" horiz-adv-x="536" d="M7 700l-7 13l211 129q34 21 71 45q43 28 75 28q60 0 55 -125q-1 -14 0 -62q0 -45 -8 -252q-4 -102 -4 -189q0 -55 2 -166q-127 -70 -254 -155q7 97 14.5 303t7.5 277q0 170 -102 170q-24 0 -61 -16zM544 1263l-120 -157q-26 12 -39 15t-53 3h-340l113 139q99 -3 131 -4 q79 -2 105 -2q32 0 203 6z" />
<glyph unicode="&#x12d;" horiz-adv-x="536" d="M7 700l-7 13l211 129q33 21 71 45q43 28 75 28q60 0 55 -125v-62q0 -41 -8 -252q-4 -100 -4 -191q0 -53 2 -164q-127 -70 -254 -155q7 99 14.5 301t7.5 279q0 170 -101 170q-25 0 -62 -16zM525 1321l24 -12q-44 -119 -82 -173q-86 -122 -199 -122q-81 0 -145 58 q-47 44 -84 113q-20 39 -52 124l24 12q62 -87 113 -118q53 -32 144 -32q92 0 144 32q51 31 113 118z" />
<glyph unicode="&#x12e;" horiz-adv-x="594" d="M546 -292q-62 -72 -91 -94q-34 -27 -81 -27q-77 0 -143 59q-77 69 -77 167q0 109 79 213l-67 -43q18 195 18 524q0 508 -23 590q-17 63 -54 63q-15 0 -51 -20l-15 23l233 156q80 53 111 53q40 0 51 -45q5 -18 5 -65l-1 -304v-365l-1 -283v-155q-35 -43 -46 -56 q-62 -75 -80 -113q-30 -63 -30 -124q0 -81 46.5 -121t140.5 -40q30 0 76 7z" />
<glyph unicode="&#x12f;" horiz-adv-x="523" d="M396 121l-115 -96q-82 -70 -82 -149q0 -146 169 -146q26 0 68 7q-56 -65 -82 -85q-31 -24 -73 -24q-107 0 -166 90q-32 50 -32 109q0 79 59 139q6 97 13.5 302t7.5 278q0 170 -101 170q-25 0 -62 -16l-7 13l211 129q32 20 71 45q43 28 75 28q60 0 55 -124v-63 q0 -43 -8 -252q-4 -101 -4 -187q0 -55 3 -168zM133 1105l213 136q62 -102 136 -130l-95 -59q-81 -51 -126 -51q-48 0 -88 45q-15 17 -40 59z" />
<glyph unicode="&#x130;" horiz-adv-x="594" d="M439 156l-273 -173q18 195 18 525q0 507 -23 589q-17 63 -54 63q-15 0 -51 -20l-15 23l233 156q80 53 111 53q40 0 51 -45q5 -18 5 -65l-1 -304v-365l-1 -283v-154zM122 1627l244 161q34 -52 59 -86q35 -44 88 -82l-72 -43q-106 -65 -165 -65q-56 0 -101 34 q-27 21 -53 81z" />
<glyph unicode="&#x131;" horiz-adv-x="536" d="M7 700l-7 13l211 129q32 20 71 45q43 28 75 28q60 0 55 -124v-63q0 -43 -8 -252q-4 -101 -4 -187q0 -55 3 -168q-128 -70 -254 -155q6 97 13.5 302t7.5 278q0 170 -101 170q-25 0 -62 -16z" />
<glyph unicode="&#x132;" horiz-adv-x="1100" d="M398 156l-273 -173q18 195 18 525q0 507 -23 589q-17 63 -54 63q-15 0 -51 -20l-15 23l233 156q80 53 111 53q40 0 51 -45q5 -18 5 -65l-1 -304v-365l-1 -283v-154zM932 -98q-184 -135 -376 -308l-14 16q45 43 67 86q42 84 64 240q25 180 25 657q0 436 -19 503 q-21 76 -64 76q-15 0 -51 -17l-10 20l232 144q86 53 118 53q46 0 46 -75q0 -61 -4 -185q-2 -57 -8.5 -526t-6.5 -534q0 -52 1 -150z" />
<glyph unicode="&#x133;" horiz-adv-x="1067" d="M140 1105l213 136q62 -102 136 -130l-95 -59q-81 -51 -126 -51q-48 0 -88 45q-15 17 -40 59zM7 700l-7 13l211 129q32 20 71 45q43 28 75 28q60 0 55 -124v-63q0 -43 -8 -252q-4 -101 -4 -187q0 -55 3 -168q-128 -70 -254 -155q6 97 13.5 302t7.5 278q0 170 -101 170 q-25 0 -62 -16zM543 698l-7 12l230 153q93 62 130 62q31 0 39 -40q5 -26 5 -263q0 -258 -4 -487q-4 -292 -4 -361q0 -49 1 -151q-150 -84 -234 -146q17 610 17 695q0 292 -18 429q-16 115 -88 115q-28 0 -67 -18zM667 1105l213 136q61 -102 135 -130l-94 -59 q-82 -51 -126 -51q-48 0 -88 45q-15 17 -40 59z" />
<glyph unicode="&#x136;" horiz-adv-x="1208" d="M738 1205l245 161q47 -24 137 -71q80 -41 80 -83q0 -31 -65 -91q-17 -16 -161 -129q-142 -112 -236 -184q98 -133 325 -459q102 -143 132 -166q18 -17 54 -19v-29l-89 -65q-104 -77 -153 -77q-34 0 -83 67q-53 71 -134 199l-288 446q112 77 216 163q172 143 172 206 q0 73 -152 131zM439 156l-273 -173q18 195 18 525q0 507 -23 589q-17 63 -54 63q-16 0 -51 -20l-15 23l233 156q80 53 111 53q40 0 51 -45q5 -18 5 -65l-1 -304v-365l-1 -283v-154zM493 -216l174 120l43 -42q87 -83 87 -137q0 -86 -255 -223l-6 10q75 79 75 124q0 37 -39 78 q-25 28 -79 70z" />
<glyph unicode="&#x137;" horiz-adv-x="1119" d="M0 1300l-4 9l172 108q85 54 106 66q49 26 76 26q40 0 47 -58q4 -27 4 -73q0 -31 -12 -395q-11 -609 -11 -677q0 -47 2 -163q-69 -51 -130 -89q-70 -43 -130 -81q29 323 36 531q5 152 5 380q0 311 -11 359q-16 75 -75 75q-27 0 -75 -18zM586 801l217 140q69 -22 97 -37 q81 -42 81 -92q0 -48 -120 -129q-88 -60 -178 -122q87 -102 247 -301q90 -111 148 -111q14 0 39 12l9 -11q-41 -33 -83 -68q-57 -46 -102 -76q-38 -26 -73 -26q-27 0 -48 21q-15 16 -57 73l-294 392q241 122 241 231q0 44 -59 76q-15 8 -65 28zM423 -204l157 108l39 -38 q78 -75 78 -123q0 -78 -229 -202l-6 10q68 71 68 111q0 34 -35 71q-23 24 -72 63z" />
<glyph unicode="&#x138;" horiz-adv-x="1119" d="M3 700l-7 13l211 129q32 20 71 45q43 28 75 28q60 0 55 -124v-63q0 -43 -8 -252q-4 -101 -4 -187q0 -55 3 -168q-128 -70 -254 -155q6 97 13.5 302t7.5 278q0 170 -101 170q-25 0 -62 -16zM586 801l217 140q69 -22 97 -37q81 -42 81 -92q0 -48 -120 -129 q-88 -60 -178 -122q87 -102 247 -301q90 -111 148 -111q14 0 39 12l9 -11q-41 -33 -83 -68q-57 -46 -102 -76q-38 -26 -73 -26q-27 0 -48 21q-15 16 -57 73l-294 392q241 122 241 231q0 44 -59 76q-15 8 -65 28z" />
<glyph unicode="&#x139;" horiz-adv-x="935" d="M410 205h606q-65 -64 -83 -86q-90 -98 -126 -126q-180 14 -363 14q-167 0 -284 -14q18 341 18 691q0 268 -6 323q-9 74 -31 99q-19 22 -49 22q-22 0 -50 -18l-13 23l225 136q50 30 67 42q42 28 71 28q49 0 49 -117q0 -29 -2 -94q-7 -190 -23 -738zM392 1870l194 -124 q-30 -49 -85 -121q-115 -150 -165 -150q-28 0 -193 80q84 44 249 315z" />
<glyph unicode="&#x13a;" horiz-adv-x="514" d="M4 1300l-4 9l172 108q85 54 106 66q49 26 76 26q40 0 47 -58q4 -27 4 -73q0 -31 -12 -395q-11 -609 -11 -677q0 -47 2 -163q-69 -51 -130 -89q-70 -43 -130 -81q29 323 36 531q5 152 5 380q0 311 -11 359q-16 75 -75 75q-27 0 -75 -18zM282 1877l174 -111 q-26 -44 -76 -109q-103 -135 -149 -135q-25 0 -173 72q76 39 224 283z" />
<glyph unicode="&#x13b;" horiz-adv-x="935" d="M410 205h606q-65 -64 -83 -86q-90 -98 -126 -126q-180 14 -363 14q-167 0 -284 -14q18 341 18 691q0 268 -6 323q-9 74 -31 99q-19 22 -49 22q-22 0 -50 -18l-13 23l225 136q50 30 67 42q42 28 71 28q49 0 49 -117q0 -29 -2 -94q-7 -190 -23 -738zM336 -216l174 120 l43 -42q87 -83 87 -137q0 -86 -255 -223l-6 10q75 79 75 124q0 37 -39 78q-25 28 -79 70z" />
<glyph unicode="&#x13c;" horiz-adv-x="514" d="M4 1300l-4 9l172 108q85 54 106 66q49 26 76 26q40 0 47 -58q4 -27 4 -73q0 -31 -12 -395q-11 -609 -11 -677q0 -47 2 -163q-69 -51 -130 -89q-70 -43 -130 -81q29 323 36 531q5 152 5 380q0 311 -11 359q-16 75 -75 75q-27 0 -75 -18zM120 -204l157 108l39 -38 q78 -75 78 -123q0 -78 -229 -202l-6 10q68 71 68 111q0 34 -35 71q-23 24 -72 63z" />
<glyph unicode="&#x13d;" horiz-adv-x="962" d="M410 205h606q-65 -64 -83 -86q-90 -98 -126 -126q-180 14 -363 14q-167 0 -284 -14q18 341 18 691q0 268 -6 323q-9 74 -31 99q-19 22 -49 22q-22 0 -50 -18l-13 23l225 136q50 30 67 42q42 28 71 28q49 0 49 -117q0 -29 -2 -94q-7 -190 -23 -738zM595 1273l174 119 l43 -41q87 -84 87 -137q0 -86 -255 -223l-6 10q75 79 75 123q0 38 -39 79q-25 27 -79 70z" />
<glyph unicode="&#x13e;" horiz-adv-x="705" d="M4 1300l-4 9l172 108q85 54 106 66q49 26 76 26q40 0 47 -58q4 -27 4 -73q0 -31 -12 -395q-11 -609 -11 -677q0 -47 2 -163q-69 -51 -130 -89q-70 -43 -130 -81q29 323 36 531q5 152 5 380q0 311 -11 359q-16 75 -75 75q-27 0 -75 -18zM461 1422l157 107l39 -37 q78 -75 78 -124q0 -77 -229 -201l-6 9q68 72 68 111q0 34 -35 71q-23 24 -72 64z" />
<glyph unicode="&#x13f;" horiz-adv-x="935" d="M410 205h606q-65 -64 -83 -86q-90 -98 -126 -126q-180 14 -363 14q-167 0 -284 -14q18 341 18 691q0 268 -6 323q-9 74 -31 99q-19 22 -49 22q-22 0 -50 -18l-13 23l225 136q50 30 67 42q42 28 71 28q49 0 49 -117q0 -29 -2 -94q-7 -190 -23 -738zM783 809 q27 -73 64 -122q28 -34 89 -89l-153 -105q-54 -37 -85 -37q-38 0 -72 37q-59 65 -59 138q0 42 27 68q12 12 50 33z" />
<glyph unicode="&#x140;" horiz-adv-x="790" d="M4 1300l-4 9l172 108q85 54 106 66q49 26 76 26q40 0 47 -58q4 -27 4 -73q0 -31 -12 -395q-11 -609 -11 -677q0 -47 2 -163q-69 -51 -130 -89q-70 -43 -130 -81q29 323 36 531q5 152 5 380q0 311 -11 359q-16 75 -75 75q-27 0 -75 -18zM706 911q22 -61 54 -101 q23 -29 74 -75l-128 -87q-45 -31 -70 -31q-32 0 -60 31q-49 53 -49 115q0 35 22 56q11 11 42 28z" />
<glyph unicode="&#x141;" horiz-adv-x="935" d="M171 323l-93 -102q-1 126 -13 246l112 109q1 12 1 28q0 351 -6 403q-8 74 -31 99q-19 22 -49 22q-22 0 -50 -18l-13 23l225 136q50 30 67 42q42 28 71 28q49 0 49 -117q0 -30 -2 -94q-8 -213 -11 -311l205 229q-2 -60 -2 -90q0 -14 6 -165l-215 -214l-3 -93l-3 -94 l-6 -185h606q-65 -64 -83 -86q-90 -98 -126 -126q-180 14 -363 14q-167 0 -284 -14q8 136 11 330z" />
<glyph unicode="&#x142;" horiz-adv-x="555" d="M182 436l-164 -172q-1 120 -13 235l184 171v181l1 181q0 148 -7 193q-14 93 -78 93q-28 0 -76 -18l-4 9l172 108q84 54 105 66q49 26 77 26q40 0 47 -58q4 -29 4 -76q0 -24 -12 -392q-1 -13 -2 -84l157 168q-2 -61 -2 -86q0 -16 6 -159l-165 -156l-1 -28q-4 -244 -4 -320 q0 -54 2 -175q-69 -51 -130 -89q-70 -43 -130 -81q27 299 33 463z" />
<glyph unicode="&#x143;" horiz-adv-x="1540" d="M1123 1212l266 169q-20 -326 -31 -646q-11 -304 -16 -352q-8 -115 -8 -160q0 -28 4 -95l-206 -129q-13 67 -35 109q-70 139 -220 311.5t-430 437.5q-15 -207 -15 -392q0 -147 15 -280l-281 -186q23 188 36 372q8 139 38 662q-74 60 -117 91q-105 76 -161 76q-9 0 -36 -6 l-11 20l145 100q97 66 137 66q50 0 207 -135q96 -82 252 -233.5t248 -249.5q97 -106 247 -282q8 241 8 370q0 206 -36 362zM798 1870l194 -124q-30 -49 -85 -121q-115 -150 -165 -150q-28 0 -193 80q84 44 249 315z" />
<glyph unicode="&#x144;" horiz-adv-x="1208" d="M14 715l-7 10l212 140q31 20 49 33q55 37 83 37q47 0 62 -93q4 -31 16 -315l5 -119q378 507 517 507q58 0 84 -96q15 -53 40 -265q29 -246 43 -448q-90 -44 -226 -129q1 33 1 53q0 134 -19 271t-48 221q-12 33 -36.5 54t-52.5 21q-59 0 -130 -59t-165 -187 q-120 -162 -223 -358h-25q2 104 2 154q0 353 -22 473q-22 115 -93 115q-28 0 -67 -20zM650 1396l204 -119q-70 -110 -135 -187q-70 -84 -124 -84q-24 0 -89 33q-76 39 -97 49q70 68 131.5 147t109.5 161z" />
<glyph unicode="&#x145;" horiz-adv-x="1540" d="M1123 1212l266 169q-20 -326 -31 -646q-11 -304 -16 -352q-8 -115 -8 -160q0 -28 4 -95l-206 -129q-13 67 -35 109q-70 139 -220 311.5t-430 437.5q-15 -207 -15 -392q0 -147 15 -280l-281 -186q23 188 36 372q8 139 38 662q-74 60 -117 91q-105 76 -161 76q-9 0 -36 -6 l-11 20l145 100q97 66 137 66q50 0 207 -135q96 -82 252 -233.5t248 -249.5q97 -106 247 -282q8 241 8 370q0 206 -36 362zM618 -216l174 120l43 -42q87 -83 87 -137q0 -86 -255 -223l-6 10q75 79 75 124q0 37 -39 78q-25 28 -79 70z" />
<glyph unicode="&#x146;" horiz-adv-x="1208" d="M14 715l-7 10l212 140q31 20 49 33q55 37 83 37q47 0 62 -93q4 -31 16 -315l5 -119q378 507 517 507q58 0 84 -96q15 -53 40 -265q29 -246 43 -448q-90 -44 -226 -129q1 33 1 53q0 134 -19 271t-48 221q-12 33 -36.5 54t-52.5 21q-59 0 -130 -59t-165 -187 q-120 -162 -223 -358h-25q2 104 2 154q0 353 -22 473q-22 115 -93 115q-28 0 -67 -20zM467 -204l157 108l39 -38q78 -75 78 -123q0 -78 -229 -202l-6 10q68 71 68 111q0 34 -35 71q-23 24 -72 63z" />
<glyph unicode="&#x147;" horiz-adv-x="1540" d="M1123 1212l266 169q-20 -326 -31 -646q-11 -304 -16 -352q-8 -115 -8 -160q0 -28 4 -95l-206 -129q-13 67 -35 109q-70 139 -220 311.5t-430 437.5q-15 -207 -15 -392q0 -147 15 -280l-281 -186q23 188 36 372q8 139 38 662q-74 60 -117 91q-105 76 -161 76q-9 0 -36 -6 l-11 20l145 100q97 66 137 66q50 0 207 -135q96 -82 252 -233.5t248 -249.5q97 -106 247 -282q8 241 8 370q0 206 -36 362zM617 1852q87 -108 127 -138q44 -33 91 -33q88 0 240 141l33 -27q-58 -64 -195 -202q-61 -63 -104 -91q-26 -17 -58 -17q-70 0 -186 100 q-42 36 -136 136z" />
<glyph unicode="&#x148;" horiz-adv-x="1208" d="M14 715l-7 10l212 140q31 20 49 33q55 37 83 37q47 0 62 -93q4 -31 16 -315l5 -119q378 507 517 507q58 0 84 -96q15 -53 40 -265q29 -246 43 -448q-90 -44 -226 -129q1 33 1 53q0 134 -19 271t-48 221q-12 33 -36.5 54t-52.5 21q-59 0 -130 -59t-165 -187 q-120 -162 -223 -358h-25q2 104 2 154q0 353 -22 473q-22 115 -93 115q-28 0 -67 -20zM444 1339q28 -24 38 -34q56 -54 87 -80q49 -41 98 -41q80 0 223 150l37 -33q-102 -111 -188 -215q-73 -88 -132 -88q-56 0 -109 36q-56 38 -211 181z" />
<glyph unicode="&#x149;" horiz-adv-x="1408" d="M405 1433q-37 -128 -53 -185q-38 -137 -85 -182q-99 -100 -267 -161q98 221 134 365q60 4 271 163zM214 715l-7 10l212 140q79 52 96 61t39 9q44 0 59 -93q5 -31 16 -315l5 -119q378 507 519 507q31 0 55 -33.5t34 -91.5q48 -278 76 -684q-89 -44 -225 -129v47 q0 137 -18.5 275.5t-48.5 222.5q-12 33 -36.5 54t-52.5 21q-59 0 -130 -59t-165 -187q-120 -162 -223 -358h-24q1 99 1 148q0 359 -22 479q-22 115 -93 115q-28 0 -67 -20z" />
<glyph unicode="&#x14a;" horiz-adv-x="1452" d="M425 646l67 95q200 285 347 439q183 192 269 192q61 0 91 -73q62 -157 84 -525q8 -140 8 -513v-268v-91q-183 -135 -376 -308l-14 16q59 56 84 123q60 165 60 432q0 411 -8 540q-7 121 -44 178q-48 72 -126 72q-178 0 -442 -437v-104l-1 -104v-44v-111l-253 -172 q20 201 20 412q0 48 -4 312q-4 283 -12 349q-11 104 -62 104q-17 0 -59 -24l-13 23l218 154l58 42q26 17 53 17q40 0 51 -45q5 -18 5 -66v-156v-147l-1 -68v-122v-122z" />
<glyph unicode="&#x14b;" horiz-adv-x="1208" d="M1116 -377q-153 -85 -234 -146l4 144l4 143q4 144 4 188q0 297 -42 489q-34 156 -121 156q-107 0 -289 -246q-114 -153 -223 -358h-25q2 97 2 143q0 231 -14 417q-8 109 -38 150q-23 32 -63 32q-28 0 -67 -20l-7 10l212 140l36 24q68 46 98 46q50 0 62 -114 q3 -28 14 -294l5 -120q378 508 517 508q58 0 84 -96q20 -74 40 -240t29 -339q9 -163 12 -617z" />
<glyph unicode="&#x14c;" horiz-adv-x="1326" d="M376 1156l-11 15q106 81 176 115q120 59 241 59q174 0 305 -138q85 -90 134 -208.5t49 -235.5t-57 -241.5t-165 -243.5q-126 -140 -259.5 -212.5t-263.5 -72.5q-211 0 -346 186q-124 172 -124 362q0 144 100 260q71 83 229 208l12 -14q-47 -61 -64 -109q-17 -51 -17 -125 q0 -228 125 -401q68 -94 148.5 -145.5t159.5 -51.5q58 0 115 28.5t89 73.5q60 87 60 264q0 304 -153 489q-81 97 -192 147q-74 34 -149 34q-58 0 -142 -43zM1096 1707l-205 -174q-44 14 -67 17q-22 3 -92 3h-500l194 154q236 -6 315 -6q55 0 355 6z" />
<glyph unicode="&#x14d;" horiz-adv-x="956" d="M262 759l-5 9q115 80 168 108q87 46 149 46q50 0 104.5 -24.5t96.5 -64.5q58 -57 92.5 -138.5t34.5 -162.5q0 -63 -22.5 -130.5t-59.5 -114.5q-46 -58 -128 -135.5t-151 -126.5q-66 -46 -148 -46q-142 0 -247 118q-91 103 -91 240q0 155 120 244l147 109l8 -8 q-28 -41 -38 -63q-20 -46 -20 -109q0 -160 116 -277q97 -96 180 -96q59 0 95 63q27 47 27 138q0 123 -61 230q-57 98 -131.5 151t-157.5 53q-29 0 -78 -13zM819 1263l-148 -157q-32 12 -48 15t-66 3h-419l140 139q126 -3 161 -4q98 -2 130 -2q39 0 250 6z" />
<glyph unicode="&#x150;" horiz-adv-x="1326" d="M376 1156l-11 15q106 81 176 115q120 59 241 59q174 0 305 -138q85 -90 134 -208.5t49 -235.5t-57 -241.5t-165 -243.5q-126 -140 -259.5 -212.5t-263.5 -72.5q-211 0 -346 186q-124 172 -124 362q0 144 100 260q71 83 229 208l12 -14q-47 -61 -64 -109q-17 -51 -17 -125 q0 -228 125 -401q68 -94 148.5 -145.5t159.5 -51.5q58 0 115 28.5t89 73.5q60 87 60 264q0 304 -153 489q-81 97 -192 147q-74 34 -149 34q-58 0 -142 -43zM921 1819l174 -111q-27 -44 -76 -109q-103 -135 -149 -135q-25 0 -173 72q76 39 224 283zM511 1819l174 -111 q-26 -44 -76 -109q-103 -135 -148 -135q-26 0 -174 72q76 39 224 283z" />
<glyph unicode="&#x151;" horiz-adv-x="956" d="M262 759l-5 9q115 80 168 108q87 46 149 46q50 0 104.5 -24.5t96.5 -64.5q58 -57 92.5 -138.5t34.5 -162.5q0 -63 -22.5 -130.5t-59.5 -114.5q-46 -58 -128 -135.5t-151 -126.5q-66 -46 -148 -46q-142 0 -247 118q-91 103 -91 240q0 155 120 244l147 109l8 -8 q-28 -41 -38 -63q-20 -46 -20 -109q0 -160 116 -277q97 -96 180 -96q59 0 95 63q27 47 27 138q0 123 -61 230q-57 98 -131.5 151t-157.5 53q-29 0 -78 -13zM386 1393l170 -100q-45 -64 -107 -143q-42 -55 -69 -81q-28 -28 -58 -28q-18 0 -73 30q-70 40 -80 45 q132 124 217 277zM727 1393l170 -100q-45 -64 -106 -143q-43 -55 -70 -81q-28 -28 -58 -28q-18 0 -72 30q-71 40 -81 45q132 124 217 277z" />
<glyph unicode="&#x152;" horiz-adv-x="2080" d="M2057 829l-263 -241q-79 23 -203 24h-274q31 -130 91 -204q103 -128 285 -178q84 -23 168 -23q71 0 163 22l7 -10l-167 -150q-54 -49 -112 -64q-45 -12 -103 -12q-131 0 -251 58q-147 70 -232 203q-47 73 -54 83q-124 -141 -214 -207q-83 -60 -179 -96q-107 -41 -194 -41 q-160 0 -287 113q-80 73 -130 184q-54 123 -54 257q0 150 93 258q32 38 233 203l13 -13q-46 -66 -62.5 -118.5t-16.5 -128.5q0 -221 148 -403q106 -129 231 -164q38 -11 71 -11q64 0 121 38q61 41 99 145q35 95 35 208q0 188 -94 359q-102 187 -281 253q-77 29 -147 29 q-50 0 -125 -31l-13 16q252 163 427 163q154 0 277 -102q82 -69 156 -214q150 164 287 237q173 93 339 93q109 0 174 -37q61 -34 61 -70t-83 -75l-203 -95q-8 42 -44 68q-61 44 -136 44q-114 0 -210 -89q-76 -71 -100 -194q-6 -34 -15 -110q100 -1 150 -1q354 0 618 24z" />
<glyph unicode="&#x153;" horiz-adv-x="1456" d="M1449 232l13 -19l-124 -96q-115 -88 -151 -107q-61 -30 -112 -30q-85 0 -172 71q-66 54 -135 174q-92 -108 -182 -169q-113 -77 -190 -77q-56 0 -117.5 27.5t-108.5 73.5q-54 52 -84.5 124t-30.5 145q0 106 76 195q63 73 197 160l10 -13q-27 -27 -35 -39 q-29 -46 -29 -126q0 -148 87 -257q43 -52 99 -84t107 -32t87 40q41 46 41 134q0 142 -65 274q-44 87 -128 137q-82 49 -167 49q-35 0 -80 -21l-8 19q119 77 186 109q89 43 155 43q175 0 274 -219q198 225 389 225q106 0 171 -92q30 -43 30 -82q0 -41 -43 -86 q-56 -58 -344 -260l-13 22q71 56 98 83q52 52 52 109q0 49 -40 90q-51 53 -121 53q-63 0 -101 -59q-34 -51 -34 -123q0 -166 121 -293q111 -116 275 -116q91 0 147 43z" />
<glyph unicode="&#x154;" horiz-adv-x="1190" d="M3 1133v31q35 37 70 71q47 48 86 98q78 6 108 8q204 15 303 15q224 0 373 -70q83 -38 134 -116q38 -59 38 -130q0 -117 -104 -209q-46 -41 -158 -119q149 -268 302 -466q53 -69 73 -83q13 -9 26 -9q14 0 33 14l9 -14l-123 -89q-105 -75 -146 -75q-56 0 -117 94 q-50 75 -319 564q264 100 264 269q0 53 -26 101.5t-69 75.5q-87 55 -234 55q-24 0 -71 -2v-989l-272 -185q2 78 23 624q6 432 7 536q-56 3 -82 3q-11 0 -83 -2q-15 -1 -45 -1zM623 1870l194 -124q-30 -49 -85 -121q-115 -150 -165 -150q-28 0 -193 80q84 44 249 315z" />
<glyph unicode="&#x155;" horiz-adv-x="801" d="M856 713l-211 -168q-40 137 -114 137q-28 0 -54.5 -24t-40.5 -62q-26 -68 -26 -212v-188v-88l-242 -157q15 200 15 313q0 239 -26 359q-17 80 -76 80q-24 0 -74 -20l-11 26l248 159q88 54 109 54q47 0 52 -80q3 -48 5 -209q73 77 139 143q67 67 126 113q30 24 56 24 q30 0 57 -51q23 -44 68 -149zM450 1396l204 -119q-70 -110 -135 -187q-70 -84 -124 -84q-24 0 -89 33q-76 39 -97 49q70 68 131.5 147t109.5 161z" />
<glyph unicode="&#x156;" horiz-adv-x="1190" d="M3 1133v31q35 37 70 71q47 48 86 98q78 6 108 8q204 15 303 15q224 0 373 -70q83 -38 134 -116q38 -59 38 -130q0 -117 -104 -209q-46 -41 -158 -119q149 -268 302 -466q53 -69 73 -83q13 -9 26 -9q14 0 33 14l9 -14l-123 -89q-105 -75 -146 -75q-56 0 -117 94 q-50 75 -319 564q264 100 264 269q0 53 -26 101.5t-69 75.5q-87 55 -234 55q-24 0 -71 -2v-989l-272 -185q2 78 23 624q6 432 7 536q-56 3 -82 3q-11 0 -83 -2q-15 -1 -45 -1zM443 -216l174 120l43 -42q87 -83 87 -137q0 -86 -255 -223l-6 10q75 79 75 124q0 37 -39 78 q-25 28 -79 70z" />
<glyph unicode="&#x157;" horiz-adv-x="785" d="M867 713l-211 -168q-40 137 -114 137q-28 0 -54.5 -24t-40.5 -62q-26 -68 -26 -212v-188v-88l-242 -157q15 200 15 313q0 239 -26 359q-17 80 -76 80q-24 0 -74 -20l-11 26l248 159q88 54 109 54q47 0 52 -80q3 -48 5 -209q73 77 139 143q67 67 126 113q30 24 56 24 q30 0 57 -51q23 -44 68 -149zM179 -204l157 108l39 -38q78 -75 78 -123q0 -78 -229 -202l-6 10q68 71 68 111q0 34 -35 71q-23 24 -72 63z" />
<glyph unicode="&#x158;" horiz-adv-x="1190" d="M3 1133v31q35 37 70 71q47 48 86 98q78 6 108 8q204 15 303 15q224 0 373 -70q83 -38 134 -116q38 -59 38 -130q0 -117 -104 -209q-46 -41 -158 -119q149 -268 302 -466q53 -69 73 -83q13 -9 26 -9q14 0 33 14l9 -14l-123 -89q-105 -75 -146 -75q-56 0 -117 94 q-50 75 -319 564q264 100 264 269q0 53 -26 101.5t-69 75.5q-87 55 -234 55q-24 0 -71 -2v-989l-272 -185q2 78 23 624q6 432 7 536q-56 3 -82 3q-11 0 -83 -2q-15 -1 -45 -1zM415 1852q87 -108 127 -138q44 -33 91 -33q88 0 240 141l33 -27q-58 -64 -195 -202 q-61 -63 -104 -91q-26 -17 -58 -17q-70 0 -186 100q-42 36 -136 136z" />
<glyph unicode="&#x159;" horiz-adv-x="801" d="M856 713l-211 -168q-40 137 -114 137q-28 0 -54.5 -24t-40.5 -62q-26 -68 -26 -212v-188v-88l-242 -157q15 200 15 313q0 239 -26 359q-17 80 -76 80q-24 0 -74 -20l-11 26l248 159q88 54 109 54q47 0 52 -80q3 -48 5 -209q73 77 139 143q67 67 126 113q30 24 56 24 q30 0 57 -51q23 -44 68 -149zM244 1339q28 -24 38 -34q56 -54 87 -80q49 -41 98 -41q80 0 223 150l37 -33q-102 -111 -188 -215q-73 -88 -132 -88q-56 0 -109 36q-56 38 -211 181z" />
<glyph unicode="&#x15a;" horiz-adv-x="1092" d="M776 1093q-91 155 -246 155q-80 0 -135 -46q-68 -55 -68 -137q0 -56 31 -94.5t101 -71.5q50 -23 182 -65q174 -55 233 -79t99 -54q92 -71 92 -161q0 -99 -95 -215q-127 -154 -316 -241q-185 -84 -323 -84q-83 0 -194 50q-137 61 -137 140q0 41 76 87l190 116 q28 -75 61 -113q43 -49 112 -79.5t139 -30.5q80 0 142 48q72 57 72 143q0 112 -122 176q-70 37 -353 129q-148 48 -200 104q-64 68 -64 145q0 130 141 250q123 105 313 166q126 41 220 41q120 0 209 -42q79 -37 79 -85q0 -45 -105 -92zM629 1870l194 -124q-30 -49 -85 -121 q-115 -150 -165 -150q-28 0 -193 80q84 44 249 315z" />
<glyph unicode="&#x15b;" horiz-adv-x="806" d="M567 662q-52 78 -119 105q-38 15 -84 15q-34 0 -59 -11q-42 -17 -42 -49q0 -52 79 -95q56 -31 120 -50l155 -47q66 -20 107 -69q30 -36 30 -88q0 -40 -22 -76.5t-75 -84.5q-73 -66 -154 -126t-123 -79q-59 -27 -118 -27q-103 0 -175 79q-41 45 -41 91q0 43 72 88l127 79 q5 -54 26 -84q66 -97 204 -97q94 0 94 80q0 78 -83 124q-40 22 -137 51q-176 52 -210 72q-60 36 -60 94q0 79 101 165q92 78 210 149q95 57 176 57q71 0 122 -28q56 -31 56 -79q0 -27 -27 -48q-4 -3 -38 -30zM503 1396l204 -119q-70 -110 -135 -187q-70 -84 -124 -84 q-24 0 -89 33q-76 39 -97 49q70 68 131.5 147t109.5 161z" />
<glyph unicode="&#x15c;" horiz-adv-x="1092" d="M776 1093q-91 155 -246 155q-80 0 -135 -46q-68 -55 -68 -137q0 -56 31 -94.5t101 -71.5q50 -23 182 -65q174 -55 233 -79t99 -54q92 -71 92 -161q0 -99 -95 -215q-127 -154 -316 -241q-185 -84 -323 -84q-83 0 -194 50q-137 61 -137 140q0 41 76 87l190 116 q28 -75 61 -113q43 -49 112 -79.5t139 -30.5q80 0 142 48q72 57 72 143q0 112 -122 176q-70 37 -353 129q-148 48 -200 104q-64 68 -64 145q0 130 141 250q123 105 313 166q126 41 220 41q120 0 209 -42q79 -37 79 -85q0 -45 -105 -92zM710 1485q-88 108 -127 138 q-44 33 -91 33q-88 0 -240 -140l-33 26q58 64 195 202q61 63 105 91q26 17 57 17q70 0 186 -99q42 -37 136 -137z" />
<glyph unicode="&#x15d;" horiz-adv-x="806" d="M567 662q-52 78 -119 105q-38 15 -84 15q-34 0 -59 -11q-42 -17 -42 -49q0 -52 79 -95q56 -31 120 -50l155 -47q66 -20 107 -69q30 -36 30 -88q0 -40 -22 -76.5t-75 -84.5q-73 -66 -154 -126t-123 -79q-59 -27 -118 -27q-103 0 -175 79q-41 45 -41 91q0 43 72 88l127 79 q5 -54 26 -84q66 -97 204 -97q94 0 94 80q0 78 -83 124q-40 22 -137 51q-176 52 -210 72q-60 36 -60 94q0 79 101 165q92 78 210 149q95 57 176 57q71 0 122 -28q56 -31 56 -79q0 -27 -27 -48q-4 -3 -38 -30zM623 1012q-29 26 -37 35q-58 55 -88 80q-48 41 -98 41 q-79 0 -223 -150l-37 32q102 112 189 216q73 88 132 88q56 0 108 -36q55 -38 211 -182z" />
<glyph unicode="&#x15e;" horiz-adv-x="1092" d="M776 1093q-91 155 -246 155q-80 0 -135 -46q-68 -55 -68 -137q0 -56 31 -94.5t101 -71.5q50 -23 182 -65q174 -55 233 -79t99 -54q92 -71 92 -161q0 -99 -95 -215q-127 -154 -316 -241q-185 -84 -323 -84q-83 0 -194 50q-137 61 -137 140q0 41 76 87l190 116 q28 -75 61 -113q43 -49 112 -79.5t139 -30.5q80 0 142 48q72 57 72 143q0 112 -122 176q-70 37 -353 129q-148 48 -200 104q-64 68 -64 145q0 130 141 250q123 105 313 166q126 41 220 41q120 0 209 -42q79 -37 79 -85q0 -45 -105 -92zM349 -206q62 45 99 69q72 46 119 46 q40 0 85 -33q65 -49 65 -103q0 -52 -75 -103l-99 -67q7 27 7 39q0 35 -27.5 70.5t-70.5 55.5q-33 16 -103 26z" />
<glyph unicode="&#x15f;" horiz-adv-x="806" d="M567 662q-52 78 -119 105q-38 15 -84 15q-34 0 -59 -11q-42 -17 -42 -49q0 -52 79 -95q56 -31 120 -50l155 -47q66 -20 107 -69q30 -36 30 -88q0 -40 -22 -76.5t-75 -84.5q-73 -66 -154 -126t-123 -79q-59 -27 -118 -27q-103 0 -175 79q-41 45 -41 91q0 43 72 88l127 79 q5 -54 26 -84q66 -97 204 -97q94 0 94 80q0 78 -83 124q-40 22 -137 51q-176 52 -210 72q-60 36 -60 94q0 79 101 165q92 78 210 149q95 57 176 57q71 0 122 -28q56 -31 56 -79q0 -27 -27 -48q-4 -3 -38 -30zM394 -347q9 38 9 55q0 46 -28 71q-32 28 -135 45q51 30 66 41 q41 27 58 38q34 20 69 20q39 0 78 -23q55 -32 55 -86q0 -50 -52 -91q-30 -23 -120 -70z" />
<glyph unicode="&#x160;" horiz-adv-x="1092" d="M776 1093q-91 155 -246 155q-80 0 -135 -46q-68 -55 -68 -137q0 -56 31 -94.5t101 -71.5q50 -23 182 -65q174 -55 233 -79t99 -54q92 -71 92 -161q0 -99 -95 -215q-127 -154 -316 -241q-185 -84 -323 -84q-83 0 -194 50q-137 61 -137 140q0 41 76 87l190 116 q28 -75 61 -113q43 -49 112 -79.5t139 -30.5q80 0 142 48q72 57 72 143q0 112 -122 176q-70 37 -353 129q-148 48 -200 104q-64 68 -64 145q0 130 141 250q123 105 313 166q126 41 220 41q120 0 209 -42q79 -37 79 -85q0 -45 -105 -92zM448 1852q87 -108 127 -138 q44 -33 91 -33q88 0 240 141l33 -27q-58 -64 -195 -202q-61 -63 -104 -91q-26 -17 -58 -17q-70 0 -186 100q-42 36 -136 136z" />
<glyph unicode="&#x161;" horiz-adv-x="806" d="M567 662q-52 78 -119 105q-38 15 -84 15q-34 0 -59 -11q-42 -17 -42 -49q0 -52 79 -95q56 -31 120 -50l155 -47q66 -20 107 -69q30 -36 30 -88q0 -40 -22 -76.5t-75 -84.5q-73 -66 -154 -126t-123 -79q-59 -27 -118 -27q-103 0 -175 79q-41 45 -41 91q0 43 72 88l127 79 q5 -54 26 -84q66 -97 204 -97q94 0 94 80q0 78 -83 124q-40 22 -137 51q-176 52 -210 72q-60 36 -60 94q0 79 101 165q92 78 210 149q95 57 176 57q71 0 122 -28q56 -31 56 -79q0 -27 -27 -48q-4 -3 -38 -30zM297 1339q28 -24 38 -34q56 -54 87 -80q49 -41 98 -41 q80 0 223 150l37 -33q-102 -111 -188 -215q-73 -88 -132 -88q-56 0 -109 36q-56 38 -211 181z" />
<glyph unicode="&#x162;" horiz-adv-x="934" d="M1180 1355q-71 -69 -92 -92q-93 -98 -117 -111q-38 -22 -131 -30q-59 -4 -237 -7q-2 -82 -2 -100q0 -286 5 -534q3 -169 16 -297l-299 -198q32 375 32 768q0 96 -3 361q-174 5 -264 10q-98 5 -252 24q180 128 276 206q130 -34 440 -34q295 0 628 34zM316 -216l174 120 l43 -42q87 -83 87 -137q0 -86 -255 -223l-6 10q75 79 75 124q0 37 -39 78q-25 28 -79 70z" />
<glyph unicode="&#x163;" horiz-adv-x="592" d="M195 1031l246 143l-25 -273h244q-88 -82 -117 -113q-37 -38 -53 -43q-14 -7 -49 -7h-40q-2 -80 -2 -119q0 -228 25 -358q10 -50 41 -87q21 -24 43 -24q16 0 45 19l14 -16l-198 -137q-57 -39 -84 -39q-29 0 -63 36.5t-45 80.5q-18 74 -18 242q0 48 9 228q5 106 7 174h-209 l153 163h70zM166 -204l157 108l39 -38q78 -75 78 -123q0 -78 -229 -202l-6 10q68 71 68 111q0 34 -35 71q-23 24 -72 63z" />
<glyph unicode="&#x164;" horiz-adv-x="934" d="M1180 1355q-71 -69 -92 -92q-93 -98 -117 -111q-38 -22 -131 -30q-59 -4 -237 -7q-2 -82 -2 -100q0 -286 5 -534q3 -169 16 -297l-299 -198q32 375 32 768q0 96 -3 361q-174 5 -264 10q-98 5 -252 24q180 128 276 206q130 -34 440 -34q295 0 628 34zM342 1852 q87 -108 127 -138q44 -33 91 -33q88 0 240 141l33 -27q-58 -64 -195 -202q-61 -63 -104 -91q-26 -17 -58 -17q-70 0 -186 100q-42 36 -136 136z" />
<glyph unicode="&#x165;" horiz-adv-x="742" d="M195 1031l246 143l-25 -273h244q-88 -82 -117 -113q-37 -38 -53 -43q-14 -7 -49 -7h-40q-2 -80 -2 -119q0 -228 25 -358q10 -50 41 -87q21 -24 43 -24q16 0 45 19l14 -16l-198 -137q-57 -39 -84 -39q-29 0 -63 36.5t-45 80.5q-18 74 -18 242q0 48 9 228q5 106 7 174h-209 l153 163h70zM507 1285l157 107l39 -37q78 -75 78 -124q0 -77 -229 -201l-6 9q68 72 68 111q0 34 -35 71q-23 24 -72 64z" />
<glyph unicode="&#x166;" horiz-adv-x="962" d="M616 817l124 2q158 2 314 5l-266 -226q-56 17 -87 22q-27 4 -82 4q4 -130 4 -171q1 -165 13 -269l-299 -198q24 297 27 457q0 28 1 181h-430l252 200l180 -4q1 111 1 139q0 53 -2 156q-174 5 -264 10q-98 5 -252 24q180 128 276 206q130 -34 440 -34q295 0 628 34 q-71 -69 -92 -92q-93 -98 -117 -111q-38 -22 -131 -30q-59 -4 -237 -7q-2 -79 -2 -107v-78q1 -45 1 -113z" />
<glyph unicode="&#x167;" horiz-adv-x="578" d="M385 628h261q-88 -82 -117 -113q-37 -37 -53 -42q-14 -8 -49 -8h-38q5 -121 21 -204q10 -50 41 -87q21 -24 43 -24q16 0 45 19l14 -16l-198 -137q-57 -39 -85 -39q-29 0 -62.5 36.5t-44.5 80.5q-18 72 -18 248q0 57 4 123h-197l153 163h52q2 43 4 110h-209l153 163h70 l6 130l246 143l-25 -273h244q-88 -82 -117 -113q-37 -38 -53 -43q-14 -7 -49 -7h-40q-2 -71 -2 -110z" />
<glyph unicode="&#x169;" horiz-adv-x="1174" d="M798 749q141 83 264 168q-17 -291 -17 -530q0 -143 9 -248l-90 -58q-66 -42 -183 -126l17 583q-187 -286 -311 -416q-137 -142 -198 -142q-53 0 -79 81q-12 37 -23 149l-31 342q-9 102 -27 143q-21 51 -67 51q-23 0 -62 -20l-12 21l195 113q93 52 112 60.5t37 8.5 q27 0 33 -40q3 -21 14 -140l26 -301q6 -72 20 -105q16 -38 53 -38q90 0 195 131t120 224q5 29 5 62v27zM902 1338l31 -5q-38 -187 -84 -233q-34 -33 -78 -33q-62 0 -194 54q-139 57 -193 57q-52 0 -81 -38q-12 -15 -27 -49l-29 7q13 46 17 59q30 105 52 137q38 52 96 52 q40 0 150 -39q29 -11 170 -63q42 -15 66 -15q70 0 104 109z" />
<glyph unicode="&#x16a;" horiz-adv-x="1442" d="M314 1398q-2 -36 -2 -56q0 -107 37.5 -264t102.5 -321q117 -296 234 -416q87 -89 153 -89q98 0 196 155q80 126 122 318q30 134 30 269q0 96 -24 169q161 82 375 205q-84 -323 -178 -541q-124 -287 -283 -519q-173 -250 -289 -299q-45 -19 -88 -19q-96 0 -192 97 q-50 52 -124 168t-143 252q-121 240 -202 495q-25 77 -25 147q0 58 50 98q13 11 99 60zM1222 1707l-205 -174q-44 14 -67 17q-22 3 -92 3h-500l194 154q236 -6 315 -6q55 0 355 6z" />
<glyph unicode="&#x16b;" horiz-adv-x="1174" d="M798 749q141 83 264 168q-17 -291 -17 -530q0 -143 9 -248l-90 -58q-66 -42 -183 -126l17 583q-187 -286 -311 -416q-137 -142 -198 -142q-53 0 -79 81q-12 37 -23 149l-31 342q-9 102 -27 143q-21 51 -67 51q-23 0 -62 -20l-12 21l195 113q93 52 112 60.5t37 8.5 q27 0 33 -40q3 -21 14 -140l26 -301q6 -72 20 -105q16 -38 53 -38q90 0 195 131t120 224q5 29 5 62v27zM927 1263l-148 -157q-32 12 -48 15t-66 3h-419l140 139q126 -3 161 -4q98 -2 130 -2q39 0 250 6z" />
<glyph unicode="&#x16d;" horiz-adv-x="1174" d="M798 749q141 83 264 168q-17 -291 -17 -530q0 -143 9 -248l-90 -58q-66 -42 -183 -126l17 583q-187 -286 -311 -416q-137 -142 -198 -142q-53 0 -79 81q-12 37 -23 149l-31 342q-9 102 -27 143q-21 51 -67 51q-23 0 -62 -20l-12 21l195 113q93 52 112 60.5t37 8.5 q27 0 33 -40q3 -21 14 -140l26 -301q6 -72 20 -105q16 -38 53 -38q90 0 195 131t120 224q5 29 5 62v27zM872 1321l27 -12q-49 -119 -91 -173q-95 -122 -221 -122q-90 0 -161 58q-53 44 -93 112q-23 40 -58 125l26 12q70 -87 126 -118q58 -32 160 -32t160 32q56 31 125 118z " />
<glyph unicode="&#x16e;" horiz-adv-x="1442" d="M314 1398q-2 -36 -2 -56q0 -107 37.5 -264t102.5 -321q117 -296 234 -416q87 -89 153 -89q98 0 196 155q80 126 122 318q30 134 30 269q0 96 -24 169q161 82 375 205q-84 -323 -178 -541q-124 -287 -283 -519q-173 -250 -289 -299q-45 -19 -88 -19q-96 0 -192 97 q-50 52 -124 168t-143 252q-121 240 -202 495q-25 77 -25 147q0 58 50 98q13 11 99 60zM779 1817q77 0 131 -60q46 -51 46 -120q0 -80 -60 -134q-51 -46 -120 -46q-80 0 -134 60q-46 51 -46 122q0 77 60 132q50 46 123 46zM776 1733q-40 0 -69 -31q-24 -28 -24 -64 q0 -42 31 -71q27 -24 63 -24q43 0 71 31q24 27 24 65q0 41 -31 70q-27 24 -65 24z" />
<glyph unicode="&#x16f;" horiz-adv-x="1174" d="M798 749q141 83 264 168q-17 -291 -17 -530q0 -143 9 -248l-90 -58q-66 -42 -183 -126l17 583q-187 -286 -311 -416q-137 -142 -198 -142q-53 0 -79 81q-12 37 -23 149l-31 342q-9 102 -27 143q-21 51 -67 51q-23 0 -62 -20l-12 21l195 113q93 52 112 60.5t37 8.5 q27 0 33 -40q3 -21 14 -140l26 -301q6 -72 20 -105q16 -38 53 -38q90 0 195 131t120 224q5 29 5 62v27zM590 1380q71 0 121 -55q43 -47 43 -111q0 -75 -55 -124q-48 -43 -111 -43q-75 0 -124 55q-43 47 -43 113q0 72 55 122q47 43 114 43zM588 1309q-41 0 -70 -31 q-24 -27 -24 -64q0 -42 31 -71q27 -24 64 -24q42 0 71 31q24 27 24 65q0 41 -31 70q-27 24 -65 24z" />
<glyph unicode="&#x170;" horiz-adv-x="1442" d="M314 1398q-2 -36 -2 -56q0 -107 37.5 -264t102.5 -321q117 -296 234 -416q87 -89 153 -89q98 0 196 155q80 126 122 318q30 134 30 269q0 96 -24 169q161 82 375 205q-84 -323 -178 -541q-124 -287 -283 -519q-173 -250 -289 -299q-45 -19 -88 -19q-96 0 -192 97 q-50 52 -124 168t-143 252q-121 240 -202 495q-25 77 -25 147q0 58 50 98q13 11 99 60zM1006 1819l174 -111q-27 -44 -76 -109q-103 -135 -149 -135q-25 0 -173 72q76 39 224 283zM596 1819l174 -111q-26 -44 -76 -109q-103 -135 -148 -135q-26 0 -174 72q76 39 224 283z " />
<glyph unicode="&#x171;" horiz-adv-x="1174" d="M798 749q141 83 264 168q-17 -291 -17 -530q0 -143 9 -248l-90 -58q-66 -42 -183 -126l17 583q-187 -286 -311 -416q-137 -142 -198 -142q-53 0 -79 81q-12 37 -23 149l-31 342q-9 102 -27 143q-21 51 -67 51q-23 0 -62 -20l-12 21l195 113q93 52 112 60.5t37 8.5 q27 0 33 -40q3 -21 14 -140l26 -301q6 -72 20 -105q16 -38 53 -38q90 0 195 131t120 224q5 29 5 62v27zM494 1393l170 -100q-45 -64 -107 -143q-42 -55 -69 -81q-28 -28 -58 -28q-18 0 -73 30q-70 40 -80 45q132 124 217 277zM835 1393l170 -100q-45 -64 -106 -143 q-43 -55 -70 -81q-28 -28 -58 -28q-18 0 -72 30q-71 40 -81 45q132 124 217 277z" />
<glyph unicode="&#x172;" horiz-adv-x="1442" d="M1313 -223q-62 -72 -91 -95q-35 -26 -82 -26q-77 0 -142 59q-43 39 -60 80q-17 40 -17 102q0 122 64 287q-93 -110 -163 -156q-58 -38 -123 -38q-95 0 -191 98q-50 51 -124 167t-143 252q-121 240 -202 495q-25 77 -25 147q0 58 50 98q13 11 99 60l151 91q-2 -36 -2 -56 q0 -107 37.5 -264t102.5 -321q117 -296 234 -416q87 -89 153 -89q98 0 196 155q80 126 122 318q30 134 30 269q0 96 -24 169q161 82 375 205q-67 -251 -122 -398q-51 -135 -117 -269q-44 -86 -89 -173q-67 -126 -110 -279q-51 -181 -51 -305q0 -102 60 -146q40 -28 128 -28 q28 0 76 7z" />
<glyph unicode="&#x173;" horiz-adv-x="1174" d="M1054 139l-117 -114q-55 -55 -70 -79q-19 -29 -19 -71q0 -145 169 -145q26 0 69 7q-56 -65 -83 -85q-30 -24 -73 -24q-107 0 -166 90q-32 50 -32 109q0 70 49 129l17 582q-187 -286 -311 -416q-137 -142 -198 -142q-53 0 -79 81q-12 37 -23 149l-31 342q-9 102 -27 143 q-21 51 -67 51q-23 0 -62 -20l-12 21l195 113q93 52 112 60.5t37 8.5q27 0 33 -40q3 -21 14 -140l26 -301q6 -72 20 -105q16 -38 53 -38q90 0 195 131t120 224q5 29 5 62v27q141 83 264 168q-17 -291 -17 -530q0 -143 9 -248z" />
<glyph unicode="&#x174;" horiz-adv-x="2318" d="M-55 1104l-10 19l200 124q25 16 42 28q41 27 68 27q23 0 48 -42q56 -95 190 -375q142 -298 264 -578q114 220 188 408q106 272 106 359q0 15 -6 52l267 144q11 -39 39 -97q17 -27 157 -336q101 -223 244 -530q72 159 164 371q120 276 120 385q0 22 -6 63l434 193 q-264 -404 -461 -796q-172 -343 -172 -417q0 -11 4 -36l-238 -149q-50 179 -204 509q-109 234 -198 415q-117 -205 -303 -579q-47 -98 -54 -153q-3 -24 -4 -64l-238 -128q-33 138 -75 245q-30 75 -207 435q-78 159 -144 299q-63 134 -92 174t-74 40q-19 0 -49 -10z M1316 1485q-88 108 -127 138q-44 33 -91 33q-88 0 -241 -140l-32 26q58 64 194 202q62 63 105 91q26 17 58 17q70 0 185 -99q43 -37 137 -137z" />
<glyph unicode="&#x176;" horiz-adv-x="1271" d="M818 157q-139 -88 -277 -187q13 155 13 238q0 173 -47 279q-99 226 -317 490q-117 142 -150 169q-26 23 -53 23q-16 0 -53 -12l-10 16l167 116q91 63 132 63t87 -52q85 -97 263 -375q114 -177 201 -348q91 124 162 253q110 199 110 287q0 22 -13 61q184 76 357 158 l22 -31q-44 -46 -245 -346q-243 -362 -278 -410q-51 -71 -61 -109q-18 -75 -18 -191q0 -35 8 -92zM786 1485q-88 108 -127 138q-44 33 -91 33q-88 0 -241 -140l-32 26q58 64 195 202q61 63 104 91q26 17 58 17q70 0 186 -99q42 -37 136 -137z" />
<glyph unicode="&#x177;" horiz-adv-x="1136" d="M979 901h48q-2 -40 -9 -161q-6 -58 -7 -632v-156q0 -242 16 -344q-183 -93 -262 -149q6 104 24 735l8 258q-33 -43 -67 -85q-94 -119 -210 -270q-93 -121 -155 -121q-50 0 -84 81q-22 53 -61 288q-51 305 -92 357q-23 29 -58 29q-24 0 -60 -13l-9 18l208 139 q76 51 116 51q38 0 52 -50q11 -39 43 -237q12 -69 33 -160.5t32 -118.5q24 -59 63 -59q41 0 121 91t178 250q81 130 132 259zM761 1012q-28 26 -37 35q-58 55 -87 80q-49 41 -98 41q-80 0 -223 -150l-38 32q103 112 189 216q73 88 132 88q56 0 109 -36q55 -38 211 -182z" />
<glyph unicode="&#x178;" horiz-adv-x="1271" d="M818 157q-139 -88 -277 -187q13 155 13 238q0 173 -47 279q-99 226 -317 490q-117 142 -150 169q-26 23 -53 23q-16 0 -53 -12l-10 16l167 116q91 63 132 63t87 -52q85 -97 263 -375q114 -177 201 -348q91 124 162 253q110 199 110 287q0 22 -13 61q184 76 357 158 l22 -31q-44 -46 -245 -346q-243 -362 -278 -410q-51 -71 -61 -109q-18 -75 -18 -191q0 -35 8 -92zM241 1627l244 161q34 -52 59 -86q35 -44 88 -82l-72 -43q-106 -65 -165 -65q-56 0 -101 34q-27 21 -53 81zM722 1627l244 161q34 -52 59 -86q35 -44 88 -82l-72 -43 q-106 -65 -165 -65q-56 0 -101 34q-27 21 -53 81z" />
<glyph unicode="&#x179;" horiz-adv-x="1041" d="M1018 1303l23 -27l-35 -40l-137 -163q-250 -297 -389 -479q-123 -161 -123 -233t84 -93q90 -22 304 -22q148 0 296 27l-231 -260q-110 -20 -232 -20q-325 0 -460 38q-53 14 -90 55q-28 31 -28 73q0 40 35 96q33 53 241 285.5t454 491.5q-183 -18 -349 -18q-133 0 -229 9 q-110 11 -110 79q0 43 65 110q17 18 35 34q48 45 141 139l14 -12q-9 -19 -9 -31q0 -30 51 -46q62 -20 317 -20q191 0 273 10q21 3 89 17zM603 1870l194 -124q-30 -49 -85 -121q-115 -150 -165 -150q-28 0 -193 80q84 44 249 315z" />
<glyph unicode="&#x17a;" horiz-adv-x="831" d="M773 890l18 -21q-182 -187 -288 -308t-141 -171q-39 -55 -39 -93q0 -52 67 -70q47 -13 162 -13q128 0 229 21l10 -10q-102 -97 -224 -224q-98 -8 -177 -8q-193 0 -277 39q-73 34 -73 83q0 25 29 67q62 90 455 481q-80 -15 -149 -15q-99 0 -203 12q-126 15 -126 91 q0 27 26 52q29 26 87 63l155 100l9 -13q-11 -20 -11 -33q0 -28 52 -38q35 -6 171 -6q17 0 238 14zM516 1396l204 -119q-70 -110 -135 -187q-70 -84 -124 -84q-24 0 -89 33q-76 39 -97 49q70 68 131.5 147t109.5 161z" />
<glyph unicode="&#x17b;" horiz-adv-x="1041" d="M1018 1303l23 -27l-35 -40l-137 -163q-250 -297 -389 -479q-123 -161 -123 -233t84 -93q90 -22 304 -22q148 0 296 27l-231 -260q-110 -20 -232 -20q-325 0 -460 38q-53 14 -90 55q-28 31 -28 73q0 40 35 96q33 53 241 285.5t454 491.5q-183 -18 -349 -18q-133 0 -229 9 q-110 11 -110 79q0 43 65 110q17 18 35 34q48 45 141 139l14 -12q-9 -19 -9 -31q0 -30 51 -46q62 -20 317 -20q191 0 273 10q21 3 89 17zM353 1627l244 161q34 -52 59 -86q35 -44 88 -82l-72 -43q-106 -65 -165 -65q-56 0 -101 34q-27 21 -53 81z" />
<glyph unicode="&#x17c;" horiz-adv-x="831" d="M773 890l18 -21q-182 -187 -288 -308t-141 -171q-39 -55 -39 -93q0 -52 67 -70q47 -13 162 -13q128 0 229 21l10 -10q-102 -97 -224 -224q-98 -8 -177 -8q-193 0 -277 39q-73 34 -73 83q0 25 29 67q62 90 455 481q-80 -15 -149 -15q-99 0 -203 12q-126 15 -126 91 q0 27 26 52q29 26 87 63l155 100l9 -13q-11 -20 -11 -33q0 -28 52 -38q35 -6 171 -6q17 0 238 14zM639 1181l-43 -45q-58 -60 -125 -60q-56 0 -95 33q-24 20 -47 72l183 132q39 -73 127 -132z" />
<glyph unicode="&#x17d;" horiz-adv-x="1041" d="M1018 1303l23 -27l-35 -40l-137 -163q-250 -297 -389 -479q-123 -161 -123 -233t84 -93q90 -22 304 -22q148 0 296 27l-231 -260q-110 -20 -232 -20q-325 0 -460 38q-53 14 -90 55q-28 31 -28 73q0 40 35 96q33 53 241 285.5t454 491.5q-183 -18 -349 -18q-133 0 -229 9 q-110 11 -110 79q0 43 65 110q17 18 35 34q48 45 141 139l14 -12q-9 -19 -9 -31q0 -30 51 -46q62 -20 317 -20q191 0 273 10q21 3 89 17zM368 1852q87 -108 127 -138q44 -33 91 -33q88 0 240 141l33 -27q-58 -64 -195 -202q-61 -63 -104 -91q-26 -17 -58 -17q-70 0 -186 100 q-42 36 -136 136z" />
<glyph unicode="&#x17e;" horiz-adv-x="831" d="M773 890l18 -21q-182 -187 -288 -308t-141 -171q-39 -55 -39 -93q0 -52 67 -70q47 -13 162 -13q128 0 229 21l10 -10q-102 -97 -224 -224q-98 -8 -177 -8q-193 0 -277 39q-73 34 -73 83q0 25 29 67q62 90 455 481q-80 -15 -149 -15q-99 0 -203 12q-126 15 -126 91 q0 27 26 52q29 26 87 63l155 100l9 -13q-11 -20 -11 -33q0 -28 52 -38q35 -6 171 -6q17 0 238 14zM297 1339q28 -24 38 -34q56 -54 87 -80q49 -41 98 -41q80 0 223 150l37 -33q-102 -111 -188 -215q-73 -88 -132 -88q-56 0 -109 36q-56 38 -211 181z" />
<glyph unicode="&#x192;" d="M176 659l101 112h170q7 26 62 270q33 145 98 240q59 86 199 162q108 59 184 59q83 0 155 -38q61 -32 61 -73t-73 -84l-89 -54q-51 167 -154 167q-82 0 -128 -175q-58 -218 -101 -474q134 0 296 20l-86 -132h-234q-21 -84 -62 -257q-65 -281 -144 -419q-51 -90 -187 -184 q-111 -77 -171 -97q-49 -16 -96 -16q-74 0 -150 40q-93 49 -93 110q0 36 60 75l144 94q16 -63 39 -99q32 -50 85 -79q31 -17 56 -17q82 0 141 150q23 60 99 423q37 177 63 276h-245z" />
<glyph unicode="&#x1cd;" horiz-adv-x="1313" d="M468 1259l255 130q88 -303 174 -507q310 -730 428 -730q10 0 35 16l9 -12l-143 -103q-91 -67 -125 -67q-24 0 -59.5 27t-61.5 65q-52 76 -134 264h-571q-53 -158 -52 -231l-319 -145q251 474 344 696q45 106 159 392q50 123 56 157q2 13 5 48zM783 482q-22 50 -116 282 q-71 177 -108 296q-27 -70 -106 -261q-64 -154 -123 -317h453zM483 1852q87 -108 127 -138q44 -33 91 -33q88 0 241 141l32 -27q-58 -64 -194 -202q-62 -63 -105 -91q-26 -17 -58 -17q-69 0 -185 100q-43 36 -137 136z" />
<glyph unicode="&#x1ce;" horiz-adv-x="1066" d="M627 184l-93 -89q-60 -58 -104 -84q-53 -32 -127 -32q-108 0 -213 67q-87 56 -87 124q0 87 107 177q89 75 219 124q121 45 202 45q20 0 61 -4q-93 130 -140 180q-59 63 -121 63q-23 0 -61 -15l-8 12l145 102q47 33 82 55q37 23 67 23q43 0 105 -81q83 -111 188 -306.5 t218 -448.5q-98 -55 -222 -131q-27 101 -54 159t-72 115q-141 177 -371 177q-120 0 -120 -83q0 -84 92 -135q71 -39 156 -39q51 0 151 25zM387 1353q28 -25 37 -34q56 -54 87 -80q49 -41 99 -41q79 0 222 150l38 -33q-102 -111 -189 -215q-73 -88 -132 -88q-56 0 -108 36 q-56 38 -212 181z" />
<glyph unicode="&#x1d3;" horiz-adv-x="1442" d="M314 1398q-2 -36 -2 -56q0 -107 37.5 -264t102.5 -321q117 -296 234 -416q87 -89 153 -89q98 0 196 155q80 126 122 318q30 134 30 269q0 96 -24 169q161 82 375 205q-84 -323 -178 -541q-124 -287 -283 -519q-173 -250 -289 -299q-45 -19 -88 -19q-96 0 -192 97 q-50 52 -124 168t-143 252q-121 240 -202 495q-25 77 -25 147q0 58 50 98q13 11 99 60zM610 1852q87 -108 127 -138q44 -33 91 -33q88 0 240 141l33 -27q-58 -64 -195 -202q-61 -63 -104 -91q-26 -17 -58 -17q-70 0 -186 100q-42 36 -136 136z" />
<glyph unicode="&#x1d4;" horiz-adv-x="1174" d="M798 749q141 83 264 168q-17 -291 -17 -530q0 -143 9 -248l-90 -58q-66 -42 -183 -126l17 583q-187 -286 -311 -416q-137 -142 -198 -142q-53 0 -79 81q-12 37 -23 149l-31 342q-9 102 -27 143q-21 51 -67 51q-23 0 -62 -20l-12 21l195 113q93 52 112 60.5t37 8.5 q27 0 33 -40q3 -21 14 -140l26 -301q6 -72 20 -105q16 -38 53 -38q90 0 195 131t120 224q5 29 5 62v27zM427 1353q28 -24 38 -34q56 -54 87 -80q49 -41 98 -41q80 0 223 150l37 -33q-102 -111 -188 -215q-73 -88 -132 -88q-56 0 -109 36q-56 38 -211 181z" />
<glyph unicode="&#x1e6;" horiz-adv-x="1274" d="M799 656q36 24 73 50q133 92 197 92q66 0 122 -68q62 -76 62 -168q0 -190 -249 -385q-111 -88 -216 -135.5t-185 -47.5q-144 0 -285 107q-128 97 -204 255q-73 153 -73 309q0 267 234 474q254 224 567 224q113 0 181 -27q83 -34 83 -76q0 -31 -71 -74l-163 -97 q-49 67 -114.5 102.5t-140.5 35.5q-125 0 -209 -92q-91 -99 -91 -302q0 -114 35 -231.5t93 -200.5q66 -93 168 -157q119 -74 239 -74q81 0 122 55q47 62 47 151q0 86 -75 179q-38 47 -76 70q-22 13 -71 31zM512 1852q87 -108 126 -138q45 -33 91 -33q88 0 241 141l32 -27 q-57 -64 -194 -202q-62 -63 -105 -91q-26 -17 -57 -17q-70 0 -186 100q-43 36 -137 136z" />
<glyph unicode="&#x1e7;" horiz-adv-x="1104" d="M1131 903l-151 -156q-25 -1 -35 -1l-79 1h-30q15 -36 15 -62q0 -63 -54 -125t-158 -120l-7 14q40 24 40 69q0 104 -89 183q-51 45 -123 45q-86 0 -134 -57q-38 -44 -38 -112q0 -89 62 -132q61 -41 282 -94q150 -36 234 -62q95 -30 148 -96q29 -38 29 -87 q0 -215 -376 -418q-147 -79 -278 -116q-77 -22 -174 -22q-238 0 -238 101q0 45 45 88q40 39 231 185l12 -11q-32 -48 -32 -83q0 -73 84 -110q60 -26 127 -26q151 0 271 95q79 63 79 152q0 119 -132 169q-65 25 -189 48q-165 30 -232 47q-81 20 -139 80q-49 50 -49 120 q0 78 65 155q49 57 183 170q138 116 202 151q73 40 130 40q26 0 71 -9q98 -19 192 -19q92 0 235 5zM420 1340q28 -26 37 -35q57 -55 87 -80q49 -41 99 -41q79 0 222 150l38 -32q-100 -109 -189 -216q-73 -88 -132 -88q-56 0 -108 36q-56 38 -212 182z" />
<glyph unicode="&#x2c6;" d="M678 998q-28 26 -37 35q-57 55 -88 80q-48 41 -98 41q-79 0 -222 -150l-38 32q103 113 189 216q73 88 132 88q56 0 108 -36q56 -38 211 -182z" />
<glyph unicode="&#x2c7;" d="M352 1353q28 -24 38 -34q56 -54 87 -80q49 -41 98 -41q80 0 223 150l37 -33q-102 -111 -188 -215q-73 -88 -132 -88q-56 0 -109 36q-56 38 -211 181z" />
<glyph unicode="&#x2c9;" d="M852 1263l-148 -157q-32 12 -48 15t-66 3h-419l140 139q126 -3 161 -4q98 -2 130 -2q39 0 250 6z" />
<glyph unicode="&#x2d8;" d="M798 1321l26 -12q-49 -119 -91 -173q-95 -122 -221 -122q-89 0 -160 58q-54 44 -94 112q-23 40 -58 125l27 12q69 -87 125 -118q58 -32 160 -32t160 32q56 31 126 118z" />
<glyph unicode="&#x2d9;" d="M667 1181l-43 -45q-58 -60 -125 -60q-56 0 -95 33q-24 20 -47 72l183 132q39 -73 127 -132z" />
<glyph unicode="&#x2da;" d="M515 1380q71 0 121 -55q43 -47 43 -111q0 -75 -55 -124q-48 -43 -111 -43q-75 0 -124 55q-43 47 -43 113q0 72 55 122q47 43 114 43zM513 1309q-41 0 -70 -31q-24 -27 -24 -64q0 -42 31 -71q27 -24 64 -24q42 0 71 31q24 27 24 65q0 41 -31 70q-27 24 -65 24z" />
<glyph unicode="&#x2db;" d="M628 52h71q-103 -65 -103 -173q0 -85 54 -123q36 -26 115 -26q26 0 68 7q-56 -65 -82 -85q-31 -24 -73 -24q-107 0 -165 90q-33 51 -33 113t27 107q29 50 121 114z" />
<glyph unicode="&#x2dc;" d="M827 1338l31 -5q-37 -187 -84 -233q-34 -33 -77 -33q-62 0 -195 54q-138 57 -193 57q-51 0 -81 -38q-11 -15 -26 -49l-30 7q13 45 17 59q30 105 53 137q37 52 95 52q40 0 150 -39q29 -11 171 -63q41 -15 66 -15q70 0 103 109z" />
<glyph unicode="&#x2dd;" d="M420 1393l170 -100q-45 -64 -107 -143q-42 -55 -69 -81q-28 -28 -58 -28q-18 0 -73 30q-70 40 -80 45q132 124 217 277zM761 1393l170 -100q-45 -64 -106 -143q-43 -55 -70 -81q-28 -28 -58 -28q-18 0 -72 30q-71 40 -81 45q132 124 217 277z" />
<glyph unicode="&#x37e;" horiz-adv-x="440" d="M68 157l174 119l43 -41q86 -83 86 -137q0 -86 -254 -223l-6 10q75 79 75 123q0 38 -38 79q-26 27 -80 70zM243 913q22 -61 53 -101q24 -29 74 -75l-127 -87q-45 -31 -71 -31q-31 0 -59 31q-50 53 -50 115q0 35 22 56q11 10 42 28z" />
<glyph unicode="&#x387;" horiz-adv-x="438" d="M242 724q22 -61 54 -101q23 -29 74 -75l-128 -87q-45 -31 -70 -31q-32 0 -60 31q-49 53 -49 115q0 35 22 56q11 11 42 28z" />
<glyph unicode="&#x3c6;" horiz-adv-x="1316" d="M549 1005v360h218v-360q145 -20 253 -88q225 -142 225 -426q0 -181 -97 -309q-129 -170 -381 -205v-337h-218v337q-145 20 -253 88q-225 142 -225 426q0 181 97 309q129 170 381 205zM549 146v690q-71 -19 -119 -53q-135 -93 -135 -292q0 -104 41.5 -184.5t117.5 -123.5 q40 -22 95 -37zM767 836v-690q71 19 119 53q135 93 135 292q0 104 -41.5 184t-117.5 124q-40 22 -95 37z" />
<glyph unicode="&#x1e84;" horiz-adv-x="2318" d="M-55 1104l-10 19l200 124q25 16 42 28q41 27 68 27q23 0 48 -42q56 -95 190 -375q142 -298 264 -578q114 220 188 408q106 272 106 359q0 15 -6 52l267 144q11 -39 39 -97q17 -27 157 -336q101 -223 244 -530q72 159 164 371q120 276 120 385q0 22 -6 63l434 193 q-264 -404 -461 -796q-172 -343 -172 -417q0 -11 4 -36l-238 -149q-50 179 -204 509q-109 234 -198 415q-117 -205 -303 -579q-47 -98 -54 -153q-3 -24 -4 -64l-238 -128q-33 138 -75 245q-30 75 -207 435q-78 159 -144 299q-63 134 -92 174t-74 40q-19 0 -49 -10zM730 1627 l243 161q34 -52 60 -86q35 -44 87 -82l-71 -43q-107 -65 -166 -65q-55 0 -100 34q-27 21 -53 81zM1211 1627l244 161q33 -52 59 -86q35 -44 88 -82l-72 -43q-106 -65 -165 -65q-56 0 -101 34q-27 21 -53 81z" />
<glyph unicode="&#x2002;" />
<glyph unicode="&#x2003;" horiz-adv-x="2048" />
<glyph unicode="&#x200a;" horiz-adv-x="256" />
<glyph unicode="&#x2010;" horiz-adv-x="658" d="M658 724l-162 -186q-28 20 -54 23q-35 4 -74 4h-368l168 195q24 -23 49 -29q27 -7 83 -7h358z" />
<glyph unicode="&#x2011;" horiz-adv-x="658" d="M658 724l-162 -186q-28 20 -54 23q-35 4 -74 4h-368l168 195q24 -23 49 -29q27 -7 83 -7h358z" />
<glyph unicode="&#x2012;" d="M964 724l-162 -186q-28 20 -54 23q-35 4 -75 4h-613l168 195q24 -23 49 -29q27 -7 83 -7h604z" />
<glyph unicode="&#x2013;" d="M964 724l-162 -186q-28 20 -54 23q-35 4 -75 4h-613l168 195q24 -23 49 -29q27 -7 83 -7h604z" />
<glyph unicode="&#x2014;" horiz-adv-x="1655" d="M1655 724l-162 -186q-29 20 -54 23q-35 4 -75 4h-1364l168 195q24 -23 49 -29q27 -7 83 -7h1355z" />
<glyph unicode="&#x2015;" horiz-adv-x="1655" d="M1655 724l-162 -186q-29 20 -54 23q-35 4 -75 4h-1364l168 195q24 -23 49 -29q27 -7 83 -7h1355z" />
<glyph unicode="&#x2017;" d="M0 -107h1024v-133h-1024v133zM0 -347h1024v-133h-1024v133z" />
<glyph unicode="&#x2018;" horiz-adv-x="542" d="M68 878q37 128 53 186q39 137 85 182q99 99 267 160q-98 -221 -134 -365q-59 -3 -271 -163z" />
<glyph unicode="&#x2019;" horiz-adv-x="488" d="M393 1454q-34 -117 -48 -167q-35 -124 -76 -164q-90 -90 -241 -144q89 199 121 328q53 3 244 147z" />
<glyph unicode="&#x201a;" horiz-adv-x="488" d="M393 225q-34 -117 -48 -167q-35 -124 -76 -164q-90 -90 -241 -144q89 199 121 328q53 3 244 147z" />
<glyph unicode="&#x201b;" horiz-adv-x="512" />
<glyph unicode="&#x201c;" horiz-adv-x="1040" d="M539 878q38 128 54 186q38 137 84 182q100 99 268 160q-98 -221 -135 -365q-59 -3 -271 -163zM123 878q37 128 53 186q39 137 85 182q99 99 267 160q-98 -221 -134 -365q-59 -3 -271 -163z" />
<glyph unicode="&#x201d;" horiz-adv-x="1040" d="M501 1433q-37 -128 -53 -185q-38 -137 -85 -182q-99 -100 -267 -161q98 221 134 365q60 4 271 163zM918 1433q-38 -128 -54 -185q-38 -137 -84 -182q-99 -100 -268 -161q99 221 135 365q59 4 271 163z" />
<glyph unicode="&#x201e;" horiz-adv-x="1040" d="M501 250q-37 -128 -53 -186q-38 -137 -85 -182q-99 -99 -267 -160q98 221 134 365q60 3 271 163zM918 250q-38 -128 -54 -186q-38 -137 -84 -182q-99 -99 -268 -160q99 221 135 365q59 3 271 163z" />
<glyph unicode="&#x2020;" d="M644 996h367q-105 -108 -139 -149q-43 -49 -63 -56q-16 -10 -58 -10h-111l-1 -147l-1 -230q0 -198 6 -575l-288 -172q15 277 23 449q5 126 10 431l3 244h-386l182 215h207v241l267 172q-15 -317 -18 -413z" />
<glyph unicode="&#x2021;" d="M644 996h380q-105 -108 -140 -149q-42 -49 -63 -56q-16 -10 -58 -10h-124q0 -111 -1 -147q-1 -93 -1 -119l1 -81v-53h386q-105 -108 -140 -149q-42 -49 -63 -56q-16 -10 -58 -10h-123l3 -337l-288 -173q8 142 17 339l6 171h-359l181 215h185l6 400h-372l181 215h194v241 l267 172q-15 -317 -17 -413z" />
<glyph unicode="&#x2022;" horiz-adv-x="1365" d="M689 978q113 0 196 -83q84 -83 84 -201t-84 -201q-82 -83 -200 -83t-200 83q-84 83 -84 200q0 121 84 202q85 83 204 83z" />
<glyph unicode="&#x2026;" horiz-adv-x="1314" d="M242 287q22 -61 54 -101q23 -29 74 -75l-128 -87q-45 -31 -70 -31q-32 0 -60 31q-49 53 -49 115q0 35 22 56q11 11 42 28zM680 287q22 -61 54 -101q23 -29 74 -75l-128 -87q-45 -31 -70 -31q-32 0 -60 31q-49 53 -49 115q0 35 22 56q11 11 42 28zM1118 287 q22 -61 54 -101q23 -29 74 -75l-128 -87q-45 -31 -70 -31q-32 0 -60 31q-49 53 -49 115q0 35 22 56q11 11 42 28z" />
<glyph unicode="&#x2030;" horiz-adv-x="2578" d="M1090 1268q256 67 433 100q-74 -71 -128 -134q-52 -61 -231 -340q-56 -88 -190 -285q-166 -246 -287 -466q-117 -11 -247 -47q-42 -11 -170 -48q-80 -23 -169 -49q577 437 989 1269zM1185 660l-14 14q75 44 99 59q53 32 91 51q40 19 81 19q50 0 106.5 -29t92.5 -73 q41 -49 65.5 -118.5t24.5 -133.5q0 -165 -195 -338q-155 -138 -263 -138q-103 0 -194 96q-96 102 -96 226q0 112 78 182q33 29 95 75q24 18 72 55l13 -13q-62 -73 -62 -167q0 -119 85 -216q79 -90 172 -90q52 0 81 47q30 50 30 112q0 74 -32.5 155t-86.5 142q-88 99 -182 99 q-24 0 -61 -16zM202 1250l-14 14q76 44 99 59q53 32 91 51q40 19 81 19q50 0 106.5 -29t92.5 -73q41 -49 65.5 -118.5t24.5 -134.5q0 -164 -195 -338q-155 -138 -263 -138q-103 0 -194 96q-96 102 -96 226q0 113 78 182q33 29 95 75q24 18 72 56l13 -14q-62 -72 -62 -166 q0 -120 85 -217q79 -90 172 -90q52 0 81 47q30 50 30 112q0 75 -32.5 156t-86.5 142q-88 99 -182 99q-24 0 -61 -16zM2032 660l-14 14q76 45 99 59q52 32 91 51q40 19 81 19q50 0 106.5 -29t92.5 -73q41 -49 65.5 -118.5t24.5 -133.5q0 -165 -195 -338q-155 -138 -263 -138 q-103 0 -194 96q-96 102 -96 226q0 112 78 182q33 29 94 75q25 18 72 55l14 -13q-62 -73 -62 -167q0 -119 85 -216q79 -90 172 -90q52 0 81 47q30 50 30 112q0 74 -32.5 155t-86.5 142q-89 99 -182 99q-24 0 -61 -16z" />
<glyph unicode="&#x2039;" horiz-adv-x="471" d="M403 325l-177 -105q-13 18 -51 63l-52 70q-25 35 -38 55q-17 29 -17 64q0 40 37 82q31 35 85 78l163 128l28 -33q-74 -62 -101 -105q-28 -46 -28 -70q0 -55 151 -227z" />
<glyph unicode="&#x203a;" horiz-adv-x="471" d="M68 655l177 105q13 -17 50 -62l52 -71q27 -36 38 -54q18 -29 18 -64q0 -40 -38 -82q-30 -35 -85 -78l-162 -129l-28 34q74 62 101 105q28 46 28 70q0 55 -151 226z" />
<glyph unicode="&#x203e;" d="M0 1804h1024v-196h-1024v196z" />
<glyph unicode="&#x2044;" horiz-adv-x="78" d="M306 1255q167 79 285 122q-58 -73 -102 -136q-41 -60 -198 -340q-32 -59 -163 -284q-148 -255 -253 -465q-76 -18 -161 -60q-125 -63 -226 -114q428 454 818 1277z" />
<glyph unicode="&#x2070;" horiz-adv-x="683" d="M198 1213l-11 22q73 58 104 79q68 46 110 46q36 0 79 -29.5t79 -77.5q83 -111 83 -234q0 -78 -38 -154q-23 -44 -79.5 -120.5t-100.5 -121.5q-83 -87 -147 -87q-90 0 -169 121q-66 99 -66 198q0 110 79 187q3 4 109 102l16 -17q-50 -58 -50 -144q0 -96 56 -189 q55 -90 134 -90q51 0 78 53q24 48 24 113q0 119 -65 227q-39 64 -99 102q-37 23 -74 23q-18 0 -52 -9z" />
<glyph unicode="&#x2074;" horiz-adv-x="683" d="M348 1120q70 47 149 110q-9 -182 -12 -291q46 2 148 12q-57 -79 -104 -155h-47q-1 -34 -1 -50q0 -37 5 -94q-68 -48 -161 -129l7 86l5 56q6 65 9 110l-42 -1q-115 -5 -131 -5q-115 0 -115 93q0 47 35 112q69 128 173 276q56 79 114 141l38 -26q-94 -114 -147 -223 q-49 -101 -49 -145q0 -66 70 -66q16 0 57 2q2 53 2 93q0 37 -3 94z" />
<glyph unicode="&#x2075;" horiz-adv-x="683" d="M59 992l234 369q116 -30 232 -30q40 0 101 10q-42 -77 -84 -135q-25 -36 -41 -46q-17 -11 -44 -11q-96 0 -221 36l-27 -43q114 -60 165 -103q121 -102 121 -199t-93 -184q-93 -88 -271 -198l-19 38q108 73 145 106q64 58 64 128q0 89 -81 160q-48 43 -181 102z" />
<glyph unicode="&#x2076;" horiz-adv-x="683" d="M436 1385l20 -34q-175 -154 -219 -263q-25 -62 -25 -118q0 -83 42 -167q33 -67 95 -105q41 -25 69 -25q22 0 38 22q21 30 21 74q0 71 -53 132q-46 52 -131 78q117 110 170 110q44 0 91 -36q82 -63 82 -168q0 -70 -42 -136q-44 -69 -160 -152q-89 -62 -148 -62 q-39 0 -84.5 24.5t-78.5 63.5q-76 89 -76 219q0 69 22.5 131t73.5 134q111 154 293 278z" />
<glyph unicode="&#x2077;" horiz-adv-x="683" d="M617 1338l28 -29q-126 -173 -193 -311q-65 -134 -105 -249q-15 -45 -15 -64q0 -16 14 -43q-101 -52 -239 -123q57 121 122 234q112 195 181 349l19 44q-27 -1 -62 -2h-40q-100 0 -151 9q-97 16 -97 67q0 23 39 56q9 9 27 25l87 80q72 -54 240 -54q61 0 145 11z" />
<glyph unicode="&#x2078;" horiz-adv-x="683" d="M269 1341l26 -25q-45 -47 -45 -90q0 -48 46 -95q25 -25 105 -66q48 38 48 95q0 49 -24 78q-21 24 -76 36l79 63q54 43 99 43q35 0 61 -24q31 -28 31 -79q0 -58 -56 -122q-36 -43 -118 -110q76 -29 118 -59q69 -48 69 -116q0 -117 -208 -247q-142 -88 -217 -88 q-57 0 -102 36q-54 43 -54 125q0 72 56 129q38 38 127 104l22 16q-101 50 -138 85q-36 33 -36 83q0 57 52 110q40 40 135 118zM301 924q-68 -72 -68 -136q0 -47 30 -83q38 -47 93 -47q44 0 75 32q30 32 30 74q0 47 -41 87q-28 26 -119 73z" />
<glyph unicode="&#x2079;" horiz-adv-x="683" d="M169 478l-24 37q161 127 230 222q87 121 87 241q0 86 -43 156q-36 58 -89 91q-33 21 -57 21q-27 0 -47 -26q-20 -27 -20 -71q0 -87 51 -151q33 -40 70 -57q23 -10 72 -13l-92 -85q-46 -42 -83 -42q-77 0 -136 85q-51 73 -51 155q0 72 53 125q76 75 164 131q89 58 154 58 q81 0 152 -84q85 -101 85 -237q0 -92 -51 -169q-78 -116 -283 -283q-61 -49 -142 -104z" />
<glyph unicode="&#x207d;" horiz-adv-x="328" d="M320 459l-114 -98q-155 227 -155 504q0 231 116 459l144 65q-61 -119 -85 -201q-36 -122 -36 -239q0 -237 130 -490z" />
<glyph unicode="&#x207e;" horiz-adv-x="328" d="M9 1287l113 98q156 -228 156 -504q0 -230 -116 -459l-144 -65q61 118 85 201q36 122 36 239q0 238 -130 490z" />
<glyph unicode="&#x207f;" horiz-adv-x="759" d="M23 966l-12 16l133 87q65 43 85 43q32 0 42 -61q3 -20 10 -187l2 -51q219 287 305 287q46 0 60 -80q28 -155 47 -409q-57 -27 -150 -84q1 31 1 47q0 173 -40 284q-14 40 -47 40q-65 0 -172 -142q-72 -98 -135 -214h-26q1 61 1 89q0 217 -13 287q-12 62 -49 62 q-16 0 -42 -14z" />
<glyph unicode="&#x2080;" horiz-adv-x="683" d="M198 667l-11 22q72 58 104 79q68 46 110 46q36 0 79 -29.5t79 -77.5q83 -111 83 -234q0 -78 -38 -154q-23 -44 -79.5 -120.5t-100.5 -121.5q-83 -87 -147 -87q-89 0 -169 121q-66 99 -66 198q0 110 79 188q3 3 109 101l16 -17q-50 -58 -50 -144q0 -96 56 -189 q55 -90 134 -90q51 0 78 53q24 48 24 113q0 119 -65 227q-39 64 -99 102q-37 23 -74 23q-18 0 -52 -9z" />
<glyph unicode="&#x2081;" horiz-adv-x="683" d="M446 92q-38 -28 -47 -33q-38 -27 -105 -82v416q0 236 -59 236q-8 0 -29 -12l-13 29l161 139q29 25 49 25q32 0 40 -60q3 -21 3 -119v-539z" />
<glyph unicode="&#x2082;" horiz-adv-x="683" d="M607 177q-72 -91 -148 -196q-69 30 -156 30q-99 0 -218 -30l-24 42l190 221q35 41 62 92q45 86 45 163q0 76 -59 120q-52 39 -129 39q-42 0 -96 -18l-15 22l137 95q79 56 132 56q50 0 100 -37q87 -65 87 -189q0 -114 -100 -239l-137 -168q100 7 154 7q56 0 175 -10z" />
<glyph unicode="&#x2083;" horiz-adv-x="683" d="M174 -95l-11 32q106 63 139 104q56 69 56 146q0 80 -63 129q-53 41 -108 41q-14 0 -44 -3v28q68 24 106 55q70 57 70 121q0 50 -38 81q-31 25 -82 25q-43 0 -100 -24l-14 23q37 27 67 50q82 62 117 78q39 18 76 18q44 0 83 -24q71 -44 71 -124q0 -68 -61 -125 q-22 -21 -88 -68h15q55 0 101 -38q71 -57 71 -160q0 -98 -85 -185q-60 -62 -133 -101z" />
<glyph unicode="&#x2084;" horiz-adv-x="683" d="M348 574q70 47 149 110q-9 -182 -12 -291q46 1 148 12q-58 -80 -104 -155h-47q-1 -34 -1 -50q0 -36 5 -94q-70 -50 -161 -129l7 86l5 56q6 64 9 110l-42 -1q-115 -5 -131 -5q-53 0 -83 23q-32 25 -32 70q0 46 35 111q67 126 173 277q56 79 114 141l38 -26 q-94 -114 -147 -223q-49 -101 -49 -145q0 -66 70 -66q22 0 57 2q2 53 2 93q0 37 -3 94z" />
<glyph unicode="&#x2085;" horiz-adv-x="683" d="M59 446l234 369q117 -30 232 -30q40 0 101 10q-42 -77 -84 -135q-25 -35 -41 -46q-17 -11 -44 -11q-95 0 -221 37l-27 -44q114 -60 165 -103q121 -102 121 -199q0 -96 -93 -184t-271 -198l-19 38q108 73 145 107q64 58 64 128q0 88 -81 159q-48 43 -181 102z" />
<glyph unicode="&#x2086;" horiz-adv-x="683" d="M436 839l20 -34q-175 -154 -219 -263q-25 -62 -25 -118q0 -83 42 -167q33 -67 95 -105q41 -25 69 -25q22 0 38 22q21 30 21 74q0 71 -53 132q-46 52 -131 78q116 110 170 110q44 0 91 -36q82 -62 82 -168q0 -70 -42 -136q-44 -69 -160 -151q-89 -62 -148 -62 q-39 0 -84.5 24.5t-78.5 63.5q-76 88 -76 219q0 69 22.5 130.5t73.5 133.5q111 155 293 278z" />
<glyph unicode="&#x2087;" horiz-adv-x="683" d="M617 792l28 -29q-126 -173 -193 -311q-65 -134 -105 -249q-15 -44 -15 -64q0 -15 14 -43q-101 -52 -239 -123q57 121 122 234q112 195 181 349l19 44q-27 -1 -62 -2h-41q-99 0 -150 9q-97 16 -97 67q0 23 39 56q9 9 27 25l87 80q73 -54 240 -54q60 0 145 11z" />
<glyph unicode="&#x2088;" horiz-adv-x="683" d="M269 795l26 -25q-45 -47 -45 -90q0 -48 46 -95q25 -25 105 -66q48 39 48 95q0 49 -24 78q-21 25 -76 36l79 63q54 43 99 43q35 0 61 -24q31 -28 31 -79q0 -58 -56 -122q-34 -40 -118 -110q187 -71 187 -175q0 -117 -208 -247q-142 -88 -217 -88q-57 0 -102 36 q-54 43 -54 125q0 58 34 104q33 44 171 145q-101 50 -138 85q-36 33 -36 83q0 57 52 110q40 40 135 118zM301 378q-68 -72 -68 -136q0 -47 30 -83q38 -47 93 -47q44 0 75 32q30 32 30 74q0 48 -41 87q-22 21 -69 46q-49 28 -50 27z" />
<glyph unicode="&#x2089;" horiz-adv-x="683" d="M169 -68l-24 37q161 128 230 223q87 120 87 241q0 86 -43 155q-36 59 -89 92q-33 21 -57 21q-27 0 -47 -26q-20 -27 -20 -72q0 -86 51 -150q33 -41 70 -58q23 -10 72 -13l-92 -85q-46 -42 -83 -42q-77 0 -136 85q-51 73 -51 155q0 72 53 125q76 75 164 131q89 58 154 58 q81 0 152 -84q85 -101 85 -237q0 -92 -51 -168q-78 -117 -283 -284q-61 -49 -142 -104z" />
<glyph unicode="&#x20a3;" horiz-adv-x="1631" d="M491 1135v-320q160 -1 384 23q-166 -191 -223 -210q-33 -12 -161 -14v-454l-259 -166q23 346 24 620q-125 5 -233 13l241 195v330q-133 2 -250 16q58 47 77 60q115 89 173 137q173 -31 455 -31q195 0 406 31q-70 -69 -89 -91q-80 -87 -108 -107q-40 -28 -112 -35 q-52 -4 -141 -4q-69 0 -184 7zM1618 631l-211 -168q-40 137 -114 137q-28 0 -54.5 -23.5t-40.5 -62.5q-26 -68 -26 -212v-187v-21l-237 -157q10 152 10 245q0 240 -26 360q-17 80 -76 80q-24 0 -74 -21l-11 26l248 159q88 54 109 54q47 0 52 -80q3 -48 5 -209q70 75 139 143 q68 68 126 114q29 24 56 24q30 0 57 -51q24 -45 68 -150z" />
<glyph unicode="&#x20a7;" horiz-adv-x="1681" d="M202 1147h-202v53l167 141q147 17 273 17q262 0 414 -62q93 -37 159 -118q72 -88 72 -192q0 -115 -112 -211q-111 -95 -374 -164l-6 22q88 28 138 75q81 78 81 180q0 138 -113 207q-80 49 -201 52h-57l1 -248q1 -447 8 -742l-288 -173q44 651 44 925q0 78 -4 238z M918 619l162 93l-15 -167h156q-62 -57 -83 -78q-23 -22 -34 -26q-9 -5 -32 -5h-17q-1 -39 -1 -60q0 -274 59 -274q10 0 27 14l18 -20l-126 -85q-34 -24 -54 -24t-42 23t-29 51q-11 45 -11 145q0 29 5 135q3 60 4 95h-134l105 109h39zM1519 388q-48 74 -119 74q-19 0 -33 -6 q-21 -8 -21 -23q0 -26 44 -50q33 -18 163 -57q87 -25 87 -99q0 -38 -46 -86.5t-145 -114.5q-58 -38 -111 -38q-66 0 -111 49q-26 29 -26 58t47 58l85 53q4 -60 49 -89q36 -23 84 -23q49 0 49 40q0 43 -46 68q-23 12 -81 29q-107 31 -128 43q-39 23 -39 62q0 49 64 102 q147 123 235 123q45 0 77 -17q37 -21 37 -53q0 -19 -18 -33q-3 -2 -24 -18z" />
<glyph unicode="&#x2113;" d="M526 547l-5 -23q-58 -293 -58 -371q0 -57 34 -57q46 0 93 103q18 40 43 40q32 0 32 -38q0 -73 -70 -152q-69 -78 -150 -78q-149 0 -149 224q0 68 9 191q-66 -64 -81 -64q-13 0 -24 13.5t-11 29.5q0 25 34 58q60 59 98 107q70 374 165 606q103 251 252 251q74 0 112 -56 q35 -50 35 -122q0 -178 -134 -391q-59 -95 -225 -271zM553 711q111 124 169 254q58 129 58 225q0 86 -40 86q-32 0 -60 -55q-29 -56 -85 -304q-23 -102 -42 -206z" />
<glyph unicode="&#x2122;" horiz-adv-x="1660" d="M711 1361q-52 -48 -67 -65q-54 -55 -70 -63q-23 -13 -78 -18q-35 -2 -132 -3q-1 -60 -1 -82q0 -322 13 -437l-188 -120q19 224 19 444q0 55 -2 195q-179 5 -311 21q115 79 178 127q75 -19 253 -19q179 0 386 20zM799 689q-64 -36 -189 -116q51 273 118 507 q-87 137 -87 178q0 32 54 63l102 60q22 -96 60 -169q96 -183 231 -328q61 -66 115 -66q83 0 145 126q68 139 68 267q0 15 -2 45l233 118l-88 -202q35 -322 129 -503l-164 -101l-98 390q-75 -120 -136 -196q-79 -96 -156 -96q-73 0 -157 91q-63 68 -144 175 q-22 -102 -34 -243z" />
<glyph unicode="&#x2126;" horiz-adv-x="1365" d="M59 0v196h315q-131 80 -200 172q-115 153 -115 380q0 281 187 470q179 180 438 180t437 -180q186 -188 186 -470q0 -239 -126 -395q-69 -84 -187 -157h313v-196h-544v175q126 71 194 155q126 158 126 393q0 197 -110 332q-119 147 -288 147q-153 0 -269 -118 q-133 -136 -133 -363q0 -367 323 -546v-175h-547z" />
<glyph unicode="&#x212e;" horiz-adv-x="838" d="M781 203l8 -10q-155 -124 -197 -151q-95 -63 -171 -63q-59 0 -125 31t-118 83q-118 119 -118 277q0 94 50.5 193.5t140.5 182.5t202 132q79 35 146 35q87 0 164 -55q70 -50 70 -113q0 -73 -102 -145q-119 -84 -311 -170l-5 14q77 47 113 85q42 43 42 93q0 46 -36 83 q-55 55 -131 55q-66 0 -104 -58q-35 -53 -35 -125q0 -81 35.5 -162t98.5 -144q109 -109 244 -109q75 0 139 41z" />
<glyph unicode="&#x2153;" horiz-adv-x="1443" d="M446 638q-35 -25 -47 -34q-38 -26 -105 -81v415q0 237 -59 237q-7 0 -29 -13l-13 29l161 140q29 25 49 25q32 0 40 -60q3 -21 3 -119v-539zM934 1255q167 79 285 122q-58 -73 -102 -136q-41 -60 -198 -340q-32 -59 -163 -284q-148 -255 -253 -465q-76 -18 -161 -60 q-125 -63 -226 -114q428 454 818 1277zM935 -95l-11 32q106 63 139 104q56 69 56 146q0 80 -63 129q-53 41 -109 41q-13 0 -43 -3v28q67 24 105 55q71 57 71 121q0 50 -38 81q-31 25 -82 25q-43 0 -100 -24l-14 23q40 29 67 50q82 63 117 78q40 18 75 18q45 0 84 -24 q71 -44 71 -124q0 -68 -61 -125q-23 -21 -88 -68h15q55 0 101 -38q71 -57 71 -160q0 -98 -86 -185q-60 -62 -132 -101z" />
<glyph unicode="&#x2154;" horiz-adv-x="1443" d="M607 723q-72 -91 -148 -196q-69 30 -156 30q-100 0 -218 -30l-24 42l190 221q36 41 62 91q45 87 45 163t-59 120q-52 39 -130 39q-41 0 -95 -17l-15 21l137 96q80 56 132 56q50 0 100 -37q87 -65 87 -190q0 -113 -100 -238l-137 -169q101 8 154 8q60 0 175 -10zM934 1255 q166 79 284 122q-58 -73 -101 -136q-41 -60 -198 -340q-32 -59 -163 -284q-148 -255 -254 -465q-75 -18 -161 -60q-105 -53 -225 -114q427 454 818 1277zM934 -95l-11 32q106 63 139 104q56 69 56 146q0 80 -63 129q-53 41 -109 41q-13 0 -43 -3v28q67 24 106 55 q70 57 70 121q0 50 -38 81q-31 25 -82 25q-43 0 -100 -24l-14 23q50 36 67 50q82 62 117 78q39 18 76 18q44 0 83 -24q71 -44 71 -124q0 -68 -61 -125q-22 -21 -88 -68h15q55 0 101 -38q71 -57 71 -160q0 -98 -86 -185q-60 -62 -132 -101z" />
<glyph unicode="&#x215b;" horiz-adv-x="1443" d="M446 638q-36 -26 -47 -34q-40 -27 -105 -81v415q0 237 -59 237q-7 0 -29 -13l-13 29l161 140q29 25 49 25q32 0 40 -60q3 -21 3 -119v-539zM947 1255q167 79 285 122q-58 -73 -102 -136q-41 -60 -198 -340q-32 -59 -163 -284q-148 -255 -253 -465q-76 -18 -161 -60 q-125 -63 -226 -114q428 454 818 1277zM1029 795l26 -25q-45 -47 -45 -90q0 -48 46 -95q25 -25 105 -66q48 39 48 95q0 49 -24 78q-21 25 -76 36l79 63q54 43 99 43q35 0 61 -24q31 -29 31 -79q0 -58 -55 -122q-35 -39 -119 -110q187 -71 187 -175q0 -117 -208 -247 q-142 -88 -218 -88q-56 0 -101 36q-54 43 -54 125q0 58 34 104q33 44 171 145q-101 50 -138 85q-36 33 -36 83q0 57 52 110q40 40 135 118zM1061 378q-68 -72 -68 -136q0 -47 30 -83q38 -47 93 -47q44 0 75 32q30 32 30 74q0 48 -41 87q-22 21 -69 46q-50 28 -50 27z" />
<glyph unicode="&#x215c;" horiz-adv-x="1443" d="M174 451l-11 32q106 63 139 104q56 69 56 146q0 80 -63 129q-53 41 -108 41q-14 0 -44 -3v28q68 24 106 55q70 57 70 121q0 50 -38 81q-31 25 -82 25q-42 0 -100 -25l-14 24q45 33 67 50q82 62 117 78q39 18 76 18q44 0 83 -24q71 -44 71 -124q0 -68 -61 -125 q-22 -21 -88 -68h15q55 0 101 -38q71 -57 71 -160q0 -97 -85 -185q-60 -61 -133 -101zM947 1255q167 79 285 122q-58 -73 -101 -136q-41 -60 -198 -340q-32 -59 -163 -284q-149 -255 -254 -465q-75 -18 -161 -60q-94 -48 -226 -114q428 454 818 1277zM1030 795l25 -25 q-44 -47 -44 -90q0 -48 46 -95q24 -25 104 -66q49 39 49 95q0 49 -25 78q-20 25 -76 36l79 63q54 43 99 43q35 0 61 -24q31 -29 31 -79q0 -58 -55 -122q-36 -41 -118 -110q186 -71 186 -175q0 -117 -208 -247q-142 -88 -218 -88q-56 0 -101 36q-54 43 -54 125q0 72 56 129 q38 39 127 104l22 16q-102 51 -138 85t-36 83q0 57 52 110q38 38 136 118zM1061 378q-68 -72 -68 -136q0 -47 29 -83q39 -47 94 -47q44 0 75 32q30 32 30 74q0 48 -41 87q-22 21 -68 46q-50 28 -51 27z" />
<glyph unicode="&#x215d;" horiz-adv-x="1444" d="M59 992l234 369q116 -30 232 -30q40 0 101 10q-42 -77 -84 -135q-25 -36 -41 -46q-17 -11 -44 -11q-96 0 -221 36l-27 -43q114 -60 165 -103q121 -102 121 -199t-93 -184q-93 -88 -271 -198l-19 38q108 73 145 106q64 58 64 128q0 89 -81 160q-48 43 -181 102zM947 1255 q167 79 285 122q-58 -73 -102 -136q-41 -60 -198 -340q-32 -59 -163 -284q-148 -255 -253 -465q-76 -18 -161 -60q-106 -53 -226 -114q428 454 818 1277zM1029 795l26 -25q-45 -47 -45 -90q0 -48 46 -95q25 -25 105 -66q48 39 48 95q0 49 -25 78q-20 25 -75 36l79 63 q54 43 99 43q35 0 61 -24q31 -28 31 -79q0 -58 -56 -122q-34 -40 -118 -110q187 -71 187 -175q0 -117 -208 -247q-142 -88 -217 -88q-56 0 -101 36q-55 43 -55 125q0 58 34 104q33 44 171 145q-101 50 -138 85q-36 33 -36 83q0 57 52 110q40 40 135 118zM1061 378 q-68 -72 -68 -136q0 -47 30 -83q39 -47 93 -47q44 0 75 32q30 32 30 74q0 48 -41 87q-22 21 -69 46q-49 28 -50 27z" />
<glyph unicode="&#x215e;" horiz-adv-x="1443" d="M617 1338l28 -29q-126 -173 -193 -311q-65 -134 -105 -249q-15 -45 -15 -64q0 -16 14 -43q-101 -52 -239 -123q57 121 122 234q112 195 181 349l19 44q-27 -1 -62 -2h-40q-100 0 -151 9q-97 16 -97 67q0 23 39 56q9 9 27 25l87 80q72 -54 240 -54q61 0 145 11zM948 1255 q167 79 285 122q-59 -73 -102 -136q-41 -60 -198 -340q-32 -59 -163 -284q-148 -255 -253 -465q-76 -18 -162 -60q-105 -53 -225 -114q427 454 818 1277zM1030 795l25 -25q-44 -47 -44 -90q0 -48 46 -95q24 -25 104 -66q49 39 49 95q0 49 -25 78q-20 25 -76 36l79 63 q54 43 100 43q34 0 60 -24q31 -28 31 -79q0 -58 -55 -122q-37 -42 -118 -110q187 -71 187 -175q0 -117 -208 -247q-142 -88 -217 -88q-56 0 -101 36q-55 43 -55 125q0 58 34 104q33 44 171 145q-102 51 -139 85q-36 34 -36 83q0 57 52 110q40 40 136 118zM1061 378 q-68 -72 -68 -136q0 -47 30 -83q38 -47 93 -47q44 0 75 32q30 32 30 74q0 48 -41 87q-22 21 -68 46q-50 28 -51 27z" />
<glyph unicode="&#x2190;" horiz-adv-x="1365" d="M1338 636h-1024q107 -159 107 -212q0 -29 -30 -29q-16 0 -32 17q-8 9 -41 47q-90 96 -245 182q-26 14 -33 20q-13 11 -13 27q0 18 16 29q7 6 30 19q177 97 271 211q30 34 47 34q30 0 30 -29q0 -51 -107 -212h1024v-104z" />
<glyph unicode="&#x2191;" horiz-adv-x="1365" d="M631 27v1024q-159 -107 -212 -107q-29 0 -29 30q0 15 17 32q9 7 47 41q96 90 182 244q14 27 20 34q11 13 27 13q18 0 29 -15q5 -8 19 -32q98 -176 211 -270q34 -30 34 -47q0 -30 -29 -30q-51 0 -212 107v-1024h-104z" />
<glyph unicode="&#x2192;" horiz-adv-x="1365" d="M27 740h1024q-107 159 -107 212q0 29 30 29q16 0 32 -17q8 -9 41 -47q90 -96 245 -182q26 -14 33 -20q13 -11 13 -27q0 -18 -16 -29q-7 -6 -30 -19q-177 -97 -271 -211q-30 -34 -47 -34q-30 0 -30 29q0 51 107 212h-1024v104z" />
<glyph unicode="&#x2193;" horiz-adv-x="1365" d="M735 1338v-1024q159 107 212 107q29 0 29 -30q0 -16 -17 -32q-9 -8 -47 -41q-96 -91 -182 -245q-14 -26 -20 -33q-11 -13 -27 -13q-18 0 -29 16q-6 7 -19 30q-97 177 -211 271q-34 30 -34 47q0 30 29 30q51 0 212 -107v1024h104z" />
<glyph unicode="&#x2194;" horiz-adv-x="1365" d="M1051 636h-737q107 -160 107 -212q0 -29 -30 -29q-16 0 -32 17q-8 9 -41 47q-90 96 -245 182q-26 14 -33 20q-13 11 -13 27q0 18 16 29q7 6 30 19q177 97 271 211q30 34 47 34q30 0 30 -29q0 -51 -107 -212h737q-107 159 -107 212q0 29 30 29q16 0 32 -17q8 -9 41 -47 q90 -96 245 -182q26 -14 33 -20q13 -11 13 -27q0 -18 -16 -29q-7 -6 -30 -19q-177 -97 -271 -211q-30 -34 -47 -34q-30 0 -30 29q0 51 107 212z" />
<glyph unicode="&#x2195;" horiz-adv-x="1365" d="M631 314v737q-159 -107 -212 -107q-29 0 -29 30q0 15 17 32q9 7 47 41q96 90 182 244q14 27 20 34q11 13 27 13q18 0 29 -15q5 -8 19 -32q98 -176 211 -270q34 -30 34 -47q0 -30 -29 -30q-51 0 -212 107v-737q156 107 212 107q29 0 29 -30q0 -16 -17 -32q-9 -8 -47 -41 q-96 -91 -182 -245q-14 -26 -20 -33q-11 -13 -27 -13q-18 0 -29 16q-6 7 -19 30q-97 177 -211 271q-34 30 -34 47q0 30 29 30q53 0 212 -107z" />
<glyph unicode="&#x21a8;" horiz-adv-x="1365" d="M410 -139h545v-88h-545v88zM631 314v737q-159 -107 -212 -107q-29 0 -29 30q0 15 17 32q9 7 47 41q96 90 182 244q14 27 20 34q11 13 27 13q18 0 29 -15q5 -8 19 -32q98 -176 211 -270q34 -30 34 -47q0 -30 -29 -30q-51 0 -212 107v-737q156 107 212 107q29 0 29 -30 q0 -16 -17 -32q-9 -8 -47 -41q-96 -91 -182 -245q-14 -26 -20 -33q-11 -13 -27 -13q-18 0 -29 16q-6 7 -19 30q-97 177 -211 271q-34 30 -34 47q0 30 29 30q53 0 212 -107z" />
<glyph unicode="&#x2202;" d="M147 1175l28 190q187 -23 320 -75q125 -49 228.5 -144t165.5 -218q89 -178 89 -398q0 -212 -91 -350q-64 -97 -164 -149q-97 -51 -213 -51q-144 0 -263 82q-95 65 -148.5 167.5t-53.5 217.5q0 90 34.5 175t95.5 146q120 119 294 119q107 0 186 -46q39 -22 85 -70 q-54 121 -113 186q-99 104 -271 170q-91 35 -209 48zM511 726q-103 0 -175 -86q-69 -82 -69 -203q0 -133 83 -222q67 -71 160 -71q108 0 177 89q68 88 68 209q0 143 -87 224q-66 60 -157 60z" />
<glyph unicode="&#x2205;" horiz-adv-x="1266" d="M907 1125q45 -31 77 -64q146 -147 146 -351q0 -205 -146 -352q-144 -145 -351 -145q-87 0 -172 31l-110 -217l-100 52l110 215q-45 31 -78 64q-146 148 -146 352q0 205 146 351q144 145 351 145q85 0 174 -31l110 217l98 -51zM854 1022l-341 -675q62 -20 120 -20 q159 0 270 112q113 113 113 271q0 156 -113 270q-20 21 -49 42zM413 397l343 675q-62 20 -121 20q-160 0 -271 -112q-113 -113 -113 -270q0 -191 162 -313z" />
<glyph unicode="&#x2206;" horiz-adv-x="1365" d="M43 0l518 1365h236l526 -1365h-1280zM356 204h650l-326 895z" />
<glyph unicode="&#x220f;" horiz-adv-x="1473" d="M79 1536h1315v-204h-169v-1640h169v-204h-552v204h165v1640h-543v-1640h165v-204h-550v204h167v1640h-167v204z" />
<glyph unicode="&#x2211;" horiz-adv-x="1365" d="M1251 1536v-496h-196l-23 292h-738l513 -783l-513 -857h758l12 288h206v-492h-1222v227l503 834l-503 761v226h1203z" />
<glyph unicode="&#x2212;" d="M921 754v-116h-819v116h819z" />
<glyph unicode="&#x2215;" horiz-adv-x="78" d="M306 1255q167 79 285 122q-58 -73 -102 -136q-41 -60 -198 -340q-32 -59 -163 -284q-148 -255 -253 -465q-76 -18 -161 -60q-125 -63 -226 -114q428 454 818 1277z" />
<glyph unicode="&#x2219;" horiz-adv-x="438" d="M242 724q22 -61 54 -101q23 -29 74 -75l-128 -87q-45 -31 -70 -31q-32 0 -60 31q-49 53 -49 115q0 35 22 56q11 11 42 28z" />
<glyph unicode="&#x221a;" horiz-adv-x="1365" d="M1365 1701v-204h-380l-380 -1497h-284l-137 578h-184v204h364l52 -214q19 -83 40 -294h18q21 164 48 304t76 336l198 787h569z" />
<glyph unicode="&#x221e;" horiz-adv-x="1365" d="M687 554q-145 -183 -327 -183q-157 0 -250 109q-75 86 -75 218q0 153 104 243q94 81 221 81q129 0 246 -104q38 -33 72 -77q135 181 326 181q167 0 260 -119q65 -84 65 -207q0 -154 -103 -245q-91 -81 -218 -81q-185 0 -321 184zM790 697q92 -142 187 -142q60 0 101 44 q36 40 36 97q0 69 -50 110q-39 31 -88 31q-77 0 -142 -79q-9 -12 -26.5 -36t-17.5 -25zM574 696q-90 141 -187 141q-60 0 -101 -44q-36 -39 -36 -96q0 -69 51 -109q39 -32 87 -32q76 0 142 80q10 11 27 35t17 25z" />
<glyph unicode="&#x221f;" horiz-adv-x="2048" d="M123 0v1782h135v-1647h1667v-135h-1802z" />
<glyph unicode="&#x2229;" horiz-adv-x="1293" d="M1186 0h-218v620q0 161 -8 245q-12 118 -63 184q-43 56 -110 88t-140 32q-110 0 -198 -67q-51 -38 -77 -90.5t-37 -137.5q-10 -82 -10 -254v-620h-218v614q0 230 12 322q30 216 205 336q137 93 322 93q186 0 323 -93q175 -120 204 -336q13 -96 13 -322v-614z" />
<glyph unicode="&#x222a;" horiz-adv-x="1293" d="M107 1365h218v-620q0 -161 8 -245q12 -118 63 -184q43 -55 110.5 -87.5t139.5 -32.5q110 0 198 67q51 38 77 90.5t37 137.5q10 80 10 254v620h218v-614q0 -230 -12 -322q-30 -216 -205 -336q-137 -93 -322 -93q-186 0 -322 93q-176 120 -205 336q-13 96 -13 322v614z" />
<glyph unicode="&#x222b;" d="M138 -491l42 195q63 -21 106 -21q102 0 114 107q3 31 3 155v1091q0 114 2 186q5 134 63 208q81 106 249 106q68 0 169 -22l-42 -194q-62 20 -105 20q-103 0 -115 -106q-2 -22 -3 -265v-982q0 -193 -8 -248q-37 -250 -315 -250q-87 0 -160 20z" />
<glyph unicode="&#x222e;" d="M136 -491l43 195q63 -21 106 -21q101 0 113 107q4 31 4 155v161q-94 25 -170 84q-74 56 -118 140q-50 96 -50 201q0 143 87 260q92 122 251 164v129q0 189 20 259q25 91 107 145q71 48 187 48q68 0 169 -22l-42 -194q-63 20 -106 20q-102 0 -114 -106q-3 -27 -3 -156 v-122q101 -28 165 -77q79 -61 125 -148q49 -94 49 -200q0 -143 -86 -259q-92 -125 -253 -166v-119q0 -193 -8 -248q-35 -250 -315 -250q-87 0 -161 20zM620 813v-560q65 31 93 59q92 89 92 220q0 196 -185 281zM402 254v559q-58 -26 -90 -57q-94 -91 -94 -223 q0 -140 101 -228q34 -29 83 -51z" />
<glyph unicode="&#x223c;" d="M138 520l-122 80q36 84 75 142q84 123 222 123q73 0 220 -59q100 -41 126 -47q32 -8 60 -8q66 0 109 43q22 23 53 75l127 -74q-69 -142 -136 -193q-82 -62 -179 -62q-62 0 -295 92q-56 22 -101 22q-64 0 -108 -53q-21 -25 -51 -81z" />
<glyph unicode="&#x2248;" d="M138 712l-122 80q37 87 75 142q84 123 223 123q72 0 219 -61q101 -41 126 -47q31 -8 60 -8q66 0 109 44q23 24 53 76l127 -74q-69 -142 -136 -193q-81 -63 -178 -63q-63 0 -296 93q-56 22 -101 22q-64 0 -108 -52q-21 -26 -51 -82zM138 326l-122 80q37 87 75 142 q84 123 223 123q72 0 219 -60q100 -41 126 -47q33 -8 62 -8q64 0 107 44q23 23 53 75l127 -74q-68 -141 -136 -193q-81 -62 -179 -62q-62 0 -295 92q-56 22 -101 22q-63 0 -108 -52q-22 -27 -51 -82z" />
<glyph unicode="&#x2260;" d="M609 768l-66 -143h358v-116h-413l-97 -208l-105 49l74 159h-237v116h291l67 143h-358v116h412l98 208l105 -49l-74 -159h237v-116h-292z" />
<glyph unicode="&#x2261;" d="M68 1108h887v-196h-887v196zM68 792h887v-196h-887v196zM68 475h887v-196h-887v196z" />
<glyph unicode="&#x2264;" d="M955 1321v-207l-655 -298l655 -297v-207l-887 408v185zM955 253v-204h-887v204h887z" />
<glyph unicode="&#x2265;" d="M68 312v207l655 298l-655 297v207l887 -416v-185zM68 49v204h887v-204h-887z" />
<glyph unicode="&#x22c5;" horiz-adv-x="438" d="M242 724q22 -61 54 -101q23 -29 74 -75l-128 -87q-45 -31 -70 -31q-32 0 -60 31q-49 53 -49 115q0 35 22 56q11 11 42 28z" />
<glyph unicode="&#x2302;" horiz-adv-x="1538" d="M172 0v821l597 672l597 -672v-821h-1194zM276 104h986v672l-493 553l-493 -553v-672z" />
<glyph unicode="&#x2310;" d="M286 0h-218v546h887v-204h-669v-342z" />
<glyph unicode="&#x2319;" d="M286 546v-342h669v-204h-887v546h218z" />
<glyph unicode="&#x2320;" d="M621 -512h-218v1564q0 219 20 292q23 84 98 139q74 53 195 53q68 0 169 -22l-42 -194q-61 20 -105 20q-102 0 -114 -106q-3 -26 -3 -155v-1591z" />
<glyph unicode="&#x2321;" d="M403 1536h218v-1564q0 -220 -20 -292q-23 -85 -98 -140q-74 -53 -194 -53q-68 0 -170 22l42 194q61 -19 105 -19q103 0 114 106q3 27 3 155v1591z" />
<glyph unicode="&#x2500;" horiz-adv-x="2048" d="M0 444v135h2048v-135h-2048z" />
<glyph unicode="&#x2502;" horiz-adv-x="2048" d="M956 -512v2048h135v-2048h-135z" />
<glyph unicode="&#x250c;" horiz-adv-x="2048" d="M2048 579v-135h-957v-956h-135v1091h1092z" />
<glyph unicode="&#x2510;" horiz-adv-x="2048" d="M957 444h-957v135h1092v-1091h-135v956z" />
<glyph unicode="&#x2514;" horiz-adv-x="2048" d="M1091 579h957v-135h-1092v1092h135v-957z" />
<glyph unicode="&#x2518;" horiz-adv-x="2048" d="M0 444v135h957v957h135v-1092h-1092z" />
<glyph unicode="&#x251c;" horiz-adv-x="2048" d="M1091 579h957v-135h-957v-956h-135v2048h135v-957z" />
<glyph unicode="&#x2524;" horiz-adv-x="2048" d="M957 444h-957v135h957v957h135v-2048h-135v956z" />
<glyph unicode="&#x252c;" horiz-adv-x="2048" d="M1091 444v-956h-135v956h-956v135h2048v-135h-957z" />
<glyph unicode="&#x2534;" horiz-adv-x="2048" d="M956 579v957h135v-957h957v-135h-2048v135h956z" />
<glyph unicode="&#x253c;" horiz-adv-x="2048" d="M956 444h-956v135h956v957h135v-957h957v-135h-957v-956h-135v956z" />
<glyph unicode="&#x2550;" horiz-adv-x="2048" d="M0 309v135h2048v-135h-2048zM0 580v135h2048v-135h-2048z" />
<glyph unicode="&#x2551;" horiz-adv-x="2048" d="M821 -512v2048h135v-2048h-135zM1092 -512v2048h135v-2048h-135z" />
<glyph unicode="&#x2552;" horiz-adv-x="2048" d="M956 -512v1227h1092v-135h-957v-136h957v-135h-957v-821h-135z" />
<glyph unicode="&#x2553;" horiz-adv-x="2048" d="M1091 444h-135v-956h-135v1091h1227v-135h-822v-956h-135v956z" />
<glyph unicode="&#x2554;" horiz-adv-x="2048" d="M956 580v-1092h-135v1227h1227v-135h-1092zM1226 309v-821h-135v956h957v-135h-822z" />
<glyph unicode="&#x2555;" horiz-adv-x="2048" d="M957 309h-957v135h957v136h-957v135h1092v-1227h-135v821z" />
<glyph unicode="&#x2556;" horiz-adv-x="2048" d="M956 444v-956h-135v956h-821v135h1227v-1091h-135v956h-136z" />
<glyph unicode="&#x2557;" horiz-adv-x="2048" d="M1092 580h-1092v135h1227v-1227h-135v1092zM821 309h-821v135h956v-956h-135v821z" />
<glyph unicode="&#x2558;" horiz-adv-x="2048" d="M956 1536h135v-821h957v-135h-957v-136h957v-135h-1092v1227z" />
<glyph unicode="&#x2559;" horiz-adv-x="2048" d="M1091 579v957h135v-957h822v-135h-1227v1092h135v-957h135z" />
<glyph unicode="&#x255a;" horiz-adv-x="2048" d="M956 444h1092v-135h-1227v1227h135v-1092zM1226 715h822v-135h-957v956h135v-821z" />
<glyph unicode="&#x255b;" horiz-adv-x="2048" d="M957 715v821h135v-1227h-1092v135h957v136h-957v135h957z" />
<glyph unicode="&#x255c;" horiz-adv-x="2048" d="M956 579h136v957h135v-1092h-1227v135h821v957h135v-957z" />
<glyph unicode="&#x255d;" horiz-adv-x="2048" d="M1092 444v1092h135v-1227h-1227v135h1092zM821 715v821h135v-956h-956v135h821z" />
<glyph unicode="&#x255e;" horiz-adv-x="2048" d="M956 1536h135v-821h957v-135h-957v-136h957v-135h-957v-821h-135v2048z" />
<glyph unicode="&#x255f;" horiz-adv-x="2048" d="M1226 444v-956h-135v2048h135v-957h822v-135h-822zM956 -512h-135v2048h135v-2048z" />
<glyph unicode="&#x2560;" horiz-adv-x="2048" d="M821 -512v2048h135v-2048h-135zM1226 715h822v-135h-957v956h135v-821zM1226 309v-821h-135v956h957v-135h-822z" />
<glyph unicode="&#x2561;" horiz-adv-x="2048" d="M957 715v821h135v-2048h-135v821h-957v135h957v136h-957v135h957z" />
<glyph unicode="&#x2562;" horiz-adv-x="2048" d="M821 444h-821v135h821v957h135v-2048h-135v956zM1092 -512v2048h135v-2048h-135z" />
<glyph unicode="&#x2563;" horiz-adv-x="2048" d="M1227 -512h-135v2048h135v-2048zM821 715v821h135v-956h-956v135h821zM821 309h-821v135h956v-956h-135v821z" />
<glyph unicode="&#x2564;" horiz-adv-x="2048" d="M0 715h2048v-135h-2048v135zM956 309h-956v135h2048v-135h-957v-821h-135v821z" />
<glyph unicode="&#x2565;" horiz-adv-x="2048" d="M821 444h-821v135h2048v-135h-821v-956h-135v956h-136v-956h-135v956z" />
<glyph unicode="&#x2566;" horiz-adv-x="2048" d="M0 715h2048v-135h-2048v135zM1227 309v-821h-135v956h956v-135h-821zM821 309h-821v135h956v-956h-135v821z" />
<glyph unicode="&#x2567;" horiz-adv-x="2048" d="M0 309v135h2048v-135h-2048zM956 715v821h135v-821h957v-135h-2048v135h956z" />
<glyph unicode="&#x2568;" horiz-adv-x="2048" d="M0 444v135h821v957h135v-957h136v957h135v-957h821v-135h-2048z" />
<glyph unicode="&#x2569;" horiz-adv-x="2048" d="M0 309v135h2048v-135h-2048zM1227 715h821v-135h-956v956h135v-821zM821 715v821h135v-956h-956v135h821z" />
<glyph unicode="&#x256a;" horiz-adv-x="2048" d="M956 444v136h-956v135h956v821h135v-821h957v-135h-957v-136h957v-135h-957v-821h-135v821h-956v135h956z" />
<glyph unicode="&#x256b;" horiz-adv-x="2048" d="M821 444h-821v135h821v957h135v-957h136v957h135v-957h821v-135h-821v-956h-135v956h-136v-956h-135v956z" />
<glyph unicode="&#x256c;" horiz-adv-x="2048" d="M1227 715h821v-135h-956v956h135v-821zM821 715v821h135v-956h-956v135h821zM1227 309v-821h-135v956h956v-135h-821zM821 309h-821v135h956v-956h-135v821z" />
<glyph unicode="&#x2580;" horiz-adv-x="2048" d="M0 512v1024h2048v-1024h-2048z" />
<glyph unicode="&#x2584;" horiz-adv-x="2048" d="M0 -512v1024h2048v-1024h-2048z" />
<glyph unicode="&#x2588;" horiz-adv-x="2048" d="M0 -512v2048h2048v-2048h-2048z" />
<glyph unicode="&#x258c;" horiz-adv-x="2048" d="M0 -512v2048h1024v-2048h-1024z" />
<glyph unicode="&#x2590;" horiz-adv-x="2048" d="M1024 -512v2048h1024v-2048h-1024z" />
<glyph unicode="&#x2591;" horiz-adv-x="2048" d="M0 1536h205v-205h-205v205zM410 1536h205v-205h-205v205zM1638 1536h205v-205h-205v205zM819 1536h205v-205h-205v205zM1229 1536h205v-205h-205v205zM0 1126h205v-205h-205v205zM0 717h205v-205h-205v205zM0 307h205v-205h-205v205zM0 -102h205v-205h-205v205zM410 1126 h205v-205h-205v205zM410 717h205v-205h-205v205zM410 307h205v-205h-205v205zM410 -102h205v-205h-205v205zM819 1126h205v-205h-205v205zM819 717h205v-205h-205v205zM819 307h205v-205h-205v205zM819 -102h205v-205h-205v205zM1229 1126h205v-205h-205v205zM1229 717h205 v-205h-205v205zM1229 307h205v-205h-205v205zM1229 -102h205v-205h-205v205zM1638 1126h205v-205h-205v205zM1638 717h205v-205h-205v205zM1638 307h205v-205h-205v205zM1638 -102h205v-205h-205v205z" />
<glyph unicode="&#x2592;" horiz-adv-x="2048" d="M1843 -308h205v-205h-205v205h-205v-205h-204v205h-205v-205h-205v205h-205v-205h-205v205h-204v-205h-205v205h-205v205h205v-205h205v205h204v-205h205v205h205v-205h205v205h205v-205h204v205h205v205h-205v-205h-204v205h-205v-205h-205v205h-205v-205h-205v205h-204 v-205h-205v205h-205v205h205v-205h205v205h204v-205h205v205h205v-205h205v205h205v-205h204v205h205v205h-205v-205h-204v205h-205v-205h-205v205h-205v-205h-205v205h-204v-205h-205v205h-205v205h205v-205h205v205h204v-205h205v205h205v-205h205v205h205v-205h204v205 h205v205h-205v-205h-204v205h-205v-205h-205v205h-205v-205h-205v205h-204v-205h-205v205h-205v204h205v-204h205v204h204v-204h205v204h205v-204h205v204h205v-204h204v204h205v205h-205v-205h-204v205h-205v-205h-205v205h-205v-205h-205v205h-204v-205h-205v205h-205v205 h205v-205h205v205h204v-205h205v205h205v-205h205v205h205v-205h204v205h205v-205h205v-205h-205v-204h205v-205h-205v-205h205v-205h-205v-205h205v-205h-205v-205z" />
<glyph unicode="&#x2593;" horiz-adv-x="2048" d="M2048 -512h-2048v205h205v205h-205v205h205v204h-205v205h205v205h-205v205h205v204h-205v205h205v205h205v-205h204v205h205v-205h205v205h205v-205h204v205h205v-205h205v205h205v-2048zM1843 1126h-205v-204h205v204zM1433 1126h-204v-204h204v204zM1024 1126h-205 v-204h205v204zM614 1126h-204v-204h204v204zM1843 717h-205v-205h205v205zM1433 717h-204v-205h204v205zM1024 717h-205v-205h205v205zM614 717h-204v-205h204v205zM1843 307h-205v-204h205v204zM1433 307h-204v-204h204v204zM1024 307h-205v-204h205v204zM614 307h-204 v-204h204v204zM1843 -102h-205v-205h205v205zM1433 -102h-204v-205h204v205zM1024 -102h-205v-205h205v205zM614 -102h-204v-205h204v205z" />
<glyph unicode="&#x25a0;" horiz-adv-x="1365" d="M1365 0h-1365v1365h1365v-1365z" />
<glyph unicode="&#x25a1;" horiz-adv-x="1365" d="M1365 0h-1365v1365h1365v-1365zM1269 96v1173h-1173v-1173h1173z" />
<glyph unicode="&#x25ac;" horiz-adv-x="1365" d="M1365 1024v-683h-1365v683h1365z" />
<glyph unicode="&#x25ae;" horiz-adv-x="1365" d="M1024 0h-683v1365h683v-1365z" />
<glyph unicode="&#x25af;" horiz-adv-x="1365" d="M1024 0h-683v1365h683v-1365zM928 96v1173h-491v-1173h491z" />
<glyph unicode="&#x25b2;" horiz-adv-x="1365" d="M1297 137h-1229l614 1150z" />
<glyph unicode="&#x25b4;" d="M955 300h-887l444 830z" />
<glyph unicode="&#x25b8;" d="M146 243v887l830 -443z" />
<glyph unicode="&#x25bc;" horiz-adv-x="1365" d="M68 1229h1229l-615 -1150z" />
<glyph unicode="&#x25be;" d="M68 1065h887l-443 -830z" />
<glyph unicode="&#x25c2;" d="M878 243l-830 444l830 443v-887z" />
<glyph unicode="&#x25ca;" horiz-adv-x="1365" d="M683 1419l532 -736l-532 -736l-532 736zM683 1237l-404 -554l404 -555l403 555z" />
<glyph unicode="&#x25cb;" horiz-adv-x="1365" d="M689 1207q102 0 200.5 -41.5t172.5 -114.5q154 -153 154 -369q0 -214 -154 -368q-157 -156 -379 -156t-379 156q-154 154 -154 367q0 104 41 201.5t113 168.5q161 156 385 156zM678 1113q-176 0 -305 -127q-127 -124 -127 -304q0 -178 127 -303q129 -127 310 -127 t310 127q127 125 127 302q0 183 -127 305q-132 127 -315 127z" />
<glyph unicode="&#x25d8;" horiz-adv-x="1365" d="M0 0v1365h1365v-1365h-1365zM679 969q-113 0 -195 -83q-83 -84 -83 -204q0 -119 83 -203q82 -83 199 -83q116 0 198 83q83 85 83 203q0 121 -83 204q-84 83 -202 83z" />
<glyph unicode="&#x25d9;" horiz-adv-x="1365" d="M1365 0h-1365v1365h1365v-1365zM676 1207q-101 0 -199.5 -41.5t-172.5 -114.5q-154 -153 -154 -369q0 -214 154 -368q157 -156 379 -156q221 0 378 156q154 154 154 367q0 104 -40.5 201.5t-113.5 168.5q-161 156 -385 156zM688 1113q175 0 305 -127q127 -124 127 -303 t-127 -303q-129 -127 -310 -127q-182 0 -311 127q-127 125 -127 302q0 183 127 304q133 127 316 127z" />
<glyph unicode="&#x25e6;" d="M515 982q113 0 195 -83q83 -84 83 -203t-83 -203q-82 -83 -198 -83q-117 0 -199 83q-83 84 -83 202q0 122 83 204q84 83 202 83zM509 885q-74 0 -128 -55q-55 -55 -55 -134t55 -134q54 -55 131 -55q76 0 130 55q55 55 55 134q0 80 -55 134q-56 55 -133 55z" />
<glyph unicode="&#x25fc;" horiz-adv-x="935" d="M0 935h935v-935h-935v935z" />
<glyph unicode="&#x263a;" horiz-adv-x="1365" d="M691 1331q125 0 242 -49t207 -140q91 -91 141 -211.5t50 -248.5q0 -127 -49.5 -247t-141.5 -212q-188 -189 -457 -189q-270 0 -458 189q-91 92 -141 211.5t-50 246.5q0 129 50.5 251t140.5 210q193 189 466 189zM676 1246q-227 0 -391 -164q-166 -166 -166 -400 q0 -232 166 -399q163 -164 398 -164q234 0 397 164q79 80 122.5 184t43.5 214q0 112 -44 218t-122 183q-168 164 -404 164zM491 954q36 0 63 -26q26 -27 26 -64t-26 -64q-27 -26 -64 -26t-63 26q-27 27 -27 64q0 38 27 64t64 26zM876 954q36 0 63 -26q26 -27 26 -64t-26 -64 q-27 -26 -64 -26t-63 26q-27 27 -27 64q0 38 27 64t64 26zM262 762q25 -109 85 -182q120 -144 337 -144t337 144q59 73 85 182q-17 -225 -103 -331q-117 -143 -319 -143q-223 0 -338 169q-69 101 -84 305z" />
<glyph unicode="&#x263b;" horiz-adv-x="1365" d="M691 1331q125 0 242 -49t207 -140q91 -91 141 -211.5t50 -248.5q0 -127 -49.5 -247t-141.5 -212q-188 -189 -457 -189q-270 0 -458 189q-91 92 -141 211.5t-50 246.5q0 129 50.5 251t140.5 210q193 189 466 189zM489 953q-36 0 -62 -26q-27 -27 -27 -64t27 -64 q26 -26 63 -26t64 26q26 27 26 64q0 38 -26 64q-28 26 -65 26zM874 953q-36 0 -62 -26q-27 -27 -27 -64t27 -64q26 -26 63 -26t64 26q26 27 26 64q0 38 -26 64q-27 26 -65 26zM262 761q16 -224 103 -330q117 -143 319 -143q223 0 338 169q69 101 84 304q-26 -109 -85 -181 q-120 -144 -337 -144t-337 144q-60 72 -85 181z" />
<glyph unicode="&#x263c;" horiz-adv-x="1365" d="M326 968l-153 152l72 72l154 -153q104 83 232 98v215h103v-216q135 -16 233 -96l153 152l72 -72l-153 -152q80 -100 96 -232h216v-105h-216q-16 -133 -96 -233l153 -153l-72 -72l-153 153q-102 -81 -233 -97v-215h-103v216q-119 12 -233 95l-153 -152l-72 72l152 152 q-81 101 -94 234h-216v105h215q16 129 96 232zM678 1010q-140 0 -238 -108q-84 -93 -84 -218q0 -146 108 -244q93 -84 219 -84q145 0 242 108q84 94 84 222q0 141 -108 240q-92 84 -223 84z" />
<glyph unicode="&#x2640;" horiz-adv-x="1365" d="M732 0h-98v341h-332v88h332v216q-93 14 -166 67q-73 52 -113 133q-41 80 -41 170q0 156 110 266q108 108 259 108t259 -108q110 -110 110 -266q0 -122 -71 -221q-91 -125 -249 -149v-216h332v-88h-332v-341zM680 1293q-109 0 -189 -80q-81 -81 -81 -198q0 -116 81 -198 q80 -80 192 -80t192 80q81 82 81 197q0 119 -81 199q-82 80 -195 80z" />
<glyph unicode="&#x2642;" horiz-adv-x="1365" d="M789 781l310 310q-108 25 -217 82q-44 23 -44 47q0 25 27 25q12 0 41 -6q87 -18 169 -18q113 0 217 28q11 3 21 3q20 0 20 -22q0 -8 -7 -32q-24 -90 -24 -192q0 -85 19 -173q6 -29 6 -40q0 -28 -26 -28q-20 0 -40 31q-67 100 -94 227l-311 -311q72 -103 72 -223 q0 -156 -109 -266q-108 -108 -259 -108q-152 0 -260 108q-109 110 -109 266t109 266q108 108 259 108q124 0 230 -82zM556 767q-108 0 -188 -80q-81 -81 -81 -198q0 -116 81 -198q80 -80 192 -80q111 0 191 80q81 82 81 197q0 119 -81 199q-82 80 -195 80z" />
<glyph unicode="&#x2660;" horiz-adv-x="1365" d="M1148 0h-932v38q182 32 257 85q193 138 195 399q-30 -70 -69 -112q-91 -97 -217 -97q-102 0 -175 71q-77 76 -77 187q0 120 103 238q43 48 155 142q249 209 294 453q45 -244 294 -453q128 -107 175 -166q83 -106 83 -214q0 -111 -77 -187q-73 -71 -175 -71q-82 0 -157 48 q-82 51 -129 161q2 -153 71 -268q94 -147 254 -189q57 -15 127 -27v-38z" />
<glyph unicode="&#x2663;" horiz-adv-x="1365" d="M1149 0h-932v38q125 22 192 50q262 124 260 473q-146 -261 -362 -261q-126 0 -214 91q-87 90 -87 220q0 124 76 211q79 90 194 90q56 0 121 -31q5 -2 56 -27q-73 108 -73 204q0 122 90 208q89 85 213 85t213 -85q90 -86 90 -208q0 -96 -73 -204q15 8 32 16q85 42 145 42 q115 0 194 -90q76 -87 76 -211q0 -130 -87 -220q-88 -91 -214 -91q-216 0 -362 261q2 -124 28 -211q35 -118 138 -205q75 -63 228 -96q28 -5 58 -11v-38z" />
<glyph unicode="&#x2665;" horiz-adv-x="1365" d="M683 -22q-32 128 -98 245q-72 125 -166 251l-118 160q-91 123 -126 186q-60 110 -60 211q0 120 79 200q75 77 186 77q123 0 211 -93q55 -59 92 -172q36 129 109 194q82 74 188 74q119 0 198 -85q73 -80 73 -195q0 -125 -99 -285q-34 -57 -180 -246q-240 -300 -289 -522z " />
<glyph unicode="&#x2666;" horiz-adv-x="1365" d="M163 683q119 133 255 326q148 208 265 410q117 -202 264 -410q137 -193 255 -326q-119 -134 -255 -327q-148 -208 -264 -409q-117 202 -265 409q-137 194 -255 327z" />
<glyph unicode="&#x266a;" horiz-adv-x="1365" d="M626 1365h93v-124q26 -34 137 -167q186 -222 186 -459q0 -192 -116 -333h-58q67 159 67 296q0 198 -116 310q-48 46 -100 54v-609q0 -138 -58 -221q-51 -73 -135 -107q-56 -23 -113 -23q-79 0 -117 44q-28 32 -28 79q0 52 27 103t73 85q66 49 149 49q56 0 109 -23v1046z " />
<glyph unicode="&#x266c;" horiz-adv-x="1365" d="M399 1202l862 220v-1015q0 -138 -58 -221q-51 -73 -135 -107q-56 -23 -114 -23q-78 0 -117 44q-28 32 -28 79q0 52 27 103t73 85q67 49 150 49q56 0 109 -23v554l-676 -185v-470q0 -138 -58 -221q-51 -73 -135 -107q-56 -23 -113 -23q-79 0 -117 43q-28 33 -28 80 q0 52 27 103t73 85q66 49 149 49q55 0 109 -22v923zM492 918l676 185v142l-676 -185v-142z" />
<glyph unicode="&#xea02;" horiz-adv-x="498" d="M498 726v-94h-498v94h498zM324 869q-25 -18 -34 -24q-23 -15 -76 -57v286q0 158 -39 158q-5 0 -21 -9l-11 23l113 95q21 18 36 18q24 0 30 -42q2 -16 2 -82v-366zM439 124q-52 -64 -106 -138q-50 22 -111 22q-68 0 -153 -21l-19 31l135 151q74 83 74 172q0 50 -40 79 q-37 26 -90 26q-29 0 -68 -13l-12 18l97 67q57 38 94 38q31 0 62.5 -20t49.5 -50q21 -35 21 -86q0 -77 -71 -163l-92 -111q54 5 104 5q39 0 125 -7z" />
<glyph unicode="&#xea03;" horiz-adv-x="498" d="M498 726v-94h-498v94h498zM324 869q-25 -18 -34 -24q-23 -15 -76 -57v286q0 158 -39 158q-5 0 -21 -9l-11 23l113 95q21 18 36 18q24 0 30 -42q2 -16 2 -82v-366zM252 393q49 32 108 78q-7 -136 -8 -200q31 1 106 9q-46 -62 -76 -110h-32q-1 -21 -1 -32q0 -22 4 -65 q-44 -30 -118 -91l6 63l3 39l3 38l3 34q-60 -2 -85 -3q-23 -1 -33 -1q-84 0 -84 65q0 42 70 152q84 133 158 210l30 -21q-67 -79 -104 -152q-34 -69 -34 -98q0 -42 46 -42q11 0 38 1q2 37 2 61q0 26 -2 65z" />
<glyph unicode="&#xea04;" horiz-adv-x="498" d="M498 726v-94h-498v94h498zM131 740l-9 26q75 43 98 71q39 45 39 97t-43 86q-37 27 -75 27q-11 0 -33 -2v23q48 17 75 38q48 38 48 80q0 32 -26 53q-21 16 -56 16q-29 0 -70 -17l-12 19q36 26 49 36q58 43 82 53q28 12 54 12q31 0 59 -17q51 -30 51 -86q0 -47 -44 -86 q-16 -15 -56 -42q43 -1 76 -26q50 -39 50 -110q0 -68 -61 -128q-41 -41 -93 -68zM252 393q49 32 108 78q-7 -136 -8 -200q31 1 106 9q-46 -62 -76 -110h-32q-1 -21 -1 -32q0 -22 4 -65q-44 -30 -118 -91l6 63l3 39l3 38l3 34q-60 -2 -85 -3q-23 -1 -33 -1q-84 0 -84 65 q0 42 70 152q84 133 158 210l30 -21q-67 -79 -104 -152q-34 -69 -34 -98q0 -42 46 -42q11 0 38 1q2 37 2 61q0 26 -2 65z" />
<glyph unicode="&#xea06;" horiz-adv-x="542" d="M473 1433q-37 -128 -53 -185q-38 -137 -85 -182q-99 -100 -267 -161q98 221 134 365q60 4 271 163z" />
<glyph unicode="&#xea11;" d="M76 1627l244 161q34 -52 59 -86q35 -44 88 -82l-72 -43q-106 -65 -165 -65q-56 0 -101 34q-27 21 -53 81zM557 1627l244 161q34 -52 59 -86q35 -44 88 -82l-72 -43q-106 -65 -165 -65q-56 0 -101 34q-27 21 -53 81z" />
<glyph unicode="&#xea12;" d="M317 1627l244 161q34 -52 59 -86q35 -44 88 -82l-72 -43q-106 -65 -165 -65q-56 0 -101 34q-27 21 -53 81z" />
<glyph unicode="&#xea13;" d="M515 1817q77 0 131 -60q46 -51 46 -120q0 -80 -60 -134q-51 -46 -120 -46q-80 0 -134 60q-46 51 -46 122q0 77 60 132q50 46 123 46zM512 1733q-40 0 -69 -31q-24 -28 -24 -64q0 -42 31 -71q27 -24 63 -24q43 0 71 31q24 27 24 65q0 41 -31 70q-27 24 -65 24z" />
<glyph unicode="&#xea14;" d="M540 1870l194 -124q-30 -49 -85 -121q-115 -150 -165 -150q-28 0 -193 80q84 44 249 315z" />
<glyph unicode="&#xea15;" d="M485 1870q164 -271 249 -315q-166 -80 -193 -80q-51 0 -165 150q-55 72 -85 121z" />
<glyph unicode="&#xea16;" d="M662 1485q-88 108 -127 138q-44 33 -91 33q-88 0 -241 -140l-32 26q58 64 195 202q61 63 104 91q26 17 58 17q70 0 186 -99q42 -37 136 -137z" />
<glyph unicode="&#xea17;" d="M359 1852q87 -108 127 -138q44 -33 91 -33q88 0 240 141l33 -27q-58 -64 -195 -202q-61 -63 -104 -91q-26 -17 -58 -17q-70 0 -186 100q-42 36 -136 136z" />
<glyph unicode="&#xea18;" d="M165 1799l32 20q146 -165 315 -165q170 0 316 165l32 -20q-60 -128 -103 -185q-105 -135 -245 -135q-99 0 -177 65q-56 45 -103 124q-25 41 -67 131z" />
<glyph unicode="&#xea19;" d="M830 1767l32 -11l-32 -124q-19 -72 -60 -110q-38 -34 -75 -34q-30 0 -78 18q-73 28 -138 54q-134 53 -185 53q-50 0 -74 -39q-8 -13 -19 -43l-33 11l30 90q33 100 60 126q30 30 64 30q56 0 196 -62q128 -57 153 -66.5t48 -9.5q44 0 78 50q11 18 33 67z" />
<glyph unicode="&#xea1a;" d="M742 1819l174 -111q-27 -44 -76 -109q-103 -135 -149 -135q-25 0 -173 72q76 39 224 283zM332 1819l174 -111q-26 -44 -76 -109q-103 -135 -148 -135q-26 0 -174 72q76 39 224 283z" />
<glyph unicode="&#xea1b;" d="M329 -206q62 45 99 69q72 46 119 46q40 0 85 -33q65 -49 65 -103q0 -52 -75 -103l-99 -67q7 27 7 39q0 35 -27.5 70.5t-70.5 55.5q-33 16 -103 26z" />
<glyph unicode="&#xea1c;" d="M656 27h116q-80 -52 -106 -87q-30 -40 -30 -87q0 -80 60 -124q39 -28 126 -28q29 0 77 8q-63 -73 -91 -95q-34 -27 -81 -27q-78 0 -143 59q-77 69 -77 161q0 87 68 158q25 25 81 62z" />
<glyph unicode="&#xea1d;" d="M944 1707l-205 -174q-44 14 -67 17q-22 3 -92 3h-500l194 154q236 -6 315 -6q55 0 355 6z" />
<glyph unicode="&#xea21;" horiz-adv-x="1602" d="M166 1628h254v-254h254v254h254v-254h254v254h254v-254h-254v-254h254v-254h-254v-254h254v-254h-254v-254h254v-254h-254v254h-254v254h254v254h-254v254h254v254h-254v254h-254v-254h254v-254h-254v-254h254v-254h-254v-254h254v-254h-254v254h-254v-254h-254v254h254 v254h-254v254h254v-254h254v254h-254v254h-254v254h254v-254h254v254h-254v254h-254v254z" />
<glyph unicode="&#xea31;" d="M518 1571q170 0 295 -123t125 -299q0 -175 -125 -298q-125 -124 -301 -124q-175 0 -301 124q-125 124 -125 297q0 179 125 300q128 123 307 123zM508 1475q-130 0 -226 -95q-96 -96 -96 -231t96 -231q95 -95 230 -95t231 95q95 95 95 231q0 138 -96 231q-98 95 -234 95z M667 1002l11 -18l-111 -69q-88 7 -140 47q-41 31 -65 77t-24 92q0 81 74 153q37 36 84 53l143 12l15 1q6 1 10 1q8 0 15 -7t7 -15q0 -16 -34 -38l-46 -31q-10 19 -33.5 31t-52.5 12q-37 0 -63 -34q-23 -29 -23 -75q0 -88 67 -148q56 -49 122 -49q15 0 44 5z" />
<glyph unicode="&#xea32;" d="M518 1570q170 0 295 -123t125 -298t-125 -298q-125 -124 -301 -124t-301 124q-125 123 -125 297q0 178 125 299q128 123 307 123zM508 1474q-130 0 -226 -95t-96 -230t96 -231q96 -95 230 -95q135 0 231 95q95 96 95 231q0 138 -96 230q-98 95 -234 95zM291 1277v20 l25 25q16 15 30 33l39 2q68 5 100 5q76 0 126 -23q61 -27 61 -85q0 -40 -37 -72q-16 -14 -48 -35q23 -39 75 -114q38 -55 49 -55q4 0 12 7l11 -16l-46 -32q-36 -25 -52 -25q-27 0 -61 59q-75 129 -93 162q90 31 90 82q0 67 -105 67h-13v-314l-104 -68q1 35 8 213 q2 119 2 164q-15 1 -22 1q-4 0 -25 -1h-22z" />
<glyph unicode="&#xea3f;" d="M717 1285l157 107l39 -37q78 -75 78 -124q0 -77 -229 -201l-6 9q68 72 68 111q0 34 -35 71q-23 24 -72 64z" />
<glyph unicode="&#xea66;" d="M360 -216l174 120l43 -42q87 -83 87 -137q0 -86 -255 -223l-6 10q75 79 75 124q0 37 -39 78q-25 28 -79 70z" />
<glyph unicode="&#xea67;" d="M1207 1273l174 119l43 -41q87 -84 87 -137q0 -86 -255 -223l-6 10q75 79 75 123q0 38 -39 79q-25 27 -79 70z" />
<glyph unicode="&#xea68;" d="M147 1601l192 144q68 -105 132 -150l-64 -39q-97 -59 -147 -59q-27 0 -50 13q-40 21 -63 91zM553 1601l192 144q31 -47 53 -76q32 -40 79 -74l-64 -39q-96 -59 -147 -59q-27 0 -51 13q-39 21 -62 91z" />
<glyph unicode="&#xea6a;" d="M483 1186l-40 -41q-53 -54 -113 -54q-50 0 -85 30q-22 18 -43 65l165 120q36 -67 116 -120zM822 1186l-40 -41q-53 -54 -113 -54q-50 0 -85 30q-22 18 -43 65l165 120q36 -67 116 -120z" />
<glyph unicode="&#xea6b;" horiz-adv-x="1061" d="M1008 228l16 -27l-316 -201q-141 13 -232 45t-175 98q-123 97 -193 242q-67 138 -67 271q0 116 57 236.5t163 224.5q139 138 317 182q179 44 321 44q67 0 116 -22q40 -18 40 -49q0 -36 -94 -100l-122 -82q-17 30 -38 46q-48 34 -111 56t-117 22q-56 0 -112.5 -30.5 t-96.5 -83.5q-73 -96 -73 -248q0 -135 55.5 -261t154.5 -217q107 -98 249 -139q72 -20 136 -20q44 0 122 13zM502 -216l174 120l43 -42q87 -83 87 -137q0 -86 -255 -223l-6 10q75 80 75 124q0 37 -38 78q-26 28 -80 70z" />
<glyph unicode="&#xea6c;" horiz-adv-x="808" d="M758 173l9 -12q-50 -37 -98 -73q-72 -55 -126 -82q-52 -26 -117 -26q-145 0 -262 141q-111 135 -111 284q0 124 81 245q80 120 236 208q119 67 218 67q91 0 156 -51q59 -46 59 -100q0 -46 -61 -85l-127 -82q-20 64 -59 107q-73 77 -162 77q-81 0 -120 -80 q-30 -62 -30 -120q0 -116 87 -239q75 -104 188 -159q82 -39 153 -39q36 0 86 19zM268 -204l157 108l39 -38q78 -75 78 -123q0 -78 -230 -202l-5 10q67 71 67 111q0 34 -35 71q-23 24 -71 63z" />
<glyph unicode="&#xea6d;" horiz-adv-x="1092" d="M776 1093q-91 155 -246 155q-80 0 -135 -46q-68 -55 -68 -137q0 -56 31 -94.5t101 -71.5q50 -23 182 -65q174 -55 233 -79t99 -54q92 -71 92 -161q0 -99 -95 -215q-127 -154 -316 -241q-185 -84 -323 -84q-83 0 -194 50q-137 61 -137 140q0 41 76 87l190 116 q28 -75 61 -113q43 -49 112 -79.5t139 -30.5q80 0 142 48q72 57 72 143q0 112 -122 176q-70 37 -353 129q-148 48 -200 104q-64 68 -64 145q0 130 141 250q123 105 313 166q126 41 220 41q120 0 209 -42q79 -37 79 -85q0 -45 -105 -92zM381 -216l174 120l43 -42 q86 -83 86 -137q0 -86 -254 -223l-6 10q75 80 75 124q0 37 -38 78q-26 27 -80 70z" />
<glyph unicode="&#xea6e;" horiz-adv-x="806" d="M567 662q-52 78 -119 105q-38 15 -84 15q-34 0 -59 -11q-42 -17 -42 -49q0 -52 79 -95q56 -31 120 -50l155 -47q66 -20 107 -69q30 -36 30 -88q0 -40 -22 -76.5t-75 -84.5q-73 -66 -154 -126t-123 -79q-59 -27 -118 -27q-103 0 -175 79q-41 45 -41 91q0 43 72 88l127 79 q5 -54 26 -84q66 -97 204 -97q94 0 94 80q0 78 -83 124q-40 22 -137 51q-176 52 -210 72q-60 36 -60 94q0 79 101 165q92 78 210 149q95 57 176 57q71 0 122 -28q56 -31 56 -79q0 -27 -27 -48q-4 -3 -38 -30zM266 -204l156 108l39 -38q79 -75 79 -123q0 -78 -230 -202l-5 10 q67 71 67 111q0 34 -35 71q-23 24 -71 63z" />
<glyph unicode="&#xfb00;" horiz-adv-x="1211" d="M778 901q9 108 21 155q21 81 66 131q116 129 269 233q65 45 103 54q25 7 53 7q60 0 127 -37q37 -20 102 -76l-196 -156q-14 11 -80 63q-68 54 -109 54q-73 0 -100 -87q-22 -70 -22 -250v-98q96 -1 122 -1q66 0 157 8q-83 -95 -172 -184h-107q-3 -106 -3 -167 q0 -170 17 -424q-172 -104 -267 -175q7 118 9 367q0 52 6 406q-51 1 -73 1q-41 0 -152 -4q-45 -2 -136 -4q-3 -106 -3 -167q0 -170 17 -424q-172 -105 -267 -175q7 118 9 367q1 54 6 406q-150 0 -250 9q93 82 176 173q39 -4 78 -5q9 108 21 155q21 81 66 131 q116 129 269 233q65 45 103 54q25 7 53 7q60 0 127 -37q37 -20 102 -76l-196 -156q-14 11 -79 63q-69 54 -110 54q-73 0 -100 -87q-22 -70 -22 -250v-98h78q148 0 287 7z" />
<glyph unicode="&#xfb01;" horiz-adv-x="1162" d="M520 717h-107q-3 -106 -3 -167q0 -170 17 -424q-172 -105 -267 -175q7 118 9 367q1 54 6 406q-150 0 -250 9q93 82 176 173q39 -4 78 -5q9 108 21 155q21 81 66 131q116 129 269 233q65 45 103 54q25 7 53 7q60 0 127 -37q37 -20 102 -76l-196 -156q-14 11 -80 63 q-68 54 -109 54q-73 0 -100 -87q-22 -70 -22 -250v-98q96 -1 122 -1q66 0 157 8q-83 -95 -172 -184zM773 1105l213 136q62 -102 135 -130l-94 -59q-81 -51 -126 -51q-48 0 -88 45q-15 17 -40 59zM640 700l-7 13l211 129q32 20 71 45q43 28 75 28q60 0 55 -124q-1 -14 0 -63 q0 -42 -8 -252q-4 -99 -4 -188q0 -54 2 -167q-127 -70 -254 -155q7 95 14.5 302.5t7.5 277.5q0 170 -101 170q-25 0 -62 -16z" />
<glyph unicode="&#xfb02;" horiz-adv-x="1154" d="M837 1433q17 11 43 28q75 48 115 48q39 0 46 -58q4 -27 4 -73q0 -31 -12 -395q-11 -596 -11 -678q0 -46 2 -162q-69 -51 -130 -89q-70 -43 -130 -81q29 324 37 531q4 118 4 498q0 167 -6 214q-2 19 -11 48l-64 -52q-14 11 -80 63q-68 54 -109 54q-73 0 -100 -87 q-22 -70 -22 -250v-98q96 -1 122 -1q66 0 157 8q-83 -95 -172 -184h-107q-3 -106 -3 -167q0 -170 17 -424q-172 -105 -267 -175q7 118 9 367q1 54 6 406q-150 0 -250 9q93 82 176 173q39 -4 78 -5q9 108 21 155q21 81 66 131q116 129 269 233q65 45 102 54q26 7 53 7 q66 0 147 -48z" />
<glyph unicode="&#xfb03;" horiz-adv-x="1761" d="M778 901q9 108 21 155q21 81 66 131q116 129 269 233q65 45 103 54q25 7 53 7q60 0 127 -37q37 -20 102 -76l-196 -156q-14 11 -80 63q-68 54 -109 54q-73 0 -100 -87q-22 -70 -22 -250v-98q96 -1 122 -1q66 0 157 8q-83 -95 -172 -184h-107q-3 -106 -3 -167 q0 -170 17 -424q-172 -104 -267 -175q7 118 9 367q0 52 6 406q-51 1 -73 1q-41 0 -152 -4q-45 -2 -136 -4q-3 -106 -3 -167q0 -170 17 -424q-172 -105 -267 -175q7 118 9 367q1 54 6 406q-150 0 -250 9q93 82 176 173q39 -4 78 -5q9 108 21 155q21 81 66 131 q116 129 269 233q65 45 103 54q25 7 53 7q60 0 127 -37q37 -20 102 -76l-196 -156q-14 11 -79 63q-69 54 -110 54q-73 0 -100 -87q-22 -70 -22 -250v-98h62q80 0 303 7zM1372 1105l213 136q61 -102 135 -130l-94 -59q-82 -51 -126 -51q-48 0 -89 45q-14 17 -39 59zM1238 700 l-6 13l211 129q33 21 71 45q43 28 75 28q60 0 55 -125q-1 -14 0 -62q0 -45 -8 -252q-4 -103 -4 -191q0 -55 2 -164q-127 -70 -254 -155q6 94 14 301t8 279q0 170 -102 170q-24 0 -62 -16z" />
</font>
</defs>
</svg>
